<?xml version="1.0" encoding="utf-8"?>
<!-- Generator: Adobe Illustrator 26.3.1, SVG Export Plug-In . SVG Version: 6.00 Build 0)  -->
<svg version="1.1" id="Logo_00000143618844505999176130000005869979263655204993_"
	 xmlns="http://www.w3.org/2000/svg" xmlns:xlink="http://www.w3.org/1999/xlink" x="0px" y="0px" viewBox="0 0 1133.858 807.874"
	 enable-background="new 0 0 1133.858 807.874" xml:space="preserve">
<g>
	<path d="M337.053,42.934H150.507c-25.483,0-46.333,20.85-46.333,46.333v3.711c0,25.589,20.744,46.333,46.333,46.333h186.546
		c25.589,0,46.333-20.744,46.333-46.333v-3.711C383.386,63.678,362.642,42.934,337.053,42.934L337.053,42.934z"/>
</g>
<g>
	<path d="M641.235,50l8.075,7.871l-84.183,30.997l-97.081-0.329L507.582,50H641.235 M661.572,0H487.245L345.543,138.124
		l228.414,0.773L740.976,77.4L661.572,0L661.572,0z"/>
</g>
<g>
	<path d="M749.469,111.261c26.283,0,52.364,3.303,77.517,9.818c24.388,6.317,47.996,15.669,70.17,27.798l16.82,9.201h19.172h78.835
		v79.214v19.098l9.134,16.772c12.165,22.337,21.546,46.128,27.884,70.714c6.54,25.369,9.856,51.677,9.856,78.191
		s-3.316,52.821-9.856,78.191c-6.338,24.585-15.72,48.377-27.884,70.714l-9.134,16.772v19.098v62.539h-51.18h-22.571l-18.822,12.458
		c-50.445,33.387-109.21,51.035-169.94,51.035c-60.731,0-119.495-17.648-169.941-51.035l-18.822-12.458h-22.571H75V158.079h490.789
		h19.172l16.82-9.201c22.173-12.129,45.782-21.482,70.17-27.798C697.105,114.565,723.186,111.261,749.469,111.261 M749.469,36.261
		c-66.528,0-129.106,16.965-183.68,46.818H0v661.303h538.135c60.637,40.133,133.267,63.492,211.334,63.492
		c78.067,0,150.697-23.36,211.334-63.492h126.18V606.842c29.884-54.873,46.875-117.832,46.875-184.775
		s-16.991-129.901-46.875-184.775V83.079H933.149C878.575,53.227,815.996,36.261,749.469,36.261L749.469,36.261z"/>
</g>
<g>
	<rect x="111.26" y="198.749" fill-rule="evenodd" clip-rule="evenodd" width="49.606" height="418.29"/>
</g>
<g>
	<rect x="190.63" y="198.749" fill-rule="evenodd" clip-rule="evenodd" width="32.598" height="418.29"/>
</g>
<g>
	<path d="M749.469,111.261c41.766,0,82.245,8.194,120.314,24.355c36.826,15.633,69.919,38.034,98.36,66.58
		c28.46,28.565,50.799,61.814,66.395,98.823c16.138,38.296,24.321,79.022,24.321,121.048s-8.183,82.752-24.321,121.048
		c-15.596,37.009-37.934,70.258-66.395,98.823c-28.441,28.546-61.534,50.947-98.36,66.58
		c-38.069,16.161-78.548,24.355-120.314,24.355s-82.245-8.194-120.314-24.355c-36.826-15.633-69.919-38.034-98.36-66.58
		c-28.46-28.565-50.798-61.814-66.395-98.823c-16.138-38.296-24.321-79.022-24.321-121.048s8.183-82.752,24.321-121.048
		c15.596-37.009,37.934-70.258,66.395-98.823c28.441-28.546,61.534-50.947,98.36-66.58
		C667.224,119.456,707.703,111.261,749.469,111.261 M749.469,36.261c-212.292,0-384.389,172.731-384.389,385.806
		s172.097,385.806,384.389,385.806s384.389-172.731,384.389-385.806S961.761,36.261,749.469,36.261L749.469,36.261z"/>
</g>
<g>
	<path d="M749.469,214.824c55.357,0,107.4,21.557,146.544,60.7c39.143,39.143,60.701,91.187,60.701,146.544
		s-21.557,107.4-60.701,146.544c-39.143,39.143-91.187,60.701-146.544,60.701s-107.4-21.557-146.544-60.701
		c-39.143-39.143-60.701-91.187-60.701-146.544s21.557-107.4,60.701-146.544C642.069,236.381,694.112,214.824,749.469,214.824
		 M749.469,164.824c-142.072,0-257.244,115.172-257.244,257.244s115.172,257.244,257.244,257.244s257.244-115.172,257.244-257.244
		S891.541,164.824,749.469,164.824L749.469,164.824z"/>
</g>
</svg>
