<?xml version="1.0" encoding="utf-8"?>
<!-- Generator: Adobe Illustrator 26.3.1, SVG Export Plug-In . SVG Version: 6.00 Build 0)  -->
<svg version="1.1" xmlns="http://www.w3.org/2000/svg" xmlns:xlink="http://www.w3.org/1999/xlink" x="0px" y="0px"
	 viewBox="0 0 566.929 566.929" enable-background="new 0 0 566.929 566.929" xml:space="preserve">
<g id="Outer_Square">
	<g id="Bottom_Right">
		<polyline fill="#44687D" points="488.554,286.348 546.013,286.625 566.929,307.546 541.83,332.647 520.908,311.726 
			468.986,305.916 488.554,286.348 		"/>
		<polyline fill="#44687D" points="465.726,309.179 516.725,315.912 537.646,336.829 512.542,361.93 491.624,341.013 
			446.158,328.744 465.726,309.179 		"/>
		<polyline fill="#44687D" points="442.896,332.007 487.441,345.197 508.359,366.114 483.257,391.214 462.341,370.297 
			423.326,351.575 442.896,332.007 		"/>
		<polyline fill="#44687D" points="420.067,354.838 458.153,374.481 479.074,395.402 453.97,420.502 433.052,399.585 
			400.499,374.408 420.067,354.838 		"/>
		<polyline fill="#44687D" points="397.236,377.666 428.869,403.768 449.786,424.685 424.685,449.786 403.769,428.869 
			377.666,397.235 397.236,377.666 		"/>
		<polyline fill="#44687D" points="374.408,400.494 399.585,433.052 420.503,453.973 395.403,479.074 374.482,458.153 
			354.835,420.067 374.408,400.494 		"/>
		<polyline fill="#44687D" points="351.575,423.326 370.298,462.34 391.218,483.257 366.113,508.358 345.197,487.441 
			332.007,442.895 351.575,423.326 		"/>
		<polyline fill="#44687D" points="328.749,446.158 341.013,491.623 361.931,512.54 336.829,537.641 315.913,516.724 
			309.179,465.726 328.749,446.158 		"/>
		<polyline fill="#44687D" points="305.917,468.989 311.726,520.908 332.646,541.828 307.542,566.929 286.627,546.008 
			286.349,488.554 305.917,468.989 		"/>
	</g>
	<g id="Top_Right">
		<polyline fill="#44687D" points="488.554,280.581 546.012,280.304 566.929,259.383 541.828,234.282 520.908,255.203 
			468.986,261.013 488.554,280.581 		"/>
		<polyline fill="#44687D" points="465.726,257.75 516.725,251.017 537.646,230.1 512.541,204.999 491.624,225.916 446.157,238.185 
			465.726,257.75 		"/>
		<polyline fill="#44687D" points="442.895,234.922 487.441,221.733 508.358,200.816 483.257,175.715 462.341,196.632 
			423.326,215.354 442.895,234.922 		"/>
		<polyline fill="#44687D" points="420.067,212.091 458.153,192.448 479.074,171.527 453.969,146.427 433.052,167.344 
			400.498,192.522 420.067,212.091 		"/>
		<polyline fill="#44687D" points="397.235,189.263 428.869,163.161 449.786,142.244 424.685,117.144 403.768,138.061 
			377.666,169.694 397.235,189.263 		"/>
		<polyline fill="#44687D" points="374.408,166.435 399.585,133.877 420.502,112.956 395.403,87.856 374.482,108.776 
			354.834,146.862 374.408,166.435 		"/>
		<polyline fill="#44687D" points="351.575,143.604 370.298,104.589 391.218,83.672 366.113,58.571 345.197,79.488 332.007,124.034 
			351.575,143.604 		"/>
		<polyline fill="#44687D" points="328.749,120.772 341.013,75.306 361.93,54.389 336.829,29.288 315.912,50.205 309.179,101.203 
			328.749,120.772 		"/>
		<polyline fill="#44687D" points="305.916,97.94 311.725,46.022 332.646,25.101 307.542,0 286.626,20.921 286.348,78.375 
			305.916,97.94 		"/>
	</g>
	<g id="Bottom_Left">
		<polyline fill="#44687D" points="78.376,286.348 20.917,286.625 0,307.546 25.1,332.647 46.022,311.726 97.944,305.916 
			78.376,286.348 		"/>
		<polyline fill="#44687D" points="101.204,309.179 50.205,315.912 29.284,336.829 54.387,361.93 75.305,341.013 120.772,328.744 
			101.204,309.179 		"/>
		<polyline fill="#44687D" points="124.034,332.007 79.489,345.197 58.571,366.114 83.672,391.214 104.588,370.297 143.604,351.575 
			124.034,332.007 		"/>
		<polyline fill="#44687D" points="146.863,354.838 108.777,374.481 87.856,395.402 112.96,420.502 133.878,399.585 166.43,374.408 
			146.863,354.838 		"/>
		<polyline fill="#44687D" points="169.694,377.666 138.06,403.768 117.143,424.685 142.245,449.786 163.161,428.869 
			189.263,397.235 169.694,377.666 		"/>
		<polyline fill="#44687D" points="192.521,400.494 167.344,433.052 146.426,453.973 171.527,479.074 192.448,458.153 
			212.094,420.067 192.521,400.494 		"/>
		<polyline fill="#44687D" points="215.354,423.326 196.631,462.34 175.712,483.257 200.816,508.358 221.733,487.441 
			234.923,442.895 215.354,423.326 		"/>
		<polyline fill="#44687D" points="238.18,446.158 225.917,491.623 204.999,512.54 230.1,537.641 251.016,516.724 257.751,465.726 
			238.18,446.158 		"/>
		<polyline fill="#44687D" points="261.012,468.989 255.204,520.908 234.284,541.828 259.387,566.929 280.303,546.008 
			280.581,488.554 261.012,468.989 		"/>
	</g>
	<g id="Top_Left">
		<polyline fill="#44687D" points="78.375,280.581 20.917,280.304 0,259.383 25.101,234.282 46.022,255.203 97.944,261.013 
			78.375,280.581 		"/>
		<polyline fill="#44687D" points="101.203,257.75 50.205,251.017 29.284,230.1 54.388,204.999 75.305,225.916 120.773,238.185 
			101.203,257.75 		"/>
		<polyline fill="#44687D" points="124.034,234.922 79.488,221.733 58.571,200.816 83.672,175.715 104.588,196.632 143.604,215.354 
			124.034,234.922 		"/>
		<polyline fill="#44687D" points="146.863,212.091 108.777,192.448 87.856,171.527 112.96,146.427 133.877,167.344 
			166.431,192.522 146.863,212.091 		"/>
		<polyline fill="#44687D" points="169.694,189.263 138.06,163.161 117.143,142.244 142.244,117.144 163.161,138.061 
			189.263,169.694 169.694,189.263 		"/>
		<polyline fill="#44687D" points="192.521,166.435 167.344,133.877 146.427,112.956 171.527,87.856 192.448,108.776 
			212.095,146.862 192.521,166.435 		"/>
		<polyline fill="#44687D" points="215.354,143.604 196.631,104.589 175.712,83.672 200.816,58.571 221.733,79.488 234.923,124.034 
			215.354,143.604 		"/>
		<polyline fill="#44687D" points="238.18,120.772 225.916,75.306 204.999,54.389 230.1,29.288 251.017,50.205 257.75,101.203 
			238.18,120.772 		"/>
		<polyline fill="#44687D" points="261.013,97.94 255.204,46.022 234.283,25.101 259.387,0 280.304,20.921 280.581,78.375 
			261.013,97.94 		"/>
	</g>
</g>
<g id="Inner_Square">
	<path id="Core_2_" fill="#1C2A33" d="M283.467,481.272c-2.231,0-4.464-0.854-6.168-2.554L88.212,289.628
		c-3.405-3.401-3.405-8.926,0-12.331l170.551-170.551h49.403l170.551,170.551c3.405,3.405,3.405,8.93,0,12.331l-189.084,189.09
		C287.93,480.418,285.7,481.272,283.467,481.272"/>
	<g id="Ø">
		<path fill="#FFFFFF" d="M284.006,179.34c-58.486,0-102.875,40.833-102.875,103.667c0,61.333,45.018,104.583,102.333,104.583
			s102.333-41.917,102.333-104.583C385.798,220.84,341.321,179.34,284.006,179.34z M283.409,377.228
			c-34.222,0-64.667-31.431-64.667-96c0-52.087,26.234-91.667,65.333-91.667c30.333,0,64,30.111,64,93.743
			C348.076,335.392,325.631,377.228,283.409,377.228z"/>
		
			<rect x="277.801" y="148.747" transform="matrix(0.7934 0.6088 -0.6088 0.7934 231.1396 -113.9853)" fill="#FFFFFF" width="11.327" height="269.435"/>
	</g>
</g>
</svg>
