<?xml version="1.0" encoding="utf-8"?>
<!-- Generator: Adobe Illustrator 26.3.1, SVG Export Plug-In . SVG Version: 6.00 Build 0)  -->
<svg version="1.1" id="Logo" xmlns="http://www.w3.org/2000/svg" xmlns:xlink="http://www.w3.org/1999/xlink" x="0px" y="0px"
	 viewBox="0 0 973.701 1133.858" enable-background="new 0 0 973.701 1133.858" xml:space="preserve">
<g id="Bottom_Legs">
	<line fill="none" stroke="#000000" stroke-width="65" x1="231.732" y1="792.284" x2="231.732" y2="1133.858"/>
	<line fill="none" stroke="#000000" stroke-width="65" x1="741.969" y1="792.284" x2="741.969" y2="1133.858"/>
	<line fill="none" stroke="#000000" stroke-width="65" x1="333.78" y1="792.284" x2="333.78" y2="1133.858"/>
	<line fill="none" stroke="#000000" stroke-width="65" x1="639.921" y1="1133.858" x2="639.921" y2="792.284"/>
	<line fill="none" stroke="#000000" stroke-width="65" x1="537.874" y1="1133.858" x2="537.874" y2="792.284"/>
	<line fill="none" stroke="#000000" stroke-width="65" x1="435.827" y1="1133.858" x2="435.827" y2="792.284"/>
</g>
<g id="Middle">
	<g>
		<path d="M725.167,416.575l133.262,300.709H115.271l133.259-300.709H725.167 M773.965,341.575H199.731L0,792.284h973.701
			L773.965,341.575L773.965,341.575z"/>
	</g>
	<g id="MUX">
		<path d="M400.484,678.828h-41.189V569.543l-30.006,70.531h-28.235l-30.006-70.531v109.284h-38.974V513.96h47.722l36.539,81.382
			l36.428-81.382h47.722V678.828z"/>
		<path d="M501.243,682.261c-22.144,0-39.179-5.351-51.099-16.055c-11.922-10.704-17.882-26.352-17.882-46.949V513.96h41.411
			v102.864c0,11.442,2.159,19.967,6.478,25.577c4.319,5.608,11.349,8.414,21.092,8.414c9.522,0,16.516-2.695,20.982-8.085
			c4.466-5.386,6.699-14.023,6.699-25.906V513.96h41.412v105.189c0,20.3-5.814,35.894-17.441,46.78
			C541.27,676.819,524.052,682.261,501.243,682.261z"/>
		<path d="M741.627,678.828h-48.055l-31.667-52.595l-32.331,52.595h-45.841l53.48-83.045l-51.376-81.823h47.943l29.675,49.715
			l30.45-49.715h45.949l-51.707,80.165L741.627,678.828z"/>
	</g>
</g>
<line id="Top_Leg" fill="none" stroke="#000000" stroke-width="65" x1="486.85" y1="341.575" x2="486.85" y2="0"/>
</svg>
