<?xml version="1.0" encoding="utf-8"?>
<!-- Generator: Adobe Illustrator 26.3.1, SVG Export Plug-In . SVG Version: 6.00 Build 0)  -->
<svg version="1.1" xmlns="http://www.w3.org/2000/svg" xmlns:xlink="http://www.w3.org/1999/xlink" x="0px" y="0px"
	 viewBox="0 0 566.929 566.929" enable-background="new 0 0 566.929 566.929" xml:space="preserve">
<g id="Outside">
	<g id="Bottom_Left_1_">
		<path fill="#1C2A33" d="M119.679,420.764l-77.003,77.553c0,0-2.873,3.643-1.177,9.132c1.697,5.49,9.019,18.334,19.304,20.058
			c6.755,1.132,8.721-0.656,8.721-0.656l77.65-78.593l-27.477-27.511"/>
	</g>
	<g id="Bottom_Right_1_">
		<path fill="#1C2A33" d="M421.433,446.605l41.876,45.487l26.457,40.446c0,0,9.379,6.427,20.929,1.294s18.226-14.462,18.226-14.462
			s7.168-9.998,7.761-20.578c0.496-8.872-4.294-12.758-4.294-12.758l-39.564-23.691l-44.035-43.112L421.433,446.605"/>
	</g>
	<g id="Top_Right_1_">
		<path id="_x3C_Path_x3E_" fill="#1C2A33" d="M352.43,75.324l-9.811-11.296c7.032-5.706,14.242-10.725,21.566-15.061l11.128,12.765
			l-19.562,16.913l2.668,2.668l19.364-16.744l14.951,17.149l-18.177,15.735l2.668,2.668l17.981-15.567l16.169,18.55l-16.668,14.499
			l2.668,2.667l16.472-14.331l14.469,16.598l-15.377,13.298l2.668,2.668l15.185-13.129l16.623,19.071l-13.855,12.01l2.667,2.666
			l13.661-11.838l16.12,18.49L453.607,176.5l2.667,2.667l12.207-10.559l15.929,18.274l-10.953,9.467l2.667,2.667l10.76-9.3
			l16.241,18.635l-9.476,8.188l2.667,2.668l9.281-8.023l9.369,10.747c-2.264,2.985-4.663,5.902-7.176,8.75l14.116,14.116
			c54.688-59.651,60.708-148.691,11.72-199.044c-53.194-54.682-138.762-54.997-207.627,3.14L352.43,75.324z M380.631,62.107
			l16.322-14.113l14.903,17.169l-16.278,14.093L380.631,62.107z M398.051,82.089l16.271-14.085l16.091,18.538l-16.197,14.091
			L398.051,82.089z M490.968,111.678l16.07,18.607l-19.235,16.638l-16.098-18.55L490.968,111.678z M469.238,125.532l-16.562-19.081
			l19.339-16.722l16.494,19.101L469.238,125.532z M509.498,133.132l15.859,18.363l-19.191,16.583l-15.897-18.316L509.498,133.132z
			 M493.813,109.214l16.77-14.532l16.104,18.607l-16.803,14.535L493.813,109.214z M491.352,106.365l-16.493-19.096l16.761-14.493
			l16.499,19.06L491.352,106.365z M472.399,84.42l-14.508-16.798l16.695-14.527l14.571,16.835L472.399,84.42z M469.553,86.882
			l-19.346,16.726l-14.489-16.694l19.335-16.821L469.553,86.882z M433.25,84.072l-16.082-18.531l19.428-16.818l15.997,18.522
			L433.25,84.072z M416.688,103.469l16.19-14.086l14.483,16.687l-16.197,14.006L416.688,103.469z M433.636,122.911l16.191-13.999
			l16.567,19.084l-16.135,13.985L433.636,122.911z M452.732,144.817l16.129-13.978l16.097,18.544l-16.104,13.928L452.732,144.817z
			 M471.328,166.148l16.095-13.923l15.897,18.314l-16.062,13.882L471.328,166.148z M489.728,187.257l16.059-13.878l16.2,18.667
			l-16.015,13.844L489.728,187.257z M517.252,218.832l-8.808-10.107l16.01-13.836l4.377,5.043
			C525.488,206.424,521.622,212.748,517.252,218.832z M530.647,196.282l-3.345-3.855l8.007-6.922
			C533.907,189.133,532.354,192.73,530.647,196.282z M537.883,178.307l-13.049,11.278l-16.2-18.665l19.182-16.579l12.742,14.756
			C539.774,172.175,538.883,175.253,537.883,178.307z M541.626,164.576l-10.965-12.692l14.066-12.154
			C544.487,147.957,543.446,156.285,541.626,164.576z M544.771,134.717l-16.567,14.317l-15.861-18.363l16.807-14.538l15.621,18.047
			C544.773,134.36,544.77,134.54,544.771,134.717z M544.531,128.156l-12.534-14.483l8.947-7.738
			C542.852,113.117,544.047,120.562,544.531,128.156z M539.797,101.949l-10.265,8.879l-16.108-18.609l15.795-13.69
			C533.739,85.825,537.258,93.694,539.797,101.949z M516.646,62.407c3.922,4.03,7.414,8.361,10.505,12.934l-16.189,14.031
			l-16.497-19.057l15.987-13.824C512.569,58.372,514.634,60.341,516.646,62.407z M507.571,54.009l-15.567,13.462l-14.577-16.845
			l10.939-9.52C495.096,44.672,501.524,48.974,507.571,54.009z M484.734,39.28l-9.772,8.501l-14.643-16.918
			C468.754,32.705,476.932,35.511,484.734,39.28z M472.125,50.251l-16.694,14.523l-15.989-18.516l16.707-14.465L472.125,50.251z
			 M453.033,29.515l-16.051,13.897l-12.661-14.662C434.059,27.851,443.681,28.108,453.033,29.515z M419.786,29.26l14.35,16.614
			l-19.436,16.826l-14.901-17.167l18.615-16.097C418.873,29.372,419.33,29.319,419.786,29.26z M411.265,30.647l-13.934,12.045
			l-5.752-6.629C398.134,33.738,404.708,31.935,411.265,30.647z M387.81,37.461l6.676,7.69l-16.326,14.12L367.504,47.05
			C374.204,43.287,380.991,40.093,387.81,37.461z"/>
	</g>
	<g id="Top_Left_1_">
		<path fill="#1C2A33" d="M175.96,113.944c0,0-73.534-99.308-114.006-107.578C20.136-2.178-5.551,31.181,1.022,63.951
			C9.76,107.512,103.6,186.239,103.6,186.239L175.96,113.944"/>
	</g>
</g>
<g id="Outer_Square">
	<g id="Bottom_Right">
		<polyline fill="#44687D" points="476.253,298.167 530.266,298.427 549.927,318.095 526.333,341.688 506.666,322.023 
			457.859,316.562 476.253,298.167 		"/>
		<polyline fill="#44687D" points="454.795,319.629 502.736,325.958 522.401,345.621 498.802,369.215 479.139,349.554 
			436.4,338.019 454.795,319.629 		"/>
		<polyline fill="#44687D" points="433.334,341.086 475.206,353.486 494.869,373.147 471.274,396.743 451.613,377.08 
			414.938,359.481 433.334,341.086 		"/>
		<polyline fill="#44687D" points="411.875,362.55 447.676,381.013 467.341,400.68 443.744,424.273 424.08,404.612 393.48,380.944 
			411.875,362.55 		"/>
		<polyline fill="#44687D" points="390.412,384.007 420.15,408.543 439.811,428.207 416.215,451.801 396.554,432.14 
			372.018,402.402 390.412,384.007 		"/>
		<polyline fill="#44687D" points="368.955,405.467 392.621,436.072 412.284,455.737 388.691,479.333 369.023,459.666 
			350.555,423.865 368.955,405.467 		"/>
		<polyline fill="#44687D" points="347.491,426.929 365.09,463.602 384.756,483.266 361.156,506.859 341.494,487.198 
			329.097,445.323 347.491,426.929 		"/>
		<polyline fill="#44687D" points="326.033,448.39 337.562,491.129 357.225,510.792 333.629,534.386 313.968,514.725 
			307.638,466.784 326.033,448.39 		"/>
		<polyline fill="#44687D" points="304.571,469.853 310.031,518.657 329.697,538.322 306.099,561.919 286.439,542.251 
			286.178,488.244 304.571,469.853 		"/>
	</g>
	<g id="Top_Right">
		<polyline fill="#44687D" points="476.253,292.745 530.266,292.485 549.927,272.82 526.333,249.225 506.666,268.891 
			457.859,274.35 476.253,292.745 		"/>
		<polyline fill="#44687D" points="454.795,271.284 502.736,264.955 522.401,245.294 498.802,221.698 479.139,241.361 
			436.4,252.892 454.795,271.284 		"/>
		<polyline fill="#44687D" points="433.334,249.826 475.206,237.428 494.869,217.765 471.274,194.17 451.613,213.833 
			414.938,231.431 433.334,249.826 		"/>
		<polyline fill="#44687D" points="411.875,228.365 447.676,209.9 467.341,190.234 443.744,166.639 424.08,186.301 393.48,209.968 
			411.875,228.365 		"/>
		<polyline fill="#44687D" points="390.412,206.905 420.15,182.37 439.811,162.707 416.215,139.112 396.554,158.774 
			372.018,188.511 390.412,206.905 		"/>
		<polyline fill="#44687D" points="368.955,185.446 392.621,154.841 412.284,135.176 388.691,111.582 369.023,131.247 
			350.555,167.048 368.955,185.446 		"/>
		<polyline fill="#44687D" points="347.491,163.985 365.09,127.311 384.756,107.648 361.156,84.052 341.494,103.715 
			329.097,145.589 347.491,163.985 		"/>
		<polyline fill="#44687D" points="326.033,142.522 337.562,99.783 357.225,80.121 333.629,56.526 313.968,76.188 307.638,124.127 
			326.033,142.522 		"/>
		<polyline fill="#44687D" points="304.571,121.061 310.031,72.255 329.697,52.59 306.099,28.995 286.437,48.661 286.176,102.669 
			304.571,121.061 		"/>
	</g>
	<g id="Bottom_Left">
		<polyline fill="#44687D" points="90.678,298.167 36.666,298.427 17.004,318.095 40.598,341.688 60.265,322.023 109.072,316.562 
			90.678,298.167 		"/>
		<polyline fill="#44687D" points="112.137,319.629 64.197,325.958 44.531,345.621 68.129,369.215 87.792,349.554 130.531,338.019 
			112.137,319.629 		"/>
		<polyline fill="#44687D" points="133.598,341.086 91.725,353.486 72.061,373.147 95.657,396.743 115.318,377.08 151.994,359.481 
			133.598,341.086 		"/>
		<polyline fill="#44687D" points="155.058,362.55 119.256,381.013 99.59,400.68 123.187,424.273 142.851,404.612 173.451,380.944 
			155.058,362.55 		"/>
		<polyline fill="#44687D" points="176.519,384.007 146.782,408.543 127.12,428.207 150.716,451.801 170.378,432.14 
			194.915,402.402 176.519,384.007 		"/>
		<polyline fill="#44687D" points="197.977,405.467 174.311,436.072 154.647,455.737 178.242,479.333 197.908,459.666 
			216.376,423.865 197.977,405.467 		"/>
		<polyline fill="#44687D" points="219.44,426.929 201.841,463.602 182.176,483.266 205.774,506.859 225.437,487.198 
			237.835,445.323 219.44,426.929 		"/>
		<polyline fill="#44687D" points="240.897,448.39 229.369,491.129 209.706,510.792 233.302,534.386 252.963,514.725 
			259.293,466.784 240.897,448.39 		"/>
		<polyline fill="#44687D" points="262.359,469.853 256.9,518.657 237.234,538.322 260.832,561.919 280.493,542.251 
			280.754,488.244 262.359,469.853 		"/>
	</g>
	<g id="Top_Left">
		<polyline fill="#44687D" points="90.678,292.745 36.666,292.485 17.004,272.82 40.598,249.225 60.264,268.891 109.072,274.35 
			90.678,292.745 		"/>
		<polyline fill="#44687D" points="112.137,271.284 64.197,264.955 44.531,245.294 68.129,221.698 87.792,241.361 130.532,252.892 
			112.137,271.284 		"/>
		<polyline fill="#44687D" points="133.598,249.826 91.725,237.428 72.061,217.765 95.657,194.17 115.318,213.833 151.994,231.431 
			133.598,249.826 		"/>
		<polyline fill="#44687D" points="155.058,228.365 119.256,209.9 99.59,190.234 123.188,166.639 142.851,186.301 173.452,209.968 
			155.058,228.365 		"/>
		<polyline fill="#44687D" points="176.52,206.905 146.782,182.37 127.12,162.707 150.716,139.112 170.378,158.774 194.915,188.511 
			176.52,206.905 		"/>
		<polyline fill="#44687D" points="197.977,185.446 174.31,154.841 154.647,135.176 178.242,111.582 197.908,131.247 
			216.377,167.048 197.977,185.446 		"/>
		<polyline fill="#44687D" points="219.44,163.985 201.841,127.311 182.176,107.648 205.774,84.052 225.437,103.715 
			237.835,145.589 219.44,163.985 		"/>
		<polyline fill="#44687D" points="240.897,142.522 229.369,99.783 209.706,80.121 233.302,56.526 252.964,76.188 259.293,124.127 
			240.897,142.522 		"/>
		<polyline fill="#44687D" points="262.361,121.061 256.901,72.255 237.234,52.59 260.832,28.995 280.494,48.661 280.755,102.669 
			262.361,121.061 		"/>
	</g>
</g>
<g id="Inner_Square">
	<path id="Core_3_" fill="#1C2A33" d="M283.466,481.399c-2.098,0-4.196-0.802-5.799-2.4L99.924,301.252
		c-3.201-3.198-3.201-8.392,0-11.591l160.321-160.322h46.438l160.322,160.322c3.201,3.199,3.201,8.393,0,11.591L289.263,478.999
		C287.663,480.598,285.565,481.399,283.466,481.399"/>
	<g id="Ball_1_">
		<path id="_x3C_Path_x3E__3_" fill-rule="evenodd" clip-rule="evenodd" fill="#FFFFFF" d="M283.479,341.094
			c-34.538,0.014-62.687-28.144-62.658-62.678c0.027-34.551,28.167-62.619,62.739-62.585c34.448,0.036,62.515,28.105,62.55,62.556
			C346.145,312.928,318.029,341.08,283.479,341.094z"/>
		<path id="_x3C_Path_x3E__2_" fill-rule="evenodd" clip-rule="evenodd" fill="#44687D" d="M340.38,263.809h-15.613l-7.993-13.988
			l7.665-13.412c-6.952-6.771-15.566-11.837-25.162-14.524l-7.818,13.68h-15.986l-7.812-13.672
			c-9.604,2.687-18.219,7.748-25.17,14.517l7.668,13.416l-7.992,13.983H226.55c-1.204,4.673-1.849,9.569-1.853,14.612
			c-0.004,5.072,0.641,9.998,1.854,14.698h15.611l7.994,13.987l-7.661,13.409c6.951,6.771,15.564,11.835,25.16,14.523l7.816-13.675
			h15.986l7.815,13.675c9.598-2.688,18.211-7.752,25.161-14.523l-7.661-13.409l7.993-13.987h15.609
			c1.216-4.708,1.862-9.643,1.857-14.728C342.227,273.361,341.583,268.474,340.38,263.809z M275.776,237.165h15.226l7.613,13.322
			l-7.613,13.322h-15.226l-7.614-13.322L275.776,237.165z M251.299,250.82h15.225l7.614,13.321l-7.614,13.324h-15.225l-7.613-13.324
			L251.299,250.82z M251.299,306.11l-7.613-13.324l7.613-13.32h15.225l7.614,13.32l-7.614,13.324H251.299z M291.077,319.765h-15.225
			l-7.613-13.322l7.613-13.323h15.225l7.613,13.323L291.077,319.765z M315.631,306.11h-15.225l-7.615-13.324l7.615-13.32h15.225
			l7.614,13.32L315.631,306.11z M315.631,277.466h-15.225l-7.615-13.324l7.615-13.321h15.225l7.614,13.321L315.631,277.466z"/>
	</g>
	<g id="Left_Leaves_1_">
		<path fill-rule="evenodd" clip-rule="evenodd" fill="#44687D" d="M180.313,258.792c-10.673-1.487-17.364-15.012-11.137-23.872
			C179.911,235.095,187.967,249.689,180.313,258.792z"/>
		<path fill-rule="evenodd" clip-rule="evenodd" fill="#44687D" d="M155.296,264.321c9.718-4.659,22.77,2.915,22.476,13.741
			C168.729,283.847,153.95,276.138,155.296,264.321z"/>
		<path fill-rule="evenodd" clip-rule="evenodd" fill="#44687D" d="M153.052,288.988c8.725-6.327,22.922-1.216,24.574,9.49
			C169.767,305.79,153.845,300.854,153.052,288.988z"/>
		<path fill-rule="evenodd" clip-rule="evenodd" fill="#44687D" d="M158.917,314.951c7.219-8.004,22.168-5.957,26.01,4.169
			C178.761,327.908,162.162,326.393,158.917,314.951z"/>
		<path fill-rule="evenodd" clip-rule="evenodd" fill="#44687D" d="M173.04,338.852c4.264-9.896,19.079-12.764,25.971-4.41
			C195.995,344.747,179.789,348.646,173.04,338.852z"/>
		<path fill-rule="evenodd" clip-rule="evenodd" fill="#44687D" d="M189.879,353.553c4.463-9.809,19.332-12.375,26.054-3.884
			C212.71,359.911,196.429,363.482,189.879,353.553z"/>
		<path fill-rule="evenodd" clip-rule="evenodd" fill="#44687D" d="M212.556,253.368c-4.168,9.937-18.955,12.945-25.928,4.659
			C189.544,247.695,205.713,243.639,212.556,253.368z"/>
		<path fill-rule="evenodd" clip-rule="evenodd" fill="#44687D" d="M205.403,273.429c-3.856,10.063-18.541,13.534-25.77,5.469
			C182.225,268.48,198.258,263.921,205.403,273.429z"/>
		<path fill-rule="evenodd" clip-rule="evenodd" fill="#44687D" d="M205.173,291.422c-3.642,10.143-18.251,13.923-25.648,6.013
			C181.896,286.964,197.83,282.065,205.173,291.422z"/>
		<path fill-rule="evenodd" clip-rule="evenodd" fill="#44687D" d="M211.854,303.38c0.517,10.765-11.534,19.848-21.396,15.369
			C188.642,308.167,201.488,297.546,211.854,303.38z"/>
		<path fill-rule="evenodd" clip-rule="evenodd" fill="#44687D" d="M219.11,313.595c4.13,9.953-4.132,22.584-14.927,21.708
			C198.891,325.962,207.381,311.617,219.11,313.595z"/>
		<path fill-rule="evenodd" clip-rule="evenodd" fill="#44687D" d="M225.945,324.379c8.071,7.138,6.175,22.11-3.912,26.053
			C213.185,344.352,214.534,327.734,225.945,324.379z"/>
	</g>
	<g id="Right_Leaves">
		<path fill-rule="evenodd" clip-rule="evenodd" fill="#44687D" d="M386.615,258.684c10.675-1.487,17.364-15.012,11.138-23.872
			C387.017,234.988,378.961,249.582,386.615,258.684z"/>
		<path fill-rule="evenodd" clip-rule="evenodd" fill="#44687D" d="M411.632,264.214c-9.717-4.659-22.769,2.914-22.476,13.741
			C398.2,283.74,412.977,276.031,411.632,264.214z"/>
		<path fill-rule="evenodd" clip-rule="evenodd" fill="#44687D" d="M413.876,288.881c-8.725-6.327-22.923-1.216-24.572,9.49
			C397.163,305.682,413.082,300.747,413.876,288.881z"/>
		<path fill-rule="evenodd" clip-rule="evenodd" fill="#44687D" d="M408.013,314.844c-7.218-8.004-22.169-5.957-26.011,4.169
			C388.169,327.801,404.767,326.286,408.013,314.844z"/>
		<path fill-rule="evenodd" clip-rule="evenodd" fill="#44687D" d="M393.889,338.745c-4.266-9.897-19.079-12.764-25.97-4.41
			C370.934,344.639,387.14,348.539,393.889,338.745z"/>
		<path fill-rule="evenodd" clip-rule="evenodd" fill="#44687D" d="M377.051,353.445c-4.464-9.809-19.333-12.375-26.055-3.884
			C354.218,359.804,370.5,363.375,377.051,353.445z"/>
		<path fill-rule="evenodd" clip-rule="evenodd" fill="#44687D" d="M354.372,253.26c4.169,9.937,18.957,12.945,25.93,4.659
			C377.384,247.588,361.216,243.532,354.372,253.26z"/>
		<path fill-rule="evenodd" clip-rule="evenodd" fill="#44687D" d="M361.527,273.322c3.855,10.062,18.539,13.534,25.77,5.469
			C384.705,268.373,368.671,263.813,361.527,273.322z"/>
		<path fill-rule="evenodd" clip-rule="evenodd" fill="#44687D" d="M361.757,291.314c3.641,10.143,18.251,13.923,25.647,6.013
			C385.033,286.856,369.1,281.958,361.757,291.314z"/>
		<path fill-rule="evenodd" clip-rule="evenodd" fill="#44687D" d="M355.075,303.272c-0.516,10.765,11.534,19.848,21.395,15.369
			C378.288,308.059,365.441,297.438,355.075,303.272z"/>
		<path fill-rule="evenodd" clip-rule="evenodd" fill="#44687D" d="M347.819,313.487c-4.129,9.953,4.133,22.584,14.927,21.708
			C368.039,325.856,359.548,311.51,347.819,313.487z"/>
		<path fill-rule="evenodd" clip-rule="evenodd" fill="#44687D" d="M340.984,324.27c-8.07,7.139-6.175,22.11,3.912,26.054
			C353.744,344.245,352.397,327.627,340.984,324.27z"/>
	</g>
</g>
</svg>
