<?xml version="1.0" encoding="utf-8"?>
<!-- Generator: Adobe Illustrator 26.3.1, SVG Export Plug-In . SVG Version: 6.00 Build 0)  -->
<svg version="1.1" xmlns="http://www.w3.org/2000/svg" xmlns:xlink="http://www.w3.org/1999/xlink" x="0px" y="0px"
	 viewBox="0 0 566.929 566.929" enable-background="new 0 0 566.929 566.929" xml:space="preserve">
<g id="Outer_Square">
	<g id="Bottom_Right_1_">
		<polyline fill="#cf9cf9" points="488.554,286.348 546.013,286.625 566.929,307.546 541.829,332.647 520.907,311.726 
			468.986,305.916 488.554,286.348 		"/>
		<polyline fill="#cf9cf9" points="465.726,309.179 516.725,315.912 537.646,336.829 512.542,361.93 491.624,341.013 
			446.157,328.744 465.726,309.179 		"/>
		<polyline fill="#cf9cf9" points="442.896,332.007 487.441,345.196 508.359,366.113 483.257,391.214 462.341,370.297 
			423.325,351.575 442.896,332.007 		"/>
		<polyline fill="#cf9cf9" points="420.066,354.838 458.152,374.481 479.073,395.401 453.97,420.502 433.052,399.585 
			400.499,374.407 420.066,354.838 		"/>
		<polyline fill="#cf9cf9" points="397.235,377.666 428.869,403.768 449.786,424.685 424.685,449.785 403.769,428.868 
			377.666,397.234 397.235,377.666 		"/>
		<polyline fill="#cf9cf9" points="374.408,400.494 399.585,433.052 420.503,453.973 395.402,479.073 374.481,458.152 
			354.835,420.066 374.408,400.494 		"/>
		<polyline fill="#cf9cf9" points="351.575,423.325 370.298,462.34 391.218,483.257 366.112,508.358 345.196,487.441 
			332.007,442.895 351.575,423.325 		"/>
		<polyline fill="#cf9cf9" points="328.749,446.157 341.013,491.623 361.931,512.54 336.829,537.641 315.913,516.724 
			309.179,465.726 328.749,446.157 		"/>
		<polyline fill="#cf9cf9" points="305.917,468.988 311.726,520.907 332.646,541.828 307.542,566.929 286.627,546.008 
			286.35,488.554 305.917,468.988 		"/>
	</g>
	<g id="Top_Right_1_">
		<polyline fill="#cf9cf9" points="488.554,280.581 546.012,280.304 566.929,259.383 541.828,234.282 520.907,255.203 
			468.986,261.013 488.554,280.581 		"/>
		<polyline fill="#cf9cf9" points="465.726,257.75 516.725,251.017 537.646,230.1 512.541,204.999 491.624,225.916 446.156,238.185 
			465.726,257.75 		"/>
		<polyline fill="#cf9cf9" points="442.895,234.922 487.441,221.732 508.358,200.815 483.257,175.715 462.341,196.632 
			423.325,215.353 442.895,234.922 		"/>
		<polyline fill="#cf9cf9" points="420.066,212.091 458.152,192.448 479.073,171.527 453.969,146.427 433.052,167.344 
			400.498,192.521 420.066,212.091 		"/>
		<polyline fill="#cf9cf9" points="397.234,189.263 428.869,163.161 449.786,142.244 424.685,117.143 403.768,138.06 
			377.666,169.694 397.234,189.263 		"/>
		<polyline fill="#cf9cf9" points="374.408,166.435 399.585,133.877 420.502,112.956 395.402,87.855 374.481,108.776 
			354.834,146.862 374.408,166.435 		"/>
		<polyline fill="#cf9cf9" points="351.575,143.603 370.298,104.589 391.218,83.672 366.112,58.571 345.196,79.488 332.007,124.034 
			351.575,143.603 		"/>
		<polyline fill="#cf9cf9" points="328.749,120.771 341.013,75.306 361.93,54.389 336.829,29.288 315.912,50.205 309.179,101.203 
			328.749,120.771 		"/>
		<polyline fill="#cf9cf9" points="305.916,97.94 311.725,46.021 332.646,25.1 307.542,0 286.625,20.921 286.348,78.375 
			305.916,97.94 		"/>
	</g>
	<g id="Bottom_Left_1_">
		<polyline fill="#cf9cf9" points="78.375,286.348 20.916,286.625 0,307.546 25.1,332.647 46.022,311.726 97.944,305.916 
			78.375,286.348 		"/>
		<polyline fill="#cf9cf9" points="101.203,309.179 50.204,315.912 29.283,336.829 54.387,361.93 75.305,341.013 120.772,328.744 
			101.203,309.179 		"/>
		<polyline fill="#cf9cf9" points="124.034,332.007 79.489,345.196 58.571,366.113 83.672,391.214 104.588,370.297 143.603,351.575 
			124.034,332.007 		"/>
		<polyline fill="#cf9cf9" points="146.863,354.838 108.777,374.481 87.856,395.401 112.959,420.502 133.877,399.585 
			166.43,374.407 146.863,354.838 		"/>
		<polyline fill="#cf9cf9" points="169.693,377.666 138.06,403.768 117.143,424.685 142.244,449.785 163.16,428.868 
			189.264,397.234 169.693,377.666 		"/>
		<polyline fill="#cf9cf9" points="192.521,400.494 167.344,433.052 146.426,453.973 171.527,479.073 192.447,458.152 
			212.094,420.066 192.521,400.494 		"/>
		<polyline fill="#cf9cf9" points="215.353,423.325 196.631,462.34 175.711,483.257 200.816,508.358 221.732,487.441 
			234.922,442.895 215.353,423.325 		"/>
		<polyline fill="#cf9cf9" points="238.18,446.157 225.916,491.623 204.998,512.54 230.1,537.641 251.016,516.724 257.75,465.726 
			238.18,446.157 		"/>
		<polyline fill="#cf9cf9" points="261.012,468.988 255.203,520.907 234.283,541.828 259.387,566.929 280.303,546.008 
			280.58,488.554 261.012,468.988 		"/>
	</g>
	<g id="Top_Left_1_">
		<polyline fill="#cf9cf9" points="78.375,280.581 20.917,280.304 0,259.383 25.1,234.282 46.021,255.203 97.944,261.013 
			78.375,280.581 		"/>
		<polyline fill="#cf9cf9" points="101.203,257.75 50.204,251.017 29.283,230.1 54.388,204.999 75.305,225.916 120.772,238.185 
			101.203,257.75 		"/>
		<polyline fill="#cf9cf9" points="124.034,234.922 79.488,221.732 58.571,200.815 83.672,175.715 104.588,196.632 143.603,215.353 
			124.034,234.922 		"/>
		<polyline fill="#cf9cf9" points="146.863,212.091 108.777,192.448 87.855,171.527 112.96,146.427 133.877,167.344 
			166.431,192.521 146.863,212.091 		"/>
		<polyline fill="#cf9cf9" points="169.694,189.263 138.06,163.161 117.143,142.244 142.244,117.143 163.161,138.06 
			189.264,169.694 169.694,189.263 		"/>
		<polyline fill="#cf9cf9" points="192.521,166.435 167.344,133.877 146.427,112.956 171.527,87.855 192.447,108.776 
			212.095,146.862 192.521,166.435 		"/>
		<polyline fill="#cf9cf9" points="215.353,143.603 196.631,104.589 175.711,83.672 200.816,58.571 221.732,79.488 234.922,124.034 
			215.353,143.603 		"/>
		<polyline fill="#cf9cf9" points="238.18,120.771 225.916,75.306 204.999,54.389 230.1,29.288 251.017,50.205 257.75,101.203 
			238.18,120.771 		"/>
		<polyline fill="#cf9cf9" points="261.013,97.94 255.204,46.021 234.283,25.1 259.387,0 280.304,20.921 280.581,78.375 
			261.013,97.94 		"/>
	</g>
</g>
<g id="Inner_Square">
	<path id="Core_1_" fill="#3E314E" d="M283.467,481.272c-2.232,0-4.465-0.854-6.169-2.554L88.212,289.628
		c-3.405-3.401-3.405-8.926,0-12.331l170.551-170.551h49.402l170.551,170.551c3.405,3.405,3.405,8.93,0,12.331l-189.084,189.09
		C287.93,480.418,285.699,481.272,283.467,481.272"/>
	<path id="SMN_2_" fill="#FFFFFF" d="M298.068,270.184c-2.042,1.786-4.11,3.25-4.594,3.25c-0.934,0-24.168-18.413-34.888-27.648
		c-7.081-6.1-20.466-20.088-23.368-24.422c-2.361-3.525-2.298-6.519,0.151-7.194c2.758-0.76,22.365-0.646,27.244,0.159
		c5.477,0.904,6.843,0.62,10.509-2.198c4.947-3.802,3.686-5.205-7.299-8.127c-14.836-3.947-32.512-4.726-40.764-1.794
		c-8.144,2.892-16.505,7.545-20.394,11.343c-3.552,3.473-3.792,3.912-4.191,7.674c-0.71,6.677-0.95,7.176-5.524,11.473
		c-3.797,3.567-4.776,4.156-6.909,4.156c-2.007,0-3.257,0.642-6.509,3.35c-2.317,1.929-4.024,3.882-4.024,4.605
		c0,1.711,2.432,4.466,7.875,8.918c3.058,2.502,5.174,3.745,6.378,3.745c2.78,0,8.758-5.572,10.021-9.342
		c0.862-2.567,1.678-3.461,5.43-5.927c5.296-3.482,8.786-4.054,14.545-2.378c9.352,2.719,18.238,8.433,36.13,23.238
		c18.29,15.137,20.402,17.019,19.077,17.019c-0.229,0-1.226-0.594-2.217-1.321c-4.879-3.576-9.255-1.542-11.194,5.202
		c-0.596,2.073-1.479,4.543-1.962,5.493c-0.926,1.82-10.48,7.486-20.901,12.394c-3.682,1.735-7.858,4.499-11.972,7.93
		c-3.475,2.892-13.052,10.694-21.282,17.337c-18.966,15.303-20.405,16.643-20.923,19.514c-0.598,3.299,1.627,10.941,4.485,15.408
		c1.916,2.994,3.15,4.119,5.998,5.468c1.972,0.932,4.161,1.693,4.863,1.693c1.76,0,5.871-2.819,10.232-7.02
		c3.59-3.456,16.447-14.02,30.927-25.405c5.354-4.21,10.178-8.969,17.997-17.753l10.68-12.004l4.157,0.194
		c7.079,0.337,10.585-2.908,9.678-8.953c-0.29-1.939-0.155-3.228,0.415-3.913c0.466-0.564,0.811-2.044,0.763-3.293
		c-0.046-1.25,0.183-2.436,0.511-2.641c0.327-0.204,2.188,1.494,4.134,3.768c8.726,10.197,20.892,22.268,33.497,33.238
		c13.049,11.357,14.65,12.657,23.877,19.351c10.859,7.879,16.946,13.805,20.6,20.055c1.434,2.453,3.22,4.89,3.972,5.415
		c2.155,1.511,5.249,1.159,8.124-0.925l0,0c4.173-3.02,10.748-10.628,11.98-13.86c1.622-4.255,0.83-5.893-4.705-9.694
		c-7.959-5.468-13.688-9.889-23.97-18.493c-22.068-18.461-53.472-42.459-61.37-46.897c-1.914-1.073-3.378-2.249-3.26-2.615
		c0.125-0.365,1.744-1.861,3.602-3.324c11.014-8.666,37.142-29.572,42.751-34.209c2.021-1.669,7.677-5.579,12.575-8.689
		c6.882-4.371,10.761-7.453,17.11-13.6c9.242-8.945,9.805-10.179,6.267-13.718c-2.374-2.373-2.353-2.381-11.261,3.572
		c-6.379,4.264-18.182,14.809-25.384,22.679c-3.113,3.402-8.62,7.952-15.949,13.174"/>
</g>
</svg>
