<?xml version="1.0" encoding="UTF-8" standalone="no"?>
<!-- Created with Inkscape (http://www.inkscape.org/) -->

<svg
   xmlns:dc="http://purl.org/dc/elements/1.1/"
   xmlns:cc="http://creativecommons.org/ns#"
   xmlns:rdf="http://www.w3.org/1999/02/22-rdf-syntax-ns#"
   xmlns:svg="http://www.w3.org/2000/svg"
   xmlns="http://www.w3.org/2000/svg"
   xmlns:sodipodi="http://sodipodi.sourceforge.net/DTD/sodipodi-0.dtd"
   xmlns:inkscape="http://www.inkscape.org/namespaces/inkscape"
   width="300.55322mm"
   height="300.74997mm"
   viewBox="0 0 1064.9524 1065.6495"
   id="svg2"
   version="1.1"
   inkscape:version="0.91 r13725"
   sodipodi:docname="smn.svg">
  <defs
     id="defs4" />
  <sodipodi:namedview
     id="base"
     pagecolor="#ffffff"
     bordercolor="#666666"
     borderopacity="1.0"
     inkscape:pageopacity="0.0"
     inkscape:pageshadow="2"
     inkscape:zoom="0.7"
     inkscape:cx="339.45662"
     inkscape:cy="558.9364"
     inkscape:document-units="px"
     inkscape:current-layer="g4147"
     showgrid="false"
     fit-margin-top="0"
     fit-margin-left="0"
     fit-margin-right="0"
     fit-margin-bottom="0"
     showguides="true"
     inkscape:window-width="1920"
     inkscape:window-height="1027"
     inkscape:window-x="-8"
     inkscape:window-y="-8"
     inkscape:window-maximized="1">
    <sodipodi:guide
       position="533.40116,1212.2439"
       orientation="1194.0003,0"
       id="guide4169" />
    <sodipodi:guide
       position="-303.00516,531.40117"
       orientation="0,1565.7365"
       id="guide4173" />
  </sodipodi:namedview>
  <metadata
     id="metadata7">
    <rdf:RDF>
      <cc:Work
         rdf:about="">
        <dc:format>image/svg+xml</dc:format>
        <dc:type
           rdf:resource="http://purl.org/dc/dcmitype/StillImage" />
        <dc:title></dc:title>
      </cc:Work>
    </rdf:RDF>
  </metadata>
  <g
     inkscape:label="Layer 1"
     inkscape:groupmode="layer"
     id="layer1"
     transform="translate(168.95422,-28.506192)">
    <g
       id="g4147"
       transform="translate(-17.142829,14.285717)">
      <path
         style="fill:#43687b"
         d="m 314.42343,1057.3492 -22.48616,-22.5208 19.5405,-19.6883 19.5405,-19.6883 1.31435,-11.87497 c 0.72288,-6.5313 2.79372,-25.375 4.60183,-41.875 1.80813,-16.5 3.57854,-32.5072 3.93425,-35.5716 l 0.64676,-5.5715 16.84885,17.0743 16.84887,17.0743 -0.26146,53.4972 -0.26147,53.49727 -18.89034,19.0841 -18.89032,19.0841 z m 89.34915,3.0905 -18.10468,-18.137 -0.41268,-54.05047 -0.41268,-54.0504 16.79249,-16.6795 16.79248,-16.6795 1.45883,11.3753 c 0.80235,6.2564 2.00765,17.1372 2.67844,24.1795 0.67078,7.0423 2.02311,19.2729 3.00516,27.1792 0.98205,7.9062 2.16004,18.3125 2.61775,23.125 l 0.8322,8.74997 19.53766,19.7063 19.53768,19.7063 -21.82943,21.8562 c -12.00617,12.0209 -22.40522,21.8562 -23.10898,21.8562 -0.70377,0 -9.42667,-8.1617 -19.38424,-18.1371 z m -144.68889,-58.4385 c -11.852,-11.86647 -21.5491,-22.13917 -21.5491,-22.82807 0,-0.6889 8.45169,-9.6831 18.78151,-19.987 21.6086,-21.5543 17.53436,-13.0032 32.44753,-68.1015 4.93,-18.21447 9.08823,-33.24179 9.24052,-33.39407 0.15229,-0.15229 7.81853,7.28031 17.03609,16.51689 l 16.7592,16.79378 -2.71391,19.7253 c -1.49265,10.8489 -3.86881,28.7253 -5.28038,39.7253 -1.41155,11 -3.09751,23.6282 -3.74657,28.0628 l -1.1801,8.0628 -18.46881,18.49967 c -10.15785,10.1748 -18.76313,18.4997 -19.12284,18.4997 -0.35972,0 -10.35113,-9.709 -22.20314,-21.5756 z m 200.71765,3.1381 -18.32699,-18.43747 -2.51872,-18.125 c -1.38529,-9.9688 -3.65895,-26.8438 -5.05258,-37.5 -1.39362,-10.6563 -3.15921,-24.1048 -3.92353,-29.8857 l -1.38967,-10.5107 16.61997,-16.65423 c 9.14097,-9.15983 16.96263,-16.24253 17.38146,-15.73933 0.41884,0.5032 2.90562,9.07117 5.5262,19.03992 2.62059,9.96874 7.52115,28.25004 10.89014,40.62504 l 6.12545,22.5 19.32517,19.3886 19.32516,19.3886 -22.19958,22.17387 c -12.20977,12.1956 -22.48217,22.1739 -22.82753,22.1739 -0.34538,0 -8.8751,-8.2969 -18.95495,-18.4375 z m -256.63713,-59.05787 -22.47738,-22.5035 20.23753,-20.3131 c 14.31213,-14.3655 20.94612,-21.96001 22.65759,-25.93804 4.54303,-10.55955 30.1566,-62.5 30.82084,-62.5 1.53499,0 33.1318,31.90426 33.1318,33.45418 0,1.68944 -1.7012,7.66782 -16.06565,56.45786 l -7.51846,25.5371 -19.15444,19.1545 -19.15444,19.1544 z m 311.69197,2.8009 -18.30341,-18.4305 -6.43384,-21.875 c -3.53862,-12.0313 -8.05629,-27.21879 -10.03928,-33.75004 -1.98299,-6.53125 -4.57997,-15.44057 -5.7711,-19.79847 l -2.16567,-7.92346 17.0267,-17.0267 17.0267,-17.0267 10.10147,21.20016 c 24.68178,51.80011 22.90408,48.96808 44.10478,70.26351 l 18.97853,19.0634 -21.84733,21.8741 c -12.01604,12.0308 -22.41588,21.871 -23.11074,21.8672 -0.69488,0 -9.49994,-8.3007 -19.56681,-18.4375 z m -367.28869,-58.3976 -21.8153,-21.84206 20.6489,-20.97043 c 13.09351,-13.2974 25.85317,-27.83104 34.87217,-39.72045 24.02487,-31.67104 28.09047,-36.7619 29.40437,-36.81945 2.09445,-0.0917 33.10696,31.68747 33.10696,33.92545 0,1.13917 -7.95228,17.44385 -17.67173,36.23261 l -17.67172,34.16139 -18.25015,18.43754 c -10.03758,10.1406 -18.8257,18.4375 -19.52916,18.4375 -0.70347,0 -11.09592,-9.829 -23.09434,-21.8421 z m 423.57231,3.4046 c -10.03119,-10.14067 -19.87753,-21.25004 -21.88077,-24.68754 -2.00323,-3.4375 -10.38262,-19.59587 -18.62084,-35.90748 l -14.9786,-29.65749 17.24674,-17.21751 17.24672,-17.21752 2.75328,3.73323 c 5.3729,7.28529 28.98865,37.68398 37.8853,48.76677 4.96698,6.1875 16.95451,19.11837 26.63896,28.73528 l 17.60807,17.48529 -22.17651,22.20217 c -12.19709,12.2113 -22.47066,22.2023 -22.83016,22.2023 -0.35951,0 -8.861,-8.2969 -18.89219,-18.4375 z M 92.190648,835.10817 69.997758,812.88956 90.334718,792.92067 c 20.019462,-19.65711 25.508222,-24.58071 45.295182,-40.63128 5.48368,-4.44818 14.41049,-11.88448 19.83738,-16.5251 5.42687,-4.64063 10.51055,-8.4375 11.29705,-8.4375 0.7865,0 8.97321,7.55877 18.1927,16.79727 15.23747,15.2689 16.60562,17.00338 15.03645,19.0625 -0.94944,1.24588 -4.86598,5.92148 -8.70341,10.39023 -3.83745,4.46875 -9.19364,10.9375 -11.90264,14.375 -13.57829,17.22971 -26.55864,31.81052 -44.23356,49.6875 -10.70574,10.82812 -19.75868,19.6875 -20.11766,19.6875 -0.35896,0 -10.63947,-9.99838 -22.845562,-22.21862 z m 532.714292,1.28112 c -10.67563,-10.82813 -23.61785,-24.75 -28.76049,-30.9375 -19.79179,-23.813 -36.10986,-44.26247 -36.10986,-45.25212 0,-0.56793 7.55529,-8.57236 16.78954,-17.7876 l 16.78954,-16.75498 8.98719,7.39735 c 4.94295,4.06853 14.46261,11.89735 21.15479,17.39735 24.19133,19.88177 33.44187,28.18397 50.01355,44.88637 l 16.85963,16.9926 -21.84623,21.87301 c -12.01542,12.03017 -22.436,21.87302 -23.15684,21.87302 -0.72082,0 -10.0452,-8.85938 -20.72082,-19.6875 z m -588.354342,-56.92117 -21.58219,-21.60865 20.9812,-20.57885 20.98121,-20.57883 33.38859,-16.875 33.388592,-16.875 17.2258,17.25523 17.22579,17.25524 -3.75,3.08923 c -2.0625,1.69907 -14.71875,11.35553 -28.125,21.4588 -17.79134,13.40797 -29.96642,23.86568 -45.076332,38.71803 -11.38572,11.19165 -21.2355,20.34847 -21.88839,20.34847 -0.6529,0 -10.89906,-9.7239 -22.76927,-21.60867 z m 645.343362,2.75573 c -10.30391,-10.36911 -25.48437,-24.03649 -33.73437,-30.37195 -8.25,-6.33545 -21.88452,-16.83601 -30.29895,-23.33456 l -15.29895,-11.81555 17.26779,-17.27585 17.26777,-17.27585 34.25736,17.27585 34.25737,17.27585 20.37065,19.95293 20.37065,19.95294 -22.20883,22.23456 c -12.21485,12.22902 -22.50296,22.23457 -22.86246,22.23457 -0.35951,0 -9.08413,-8.48383 -19.38803,-18.85294 z m -700.608512,-58.0212 -21.84734,-21.87413 19.06256,-19.06337 19.06258,-19.06336 22.17316,-6.5845 c 12.19525,-3.62149 30.84983,-9.14035 41.45463,-12.26414 l 19.28145,-5.67964 16.656052,16.62178 c 9.16082,9.14197 16.65605,16.96941 16.65605,17.39431 0,0.4249 -15.66353,8.21802 -34.807832,17.31806 l -34.80782,16.5455 -19.25468,19.2507 c -10.59007,10.58788 -19.8232,19.25569 -20.51807,19.26181 -0.69487,0.006 -11.0947,-9.83225 -23.11074,-21.86302 z m 754.994182,1.39319 -19.37004,-19.23097 -33.75,-15.91325 c -18.5625,-8.75228 -34.29716,-16.42363 -34.96591,-17.04745 -0.76099,-0.70986 5.09607,-7.44618 15.65496,-18.00507 l 16.87087,-16.87088 21.84504,6.42557 c 12.01478,3.53406 26.90754,7.99441 33.09504,9.9119 6.1875,1.91748 15.1875,4.64773 20,6.06721 8.59591,2.5354 9.07994,2.91162 27.48549,21.36349 l 18.73549,18.78263 -21.84709,21.87388 c -12.0159,12.03064 -22.41786,21.87389 -23.11545,21.87389 -0.6976,0 -9.98488,-8.65393 -20.6384,-19.23095 z m -810.340497,-56.73918 -22.194393,-22.22012 19.082413,-18.82299 19.08243,-18.82299 11.875005,-1.53732 c 6.53125,-0.84553 20.03125,-2.64459 30,-3.99792 9.96875,-1.35332 25.15625,-3.30067 33.75,-4.32743 8.59375,-1.02677 16.47495,-2.12855 17.51378,-2.4484 1.19563,-0.36813 8.04849,5.59743 18.67323,16.25548 9.23144,9.26037 16.53774,17.07943 16.23621,17.37568 -0.30152,0.29626 -9.54822,2.87891 -20.54822,5.73924 -11,2.86032 -25.625,6.77573 -32.5,8.70093 -6.875,1.92519 -16.19897,4.45333 -20.71992,5.61807 -8.11668,2.09112 -8.46182,2.36001 -27.48487,21.41281 -10.59573,10.6123 -19.55888,19.29509 -19.91811,19.29509 -0.35923,0 -10.64063,-9.99907 -22.847555,-22.22013 z m 866.903477,1.90363 -19.03673,-19.06649 -17.82314,-4.81118 c -9.80274,-2.64613 -23.44815,-6.36013 -30.32315,-8.25333 -6.875,-1.8932 -17.42188,-4.7282 -23.4375,-6.3 -6.01563,-1.5718 -10.9375,-3.20757 -10.9375,-3.63503 0,-0.42746 7.45312,-8.17424 16.5625,-17.21505 l 16.5625,-16.43784 13.125,1.76145 c 7.21875,0.9688 21.28125,2.8562 31.25,4.19422 9.96875,1.33801 25.4375,3.39321 34.375,4.56712 l 16.25,2.13438 19.08242,18.844 19.0824,18.844 -22.19437,22.22012 c -12.20693,12.22106 -22.48833,22.22013 -22.84755,22.22013 -0.35924,0 -9.21967,-8.57993 -19.68988,-19.0665 z m -922.50997,-57.51008 -21.55015,-21.57659 19.07821,-19.04841 19.07821,-19.04842 53.753373,0 53.753375,0 16.13595,16.17185 c 17.80046,17.84006 17.47606,16.51831 4.45298,18.14371 -23.04147,2.87576 -72.784218,8.17392 -76.786793,8.17865 -4.66275,0.005 -5.901175,0.9882 -24.424012,19.38079 -10.731703,10.65625 -20.058683,19.375 -20.726593,19.375 -0.66791,0 -10.91196,-9.70947 -22.76455,-21.57658 z m 977.82182,1.60665 c -15.65733,-15.63651 -19.4655,-18.81587 -23.11987,-19.30241 -2.40625,-0.32038 -12.8125,-1.50843 -23.125,-2.64013 -10.3125,-1.13171 -27.26798,-3.13312 -37.67882,-4.44758 -10.41087,-1.31448 -21.23899,-2.38995 -24.0625,-2.38995 -2.82353,0 -5.13368,-0.44872 -5.13368,-0.99713 0,-0.54842 7.57036,-8.49334 16.82304,-17.65535 l 16.82303,-16.65821 53.48947,0.88376 53.48948,0.88376 18.7407,18.64244 18.7407,18.64245 -21.8523,21.87914 c -12.0188,12.03352 -22.4232,21.87914 -23.1209,21.87914 -0.6976,0 -9.7037,-8.42397 -20.01335,-18.71993 z m -932.532067,-75.96589 -30.037193,-0.35738 -18.69829,-18.72952 -18.6983,-18.72952 21.84709,-21.87388 c 12.0159,-12.03063 22.23471,-21.87388 22.70848,-21.87388 0.47376,0 9.76103,8.68585 20.638393,19.30188 19.27466,18.8116 19.93576,19.31952 26.02701,19.99593 28.696455,3.18667 54.088825,6.04865 69.150105,7.7939 l 17.90011,2.0742 -16.63274,16.66705 -16.63274,16.66704 -23.76737,-0.28922 c -13.07205,-0.15907 -37.284103,-0.45003 -53.804555,-0.6466 z m 835.785397,-15.3327 c -9.09849,-9.06326 -16.36394,-16.64697 -16.14545,-16.85268 0.47755,-0.44963 25.81909,-3.51149 51.64725,-6.24023 10.3125,-1.08951 23.8125,-2.56855 30,-3.28674 l 11.25,-1.30582 19.68812,-19.57148 19.6881,-19.57148 21.8744,21.84757 c 12.0309,12.01618 21.8744,22.43705 21.8744,23.15751 0,0.72045 -8.0157,9.22944 -17.8125,18.90884 l -17.8125,17.59893 -53.85458,0.89712 -53.85457,0.89711 z M 23.159588,494.77781 c -7.40059,-1.18645 -34.12348,-4.78846 -41.25,-5.56015 -6.92519,-0.74989 -35.69923,-4.53522 -38.750005,-5.09771 -1.375,-0.25351 -10.930975,-8.91745 -21.23549,-19.25318 l -18.735483,-18.79222 21.847083,-21.87388 c 12.015902,-12.03063 22.429215,-21.87388 23.140677,-21.87388 0.711478,0 9.614178,8.3847 19.783778,18.63267 10.1696,10.24798 19.99976,19.23116 21.84481,19.96265 1.84504,0.73149 12.07338,3.60405 22.72963,6.38348 37.0154,9.65455 55.05315,14.65768 55.90062,15.50516 0.46875,0.46875 -6.42464,8.14536 -15.31864,17.05915 -17.6559,17.69516 -16.41696,17.07862 -29.95698,14.90791 z M 707.11379,479.6277 c -8.82519,-8.93804 -15.77165,-16.52514 -15.43657,-16.8602 0.62323,-0.62324 14.59351,-4.48316 56.43424,-15.59253 13.03604,-3.46126 24.56729,-6.75842 25.625,-7.32702 1.05773,-0.5686 5.63852,-4.8841 10.17955,-9.58999 4.54104,-4.7059 12.8567,-13.03137 18.47927,-18.50107 l 10.22282,-9.9449 21.83324,21.8065 c 12.00829,11.99358 21.83327,22.11183 21.83327,22.48502 0,0.37319 -8.44483,9.23859 -18.76626,19.7009 -16.49653,16.72169 -19.25562,19.02371 -22.8125,19.03341 -2.22545,0.006 -16.70251,1.71518 -32.17126,3.79804 -33.77609,4.54791 -44.84879,5.94075 -53.125,6.6826 l -6.25,0.56021 z M 667.7585,439.71795 c -7.44936,-7.52453 -15.10967,-15.31485 -17.02292,-17.31185 l -3.47864,-3.63091 13.57632,-6.52785 c 7.46698,-3.59032 23.70632,-11.40405 36.08742,-17.36387 l 22.51107,-10.83601 18.38616,-18.36034 c 10.11239,-10.09818 18.83218,-18.36033 19.37732,-18.36033 0.54513,0 10.68235,9.70312 22.52713,21.5625 l 21.53601,21.5625 -19.07034,19.21596 c -17.88636,18.02296 -19.53467,19.35454 -26.54939,21.44791 -4.11348,1.22758 -18.4478,5.42344 -31.85405,9.32415 -13.40625,3.90071 -28.44903,8.41225 -33.42839,10.02564 l -9.0534,2.93344 z m -614.598912,5.72259 c -12.375,-3.71868 -29.8125,-8.83185 -38.75,-11.36262 l -16.25,-4.6014 -19.0625,-18.87223 c -10.48438,-10.37974 -19.0625,-19.44777 -19.0625,-20.15117 0,-1.6126 41.47948,-43.12633 43.09075,-43.12633 0.65392,0 10.24893,9 21.32225,20 11.07332,11 20.75227,20 21.50877,20 0.7565,0 9.71796,4.00468 19.91435,8.89928 10.19638,4.89462 24.867,11.88687 32.601382,15.53834 7.73437,3.65146 14.0625,7.10803 14.0625,7.68124 0,2.34117 -32.002032,32.87881 -34.392382,32.81861 -1.36545,-0.0344 -12.60762,-3.10506 -24.98262,-6.82372 z M 98.15959,397.15936 c -13.062502,-6.85334 -28.531252,-14.72177 -34.375002,-17.48541 -9.66867,-4.57254 -12.34078,-6.73123 -29.6875,-23.98336 -10.48438,-10.4272 -19.0625,-19.53389 -19.0625,-20.23708 0,-0.70319 9.84366,-11.11012 21.8748,-23.12652 l 21.8748,-21.84802 20.9377,20.8689 c 11.85412,11.81519 27.716422,26.06325 36.562702,32.84189 8.59375,6.58514 20.81169,15.91826 27.15099,20.74028 6.33929,4.82201 11.89495,9.36432 12.34592,10.09401 0.72696,1.17625 -31.62372,34.95784 -33.22955,34.69932 -0.3533,-0.0569 -11.32986,-5.71067 -24.39236,-12.56401 z m 522.57018,-4.29624 c -10.2306,-9.95056 -16.88472,-17.3285 -16.21172,-17.9752 1.31575,-1.26436 19.82249,-15.64496 41.09939,-31.93613 8.0811,-6.1875 23.97946,-20.45813 35.32969,-31.7125 l 20.63676,-20.4625 22.35446,22.32858 22.35446,22.32858 -19.69161,19.56371 -19.69161,19.5637 -34.41329,17.59001 -34.41327,17.59002 z M 153.51785,356.38929 c -6.41987,-5.32813 -19.2518,-15.85722 -28.51539,-23.39799 -16.79864,-13.67448 -54.953002,-50.15596 -54.962742,-52.55291 -0.002,-0.69487 9.86048,-11.10112 21.91845,-23.125 l 21.923592,-21.8616 22.22316,22.5 c 12.22273,12.375 27.81024,29.44125 34.63891,37.925 6.82867,8.48375 14.81364,18.3275 17.74436,21.875 2.93074,3.5475 6.82299,8.31563 8.64945,10.59586 l 3.32084,4.14586 -16.75708,16.79164 c -9.2164,9.2354 -17.15172,16.79164 -17.63406,16.79164 -0.48234,0 -6.12961,-4.35938 -12.54949,-9.6875 z m 423.62051,-7.34442 -16.84837,-17.17285 8.31877,-10.08512 c 4.57533,-5.54681 10.52052,-12.89761 13.21153,-16.33511 2.69101,-3.4375 5.82907,-7.09375 6.97345,-8.125 1.14439,-1.03125 6.3521,-7.21875 11.57269,-13.75 5.2206,-6.53125 17.69052,-20.02663 27.71096,-29.98972 l 18.21897,-18.11471 22.17209,22.17209 22.17208,22.17207 -19.99047,20.11135 c -16.03518,16.13215 -71.30751,64.29548 -75.63487,65.90689 -0.56565,0.21064 -8.61023,-7.34481 -17.87683,-16.78989 z M 204.43963,316.9876 c -2.04599,-2.9072 -9.63974,-12.88509 -16.875,-22.17309 -7.23528,-9.288 -14.80638,-19.13175 -16.82467,-21.875 -2.0183,-2.74325 -13.24992,-14.70724 -24.95917,-26.58665 l -21.28955,-21.59892 22.14155,-22.14154 22.14154,-22.14155 20.00149,19.97217 20.00147,19.97217 15.14223,30.0183 c 8.32821,16.51006 16.28398,31.90022 17.67947,34.20035 l 2.53726,4.18203 -16.72096,16.75547 c -9.19654,9.2155 -17.29128,16.74343 -17.98834,16.72876 -0.69705,-0.0146 -2.94135,-2.4053 -4.98732,-5.3125 z m 329.03246,-11.09403 c -8.76563,-8.88747 -15.9375,-16.75653 -15.9375,-17.4868 0,-0.73025 7.93931,-16.88137 17.64292,-35.89136 l 17.64293,-34.56362 18.27894,-18.4375 c 10.05342,-10.14063 18.85451,-18.4375 19.55797,-18.4375 0.70346,0 11.10291,9.83592 23.10988,21.85761 l 21.83085,21.85762 -20.59425,20.95488 c -11.32683,11.52519 -23.40674,24.66386 -26.84424,29.19705 -23.47555,30.95831 -36.4219,47.24769 -37.5,47.18331 -0.6875,-0.041 -8.42187,-7.34621 -17.1875,-16.23369 z m -288.994,-43.87928 c -4.33538,-9.10938 -11.81241,-24.78194 -16.61564,-34.8279 l -8.73314,-18.26542 -18.92236,-18.96248 c -10.4073,-10.42938 -18.92236,-19.65347 -18.92236,-20.49799 0,-0.84453 9.70946,-11.23308 21.57657,-23.08566 l 21.57659,-21.55015 19.0207,19.06355 19.02072,19.06355 3.03743,10 c 11.12568,36.62856 20.76799,69.91502 20.76799,71.69368 0,2.04744 -30.93066,33.93132 -32.91689,33.93132 -0.55391,0 -4.55424,-7.45313 -8.88961,-16.5625 z m 245.5565,0.16181 c -8.59375,-8.86 -15.78751,-16.31629 -15.98614,-16.56951 -0.45317,-0.57775 2.69338,-11.56674 20.51179,-71.63515 l 3.40548,-11.48035 18.86077,-18.83134 18.86078,-18.83133 22.47254,22.49859 22.47254,22.49859 -20.08994,20.3131 -20.08995,20.31309 -16.08322,34.0625 c -8.84576,18.73437 -16.67416,33.99688 -17.39643,33.9167 -0.72227,-0.0802 -8.34447,-7.39489 -16.93822,-16.25489 z m -193.75,-26.24623 c 0,-0.96586 -19.67546,-74.19143 -21.2921,-79.24217 -0.71921,-2.24695 -8.7627,-11.30938 -19.95635,-22.48437 -10.31335,-10.29616 -18.75155,-19.29584 -18.75155,-19.99931 0,-0.70346 9.75444,-11.02151 21.67652,-22.929005 l 21.67653,-21.64998 18.8454,18.53837 18.84539,18.538385 1.92953,13.125 c 1.06125,7.21875 3.10699,22.40625 4.54608,33.75 1.4391,11.34375 3.50312,27.01775 4.58674,34.83112 l 1.9702,14.20613 -17.03819,17.03818 c -9.37101,9.37102 -17.0382,16.69595 -17.0382,16.27765 z m 150,-17.26503 c -15.25248,-15.33843 -15.61621,-15.83227 -15.25615,-20.71305 0.38066,-5.16027 3.49271,-29.42532 7.69515,-60 1.32294,-9.625 2.76059,-20.3125 3.19477,-23.75 0.76604,-6.06475 1.35147,-6.81505 19.75143,-25.313735 l 18.962,-19.06373 22.18414,22.15846 22.18412,22.158465 -19.98272,20.11593 c -10.99052,11.06376 -19.98274,20.98561 -19.98274,22.04857 0,1.06295 -3.02994,13.11816 -6.73319,26.78934 -3.70325,13.67118 -8.3273,30.90357 -10.27566,38.2942 -1.94836,7.39062 -4.12156,13.3365 -4.82931,13.21305 -0.70776,-0.1235 -8.31809,-7.29533 -16.91184,-15.9375 z M 339.94386,190.45179 c -0.0631,-1.375 -0.29746,-3.90625 -0.52065,-5.625 -0.22318,-1.71875 -1.3782,-11.84375 -2.56668,-22.5 -1.18848,-10.65625 -3.41324,-29.63863 -4.94389,-42.18305 L 329.12961,97.33569 310.53056,78.614125 c -10.22947,-10.29686 -18.74611,-19.16276 -18.92586,-19.70201 -0.17975,-0.53924 9.52026,-10.81546 21.55559,-22.83604 l 21.8824,-21.8556 18.25761,18.2576 c 16.2332,16.23321 18.37501,18.86557 19.3165,23.74066 0.5824,3.01567 1.08341,27.37961 1.11335,54.142095 l 0.0544,48.65904 -16.86294,16.96595 c -12.46572,12.54189 -16.89288,16.31407 -16.97779,14.46597 z m 63.47855,-15.20313 -15.88782,-15.75016 0,-53.91399 0,-53.913995 18.75111,-18.71985 18.75113,-18.71986 21.87387,21.84709 c 12.03064,12.0159 21.87389,22.47872 21.87389,23.25071 0,0.772 -4.64063,5.8603 -10.3125,11.30733 -5.67188,5.44704 -14.2935,14.11135 -19.15918,19.25403 l -8.84667,9.350325 -1.55361,15.60575 c -0.85449,8.58316 -2.59743,24.3245 -3.87321,34.98075 -1.27579,10.65625 -2.6799,23.62102 -3.12027,28.8106 -0.44036,5.18957 -1.20751,10.09391 -1.70479,10.89851 -0.58078,0.93974 -6.58609,-4.1698 -16.79194,-14.28724 z"
         id="path4153"
         inkscape:connector-curvature="0"
         sodipodi:nodetypes="ccccsssccccccccscccccsssscccssssssscscssscsssscssscsssscccsssccsssssccccscssscccsscscsscsscsscsssssscccssscsssscssssssssssssssscssscsssscccccccsssssssscccccccsssscccsscssscscsscssscsssscsssscccssssscssssssscssssscssscccsssscccccsscsssssssssscccccsssscccssssscccssscsscccssscccssssscssssssssscsssscssscsscssscsscssscsssscssscssssssssssssssscsssscssssscccccccssscscsssscsssscssssscccssssssscccccsscscsssscssscsscssscssscccssssscscccccccscsssssscccssscssssssscccsssscscssscssscssscsccccccccsssscsssccc" />
      <path
         style="fill:#232b31"
         d="m 375.96019,917.59561 c -1.375,-0.58808 -84.20313,-82.82262 -184.0625,-182.74341 l -181.5625,-181.67416 0,-5.36443 c 0,-2.95043 0.80693,-6.88337 1.79316,-8.73986 0.98624,-1.85649 74.257,-75.7973 162.82393,-164.31292 l 161.03077,-160.9375 46.22709,0 46.2271,0 160.40876,160.3125 c 91.0579,91.00326 161.45295,162.31756 162.82398,164.9502 2.87367,5.51803 3.06195,9.89312 0.62341,14.48687 -0.98549,1.85649 -83.25953,84.7973 -182.8312,184.31293 -180.93731,180.83547 -181.0422,180.93745 -186.0207,180.85826 -2.73971,-0.0436 -6.1063,-0.56039 -7.4813,-1.14848 z M 564.83964,707.7886 c 7.84055,-5.67966 20.19781,-19.97707 22.5187,-26.05422 3.0533,-7.99498 1.55947,-11.07328 -8.84242,-18.22135 -14.95849,-10.27932 -25.72574,-18.58555 -45.05209,-34.75478 -41.4748,-34.69954 -100.4992,-79.80305 -115.34865,-88.14371 -3.58998,-2.01641 -6.34175,-4.22871 -6.11508,-4.91621 0.22669,-0.6875 3.27119,-3.5 6.76557,-6.25 20.69217,-16.28433 69.79927,-55.58139 80.34746,-64.2966 3.79662,-3.13687 14.43049,-10.48465 23.63082,-16.3284 12.9353,-8.21609 20.22657,-14.0113 32.15955,-25.56097 17.37482,-16.81666 18.43212,-19.13092 11.77953,-25.7835 -4.45938,-4.45937 -4.41811,-4.47247 -21.1604,6.71555 -11.99099,8.01299 -34.17466,27.83155 -47.71146,42.62473 -5.85013,6.39309 -16.20327,14.94485 -29.97598,24.76034 -4.46875,3.18477 -10.09375,7.50718 -12.5,9.60537 -6.3987,5.57948 -12.45972,10.72648 -18.125,15.39171 -2.75,2.26457 -5.43865,4.80153 -5.97477,5.6377 -0.53614,0.83618 -4.3731,4.13527 -8.52659,7.3313 -4.15349,3.19603 -10.69298,8.55975 -14.5322,11.91937 -3.83923,3.35962 -7.72421,6.1084 -8.63331,6.1084 -1.7535,0 -45.42224,-34.60725 -65.57012,-51.96398 -13.30963,-11.4658 -38.46503,-37.75582 -43.92062,-45.90162 -4.4374,-6.62555 -4.31979,-12.25362 0.28261,-13.52318 5.18276,-1.42965 42.03589,-1.21156 51.20714,0.30304 10.29279,1.69982 12.86256,1.16216 19.75145,-4.13244 9.29735,-7.14567 6.92806,-9.78451 -13.71713,-15.27766 -27.88721,-7.42009 -61.1081,-8.8822 -76.61646,-3.37206 -15.30683,5.43855 -31.02291,14.18138 -38.3303,21.32311 -6.67533,6.524 -7.12594,7.34876 -7.87824,14.41979 -1.33527,12.55065 -1.78514,13.48492 -10.38252,21.5625 -7.13659,6.70508 -8.97714,7.8125 -12.9847,7.8125 -3.77317,0 -6.12152,1.20842 -12.23434,6.29557 -4.3559,3.62501 -7.5649,7.29604 -7.5649,8.65409 0,3.21606 4.57141,8.39339 14.80026,16.76192 5.7483,4.70287 9.72695,7.03842 11.99008,7.03842 5.22498,0 16.46007,-10.47279 18.83582,-17.55782 1.61887,-4.82781 3.15424,-6.50377 10.20482,-11.13926 9.95391,-6.54431 16.51113,-7.61637 27.33656,-4.46934 17.57764,5.10995 34.27855,15.85264 67.9058,43.67967 34.37709,28.44751 38.34436,31.98675 35.85521,31.98675 -0.42888,0 -2.30388,-1.11733 -4.16666,-2.48294 -9.17009,-6.72261 -17.39553,-2.89971 -21.03989,9.77864 -1.11921,3.89361 -2.7776,8.53892 -3.68531,10.32291 -1.74124,3.42221 -19.69689,14.06915 -39.28669,23.29534 -6.9195,3.25886 -14.76644,8.45423 -22.5,14.89697 -6.53125,5.44111 -24.53125,20.10539 -40,32.58728 -35.64676,28.76372 -38.35008,31.285 -39.32575,36.67751 -1.12193,6.2009 3.05867,20.56362 8.42924,28.95916 3.60188,5.63065 5.92117,7.7449 11.27377,10.27709 3.70643,1.75341 7.81974,3.18804 9.14069,3.18804 3.30679,0 11.03539,-5.30372 19.23205,-13.1979 6.747,-6.49802 30.91177,-26.34867 58.125,-47.74797 10.06503,-7.9147 19.13,-16.858 33.82481,-33.37077 l 20.07481,-22.55836 7.81234,0.36831 c 13.3058,0.6273 19.89456,-5.46955 18.19058,-16.83249 -0.54635,-3.64339 -0.28964,-6.06632 0.77922,-7.35421 0.87671,-1.05638 1.52181,-3.84168 1.43354,-6.18955 -0.0883,-2.34786 0.34365,-4.58043 0.95982,-4.96124 0.61617,-0.38081 4.11383,2.80625 7.77259,7.08235 16.39881,19.16579 39.25718,41.85045 62.95173,62.47338 24.52565,21.34628 27.53852,23.78783 44.88042,36.36965 20.41038,14.80803 31.84763,25.94308 38.71649,37.69352 2.693,4.60685 6.05254,9.18591 7.46564,10.17569 4.05041,2.83701 9.86858,2.17579 15.26746,-1.73514 z"
         id="path4149"
         inkscape:connector-curvature="0" />
    </g>
  </g>
</svg>
