<?xml version="1.0" encoding="utf-8"?>
<!-- Generator: Adobe Illustrator 16.0.0, SVG Export Plug-In . SVG Version: 6.00 Build 0)  -->
<!DOCTYPE svg PUBLIC "-//W3C//DTD SVG 1.1//EN" "http://www.w3.org/Graphics/SVG/1.1/DTD/svg11.dtd">
<svg version="1.1" xmlns="http://www.w3.org/2000/svg" xmlns:xlink="http://www.w3.org/1999/xlink" x="0px" y="0px" width="585px"
	 height="585px" viewBox="0 0 585 585" enable-background="new 0 0 585 585" xml:space="preserve">
<g id="Outer_Sq">
	<g id="Btm_Left">
		<polyline fill="#44687D" points="498.535,288.125 478.691,268.282 531.344,262.391 552.559,241.176 578.012,266.629 
			556.797,287.844 498.535,288.125 		"/>
		<polyline fill="#44687D" points="475.383,264.973 455.539,245.133 501.648,232.692 522.859,211.481 548.313,236.934 
			527.102,258.145 475.383,264.973 		"/>
		<polyline fill="#44687D" points="452.234,241.824 432.391,221.981 471.949,202.996 493.164,181.785 518.617,207.239 
			497.406,228.449 452.234,241.824 		"/>
		<polyline fill="#44687D" points="429.08,218.672 409.242,198.828 442.254,173.297 463.465,152.086 488.916,177.539 
			467.705,198.754 429.08,218.672 		"/>
		<polyline fill="#44687D" points="405.934,195.524 386.09,175.68 412.559,143.602 433.77,122.391 459.223,147.844 438.012,169.055 
			405.934,195.524 		"/>
		<polyline fill="#44687D" points="382.785,172.371 362.941,152.532 382.859,113.907 404.074,92.696 429.527,118.145 
			408.316,139.36 382.785,172.371 		"/>
		<polyline fill="#44687D" points="359.633,149.223 339.789,129.379 353.164,84.208 374.373,62.997 399.828,88.449 378.617,109.66 
			359.633,149.223 		"/>
		<polyline fill="#44687D" points="336.48,126.071 316.637,106.227 323.465,54.512 344.68,33.301 370.133,58.754 348.922,79.965 
			336.48,126.071 		"/>
		<polyline fill="#44687D" points="313.33,102.922 293.489,83.078 293.77,24.817 314.98,3.602 340.438,29.055 319.223,50.27 
			313.33,102.922 		"/>
	</g>
	<g id="Btm_Right">
		<polyline fill="#44687D" points="314.094,578.496 292.77,557.172 292.489,498.59 312.438,478.641 318.363,531.578 
			339.688,552.906 314.094,578.496 		"/>
		<polyline fill="#44687D" points="343.951,548.641 322.625,527.313 315.762,475.316 335.711,455.367 348.219,501.719 
			369.547,523.047 343.951,548.641 		"/>
		<polyline fill="#44687D" points="373.809,518.781 352.484,497.457 339.037,452.039 358.988,432.09 378.076,471.863 
			399.402,493.191 373.809,518.781 		"/>
		<polyline fill="#44687D" points="403.668,488.926 382.34,467.598 362.313,428.766 382.266,408.813 407.934,442.004 
			429.262,463.332 403.668,488.926 		"/>
		<polyline fill="#44687D" points="433.527,459.066 412.199,437.742 385.59,405.488 405.537,385.539 437.787,412.148 
			459.117,433.473 433.527,459.066 		"/>
		<polyline fill="#44687D" points="463.383,429.211 442.059,407.883 408.863,382.215 428.816,362.262 467.648,382.293 
			488.977,403.617 463.383,429.211 		"/>
		<polyline fill="#44687D" points="493.242,399.352 471.912,378.023 432.141,358.938 452.09,338.988 497.504,352.434 
			518.832,373.762 493.242,399.352 		"/>
		<polyline fill="#44687D" points="523.098,369.496 501.773,348.168 455.418,335.664 475.367,315.711 527.363,322.578 
			548.691,343.902 523.098,369.496 		"/>
		<polyline fill="#44687D" points="552.955,339.637 531.629,318.309 478.695,312.387 498.645,292.434 557.223,292.719 
			578.551,314.047 552.955,339.637 		"/>
	</g>
	<g id="Top_Right">
		<polyline fill="#44687D" points="267.626,578.496 242.103,552.973 263.376,531.703 269.283,478.91 289.176,498.805 
			288.896,557.227 267.626,578.496 		"/>
		<polyline fill="#44687D" points="237.852,548.719 212.33,523.195 233.594,501.926 246.068,455.695 265.965,475.594 
			259.119,527.449 237.852,548.719 		"/>
		<polyline fill="#44687D" points="208.076,518.941 182.547,493.418 203.822,472.148 222.857,432.48 242.751,452.379 
			229.344,497.672 208.076,518.941 		"/>
		<polyline fill="#44687D" points="178.297,489.164 152.775,463.641 174.041,442.371 199.641,409.27 219.541,429.168 
			199.564,467.895 178.297,489.164 		"/>
		<polyline fill="#44687D" points="148.516,459.387 122.997,433.863 144.266,412.594 176.43,386.059 196.326,405.953 
			169.791,438.117 148.516,459.387 		"/>
		<polyline fill="#44687D" points="118.743,429.609 93.219,404.086 114.489,382.82 153.215,362.844 173.115,382.738 140.012,408.34 
			118.743,429.609 		"/>
		<polyline fill="#44687D" points="88.965,399.832 63.442,374.313 84.712,353.039 130.001,339.629 149.904,359.527 110.235,378.563 
			88.965,399.832 		"/>
		<polyline fill="#44687D" points="59.188,370.055 33.665,344.531 54.934,323.266 106.79,316.418 126.688,336.316 80.458,348.789 
			59.188,370.055 		"/>
		<polyline fill="#44687D" points="29.411,340.281 3.887,314.758 25.157,293.484 83.579,293.203 103.473,313.102 50.68,319.008 
			29.411,340.281 		"/>
	</g>
	<g id="Top_Left">
		<polyline fill="#44687D" points="83.363,288.125 25.098,287.844 3.887,266.629 29.34,241.176 50.555,262.391 103.207,268.282 
			83.363,288.125 		"/>
		<polyline fill="#44687D" points="106.512,264.973 54.797,258.145 33.583,236.934 59.039,211.481 80.25,232.692 126.356,245.133 
			106.512,264.973 		"/>
		<polyline fill="#44687D" points="129.664,241.824 84.492,228.449 63.281,207.239 88.735,181.785 109.945,202.996 149.509,221.981 
			129.664,241.824 		"/>
		<polyline fill="#44687D" points="152.813,218.672 114.192,198.754 92.977,177.539 118.434,152.086 139.645,173.297 
			172.656,198.828 152.813,218.672 		"/>
		<polyline fill="#44687D" points="175.966,195.524 143.887,169.055 122.676,147.844 148.13,122.391 169.341,143.602 195.81,175.68 
			175.966,195.524 		"/>
		<polyline fill="#44687D" points="199.113,172.375 173.582,139.36 152.371,118.145 177.824,92.692 199.039,113.907 
			218.962,152.528 199.113,172.375 		"/>
		<polyline fill="#44687D" points="222.267,149.223 203.281,109.66 182.067,88.449 207.524,62.997 228.735,84.208 242.11,129.379 
			222.267,149.223 		"/>
		<polyline fill="#44687D" points="245.414,126.071 232.978,79.965 211.767,58.754 237.22,33.301 258.431,54.512 265.259,106.227 
			245.414,126.071 		"/>
		<polyline fill="#44687D" points="268.567,102.918 262.677,50.27 241.462,29.055 266.919,3.602 288.129,24.817 288.411,83.078 
			268.567,102.918 		"/>
	</g>
</g>
<g id="Inner_Sq">
	<path id="Core_1_" fill="#1C2A33" d="M291.138,491.284c-2.263,0-4.526-0.865-6.255-2.59L93.141,296.948
		c-3.453-3.449-3.453-9.052,0-12.505l172.947-172.947h50.098l172.947,172.947c3.453,3.453,3.453,9.056,0,12.505L297.391,488.694
		C295.665,490.419,293.403,491.284,291.138,491.284"/>
	<g id="Flash_1_">
		<polyline id="N_1_" fill-rule="evenodd" clip-rule="evenodd" fill="#FFFFFF" points="207.445,296.098 192.04,349.867 
			315.461,317.48 293.942,388.871 485.08,291.02 371.094,306.031 386.734,246.18 207.445,296.098 		"/>
		<polyline id="I_1_" fill-rule="evenodd" clip-rule="evenodd" fill="#FFFFFF" points="98.277,291.809 268.582,260.43 
			291.528,195.246 98.277,291.809 		"/>
	</g>
</g>
</svg>
