<?xml version="1.0" encoding="utf-8"?>
<!-- Generator: Adobe Illustrator 16.0.0, SVG Export Plug-In . SVG Version: 6.00 Build 0)  -->
<!DOCTYPE svg PUBLIC "-//W3C//DTD SVG 1.1//EN" "http://www.w3.org/Graphics/SVG/1.1/DTD/svg11.dtd">
<svg version="1.1" xmlns="http://www.w3.org/2000/svg" xmlns:xlink="http://www.w3.org/1999/xlink" x="0px" y="0px"
	 width="289.538px" height="288.923px" viewBox="0 0 289.538 288.923" enable-background="new 0 0 289.538 288.923"
	 xml:space="preserve">
<g id="Layer_2" display="none">
	<linearGradient id="SVGID_1_" gradientUnits="userSpaceOnUse" x1="-72.9229" y1="143.8457" x2="364.3076" y2="143.8457">
		<stop  offset="0" style="stop-color:#FFFFFF"/>
		<stop  offset="1" style="stop-color:#000000"/>
	</linearGradient>
	<rect x="-72.923" y="-73.846" display="inline" fill="url(#SVGID_1_)" width="437.23" height="435.384"/>
</g>
<g id="Layer_1">
	<g id="Btm_Left_1_">
		<polyline points="248.723,143.256 238.801,133.334 265.127,130.389 275.734,119.781 288.461,132.508 277.854,143.115 
			248.723,143.256 		"/>
		<polyline points="237.146,131.68 227.225,121.76 250.279,115.539 260.885,104.934 273.611,117.66 263.006,128.266 237.146,131.68 
					"/>
		<polyline points="225.572,120.105 215.65,110.184 235.43,100.691 246.037,90.086 258.764,102.813 248.158,113.418 
			225.572,120.105 		"/>
		<polyline points="213.995,108.529 204.076,98.607 220.582,85.842 231.188,75.236 243.913,87.963 233.308,98.57 213.995,108.529 		
			"/>
		<polyline points="202.422,96.955 192.5,87.033 205.734,70.994 216.34,60.389 229.066,73.115 218.461,83.721 202.422,96.955 		"/>
		<polyline points="190.848,85.379 180.926,75.459 190.885,56.146 201.492,45.541 214.219,58.266 203.613,68.873 190.848,85.379 		
			"/>
		<polyline points="179.271,73.805 169.35,63.883 176.037,41.297 186.642,30.691 199.369,43.418 188.764,54.023 179.271,73.805 		
			"/>
		<polyline points="167.695,62.229 157.773,52.307 161.188,26.449 171.795,15.844 184.521,28.57 173.916,39.176 167.695,62.229 		
			"/>
		<polyline points="156.12,50.654 146.199,40.732 146.34,11.602 156.945,0.994 169.674,13.721 159.066,24.328 156.12,50.654 		"/>
	</g>
	<g id="Btm_Right_1_">
		<polyline points="156.502,288.441 145.84,277.779 145.699,248.488 155.674,238.514 158.637,264.982 169.299,275.646 
			156.502,288.441 		"/>
		<polyline points="171.431,273.514 160.768,262.85 157.336,236.852 167.311,226.877 173.564,250.053 184.229,260.717 
			171.431,273.514 		"/>
		<polyline points="186.359,258.584 175.697,247.922 168.974,225.213 178.949,215.238 188.493,235.125 199.156,245.789 
			186.359,258.584 		"/>
		<polyline points="201.289,243.656 190.625,232.992 180.611,213.576 190.588,203.6 203.422,220.195 214.086,230.859 
			201.289,243.656 		"/>
		<polyline points="216.219,228.727 205.555,218.064 192.25,201.938 202.224,191.963 218.349,205.268 229.014,215.93 
			216.219,228.727 		"/>
		<polyline points="231.146,213.799 220.484,203.135 203.887,190.301 213.863,180.324 233.279,190.34 243.943,201.002 
			231.146,213.799 		"/>
		<polyline points="246.076,198.869 235.411,188.205 215.525,178.662 225.5,168.688 248.207,175.41 258.871,186.074 
			246.076,198.869 		"/>
		<polyline points="261.004,183.941 250.342,173.277 227.164,167.025 237.139,157.049 263.137,160.482 273.801,171.145 
			261.004,183.941 		"/>
		<polyline points="275.933,169.012 265.27,158.348 238.803,155.387 248.777,145.41 278.066,145.553 288.73,156.217 
			275.933,169.012 		"/>
	</g>
	<g id="Top_Right_1_">
		<polyline points="133.268,288.441 120.506,275.68 131.143,265.045 134.096,238.648 144.043,248.596 143.903,277.807 
			133.268,288.441 		"/>
		<polyline points="118.381,273.553 105.62,260.791 116.252,250.156 122.489,227.041 132.438,236.99 129.014,262.918 
			118.381,273.553 		"/>
		<polyline points="103.493,258.664 90.729,245.902 101.366,235.268 110.883,215.434 120.831,225.383 114.127,248.029 
			103.493,258.664 		"/>
		<polyline points="88.604,243.775 75.842,231.014 86.475,220.379 99.275,203.828 109.225,213.777 99.237,233.141 88.604,243.775 		
			"/>
		<polyline points="73.713,228.887 60.953,216.125 71.588,205.49 87.67,192.223 97.618,202.17 84.35,218.252 73.713,228.887 		"/>
		<polyline points="58.826,213.998 46.064,201.236 56.699,190.604 76.063,180.615 86.012,190.563 69.461,203.363 58.826,213.998 		
			"/>
		<polyline points="43.938,199.109 31.176,186.35 41.811,175.713 64.456,169.008 74.407,178.957 54.572,188.475 43.938,199.109 		
			"/>
		<polyline points="29.049,184.221 16.287,171.459 26.922,160.826 52.85,157.402 62.799,167.352 39.684,173.588 29.049,184.221 		
			"/>
		<polyline points="14.16,169.334 1.398,156.572 12.033,145.936 41.244,145.795 51.191,155.744 24.795,158.697 14.16,169.334 		"/>
	</g>
	<g id="Top_Left_1_">
		<polyline points="41.137,143.256 12.004,143.115 1.398,132.508 14.125,119.781 24.732,130.389 51.059,133.334 41.137,143.256 		
			"/>
		<polyline points="52.711,131.68 26.854,128.266 16.246,117.66 28.975,104.934 39.58,115.539 62.633,121.76 52.711,131.68 		"/>
		<polyline points="64.287,120.105 41.701,113.418 31.096,102.813 43.822,90.086 54.428,100.691 74.209,110.184 64.287,120.105 		
			"/>
		<polyline points="75.861,108.529 56.551,98.57 45.943,87.963 58.672,75.236 69.277,85.842 85.783,98.607 75.861,108.529 		"/>
		<polyline points="87.438,96.955 71.398,83.721 60.793,73.115 73.52,60.389 84.125,70.994 97.359,87.033 87.438,96.955 		"/>
		<polyline points="99.012,85.381 86.246,68.873 75.641,58.266 88.367,45.539 98.975,56.146 108.936,75.457 99.012,85.381 		"/>
		<polyline points="110.588,73.805 101.096,54.023 90.488,43.418 103.217,30.691 113.822,41.297 120.51,63.883 110.588,73.805 		"/>
		<polyline points="122.162,62.229 115.943,39.176 105.338,28.57 118.064,15.844 128.67,26.449 132.084,52.307 122.162,62.229 		"/>
		<polyline points="133.738,50.652 130.793,24.328 120.186,13.721 132.914,0.994 143.52,11.602 143.66,40.732 133.738,50.652 		"/>
	</g>
	<g id="Flash_1_">
		<polyline id="N_1_" fill-rule="evenodd" clip-rule="evenodd" points="103.178,147.242 95.475,174.127 157.186,157.934 
			146.426,193.629 241.995,144.703 185.002,152.209 192.822,122.283 103.178,147.242 		"/>
		<polyline id="I_1_" fill-rule="evenodd" clip-rule="evenodd" points="48.594,145.098 133.746,129.408 145.219,96.816 
			48.594,145.098 		"/>
	</g>
</g>
</svg>
