<?xml version="1.0" encoding="utf-8"?>
<!-- Generator: Adobe Illustrator 26.3.1, SVG Export Plug-In . SVG Version: 6.00 Build 0)  -->
<svg version="1.1" xmlns="http://www.w3.org/2000/svg" xmlns:xlink="http://www.w3.org/1999/xlink" x="0px" y="0px"
	 viewBox="0 0 210 278" style="enable-background:new 0 0 210 278;" xml:space="preserve">
<style type="text/css">
	.st0{fill:#FFFFFF;}
	.st1{fill-rule:evenodd;clip-rule:evenodd;fill:#FFFFFF;}
</style>
<g id="Text">
	<path class="st0" d="M55.7,224.3c0,1.1-0.4,2-1.2,2.7c-0.8,0.7-2,1-3.4,1c-1.4,0-2.6-0.2-3.6-0.7v-2c0.6,0.3,1.2,0.5,1.9,0.7
		s1.3,0.2,1.8,0.2c0.8,0,1.4-0.2,1.8-0.5c0.4-0.3,0.6-0.7,0.6-1.3c0-0.5-0.2-0.9-0.5-1.2c-0.3-0.3-1.1-0.7-2.3-1.2
		c-1.2-0.5-2-1-2.5-1.6c-0.5-0.6-0.7-1.3-0.7-2.2c0-1.1,0.4-1.9,1.1-2.5c0.7-0.6,1.8-0.9,3.1-0.9c1.2,0,2.5,0.3,3.7,0.8l-0.7,1.7
		c-1.1-0.5-2.2-0.7-3.1-0.7c-0.7,0-1.2,0.1-1.5,0.4c-0.4,0.3-0.5,0.7-0.5,1.2c0,0.3,0.1,0.6,0.2,0.9c0.1,0.2,0.4,0.5,0.7,0.7
		s0.9,0.5,1.7,0.8c0.9,0.4,1.6,0.8,2.1,1.1c0.5,0.3,0.8,0.7,1,1.2C55.6,223.4,55.7,223.8,55.7,224.3z"/>
	<path class="st0" d="M62.1,228c-1.5,0-2.7-0.4-3.5-1.3s-1.3-2.1-1.3-3.6c0-1.6,0.4-2.8,1.2-3.7c0.8-0.9,1.9-1.4,3.3-1.4
		c1.3,0,2.3,0.4,3,1.2c0.7,0.8,1.1,1.9,1.1,3.2v1.1h-6.5c0,0.9,0.3,1.7,0.8,2.2c0.5,0.5,1.2,0.8,2,0.8c0.6,0,1.1-0.1,1.6-0.2
		c0.5-0.1,1-0.3,1.6-0.5v1.7c-0.5,0.2-1,0.4-1.5,0.5C63.4,228.1,62.7,228,62.1,228z M61.7,219.5c-0.7,0-1.2,0.2-1.6,0.6
		c-0.4,0.4-0.6,1-0.7,1.8h4.4c0-0.8-0.2-1.4-0.6-1.8C62.9,219.7,62.4,219.5,61.7,219.5z"/>
	<path class="st0" d="M70.2,222.7l1.2-1.5l2.9-3.1h2.4l-3.9,4.2l4.2,5.5h-2.4l-3.1-4.3l-1.1,0.9v3.3h-2V214h2v6.7L70.2,222.7
		L70.2,222.7z"/>
	<path class="st0" d="M82,226.3c0.5,0,1-0.1,1.5-0.2v1.6c-0.2,0.1-0.5,0.2-0.9,0.3c-0.4,0.1-0.7,0.1-1.1,0.1c-2,0-2.9-1-2.9-3.1
		v-5.2h-1.3v-0.9l1.4-0.8l0.7-2.1h1.3v2.2h2.8v1.6h-2.8v5.2c0,0.5,0.1,0.9,0.4,1.1C81.4,226.2,81.7,226.3,82,226.3z"/>
	<path class="st0" d="M85.3,215.5c0-0.4,0.1-0.7,0.3-0.9c0.2-0.2,0.5-0.3,0.9-0.3c0.4,0,0.6,0.1,0.8,0.3c0.2,0.2,0.3,0.5,0.3,0.9
		c0,0.4-0.1,0.6-0.3,0.8c-0.2,0.2-0.5,0.3-0.8,0.3c-0.4,0-0.7-0.1-0.9-0.3C85.4,216.2,85.3,215.9,85.3,215.5z M87.5,227.8h-2.1v-9.7
		h2.1V227.8z"/>
	<path class="st0" d="M99.1,223c0,1.6-0.4,2.8-1.2,3.7c-0.8,0.9-1.9,1.3-3.4,1.3c-0.9,0-1.7-0.2-2.4-0.6c-0.7-0.4-1.2-1-1.6-1.8
		c-0.4-0.8-0.6-1.7-0.6-2.7c0-1.6,0.4-2.8,1.2-3.7c0.8-0.9,1.9-1.3,3.4-1.3c1.4,0,2.5,0.5,3.3,1.4C98.7,220.2,99.1,221.4,99.1,223z
		 M92,223c0,2.2,0.8,3.4,2.5,3.4c1.6,0,2.5-1.1,2.5-3.4c0-2.2-0.8-3.3-2.5-3.3c-0.9,0-1.5,0.3-1.9,0.9C92.2,221.2,92,221.9,92,223z"
		/>
	<path class="st0" d="M109.9,227.8h-2.1v-6c0-0.8-0.2-1.3-0.5-1.7c-0.3-0.4-0.8-0.6-1.4-0.6c-0.9,0-1.5,0.3-1.9,0.8
		s-0.6,1.4-0.6,2.6v4.8h-2.1V218h1.6l0.3,1.3h0.1c0.3-0.5,0.7-0.8,1.2-1.1c0.5-0.3,1.1-0.4,1.8-0.4c2.3,0,3.5,1.2,3.5,3.6
		L109.9,227.8L109.9,227.8z"/>
	<path class="st0" d="M117.1,228c-1.5,0-2.7-0.4-3.5-1.3c-0.9-0.9-1.3-2.1-1.3-3.6c0-1.6,0.4-2.8,1.2-3.7c0.8-0.9,1.9-1.4,3.3-1.4
		c1.3,0,2.3,0.4,3,1.2c0.7,0.8,1.1,1.9,1.1,3.2v1.1h-6.5c0,0.9,0.3,1.7,0.8,2.2c0.5,0.5,1.2,0.8,2,0.8c0.6,0,1.1-0.1,1.6-0.2
		c0.5-0.1,1-0.3,1.6-0.5v1.7c-0.5,0.2-1,0.4-1.5,0.5C118.4,228.1,117.7,228,117.1,228z M116.7,219.5c-0.7,0-1.2,0.2-1.6,0.6
		c-0.4,0.4-0.6,1-0.7,1.8h4.4c0-0.8-0.2-1.4-0.6-1.8C117.8,219.7,117.3,219.5,116.7,219.5z"/>
	<path class="st0" d="M131.6,227.8h-2.1v-6c0-0.8-0.2-1.3-0.5-1.7c-0.3-0.4-0.8-0.6-1.4-0.6c-0.9,0-1.5,0.3-1.9,0.8
		c-0.4,0.5-0.6,1.4-0.6,2.6v4.8h-2.1V218h1.6l0.3,1.3h0.1c0.3-0.5,0.7-0.8,1.2-1.1c0.5-0.3,1.1-0.4,1.8-0.4c2.3,0,3.5,1.2,3.5,3.6
		L131.6,227.8L131.6,227.8z"/>
	<path class="st0" d="M144.1,219.7h-2.4v8.2h-2.1v-8.2H138v-1l1.6-0.6v-0.6c0-1.1,0.3-2,0.8-2.6c0.5-0.6,1.4-0.8,2.5-0.8
		c0.7,0,1.4,0.1,2.1,0.4l-0.5,1.6c-0.5-0.2-1-0.2-1.5-0.2s-0.8,0.1-1,0.4c-0.2,0.3-0.3,0.7-0.3,1.3v0.6h2.4V219.7z"/>
	<path class="st0" d="M154.2,223c0,1.6-0.4,2.8-1.2,3.7c-0.8,0.9-1.9,1.3-3.4,1.3c-0.9,0-1.7-0.2-2.4-0.6s-1.2-1-1.6-1.8
		c-0.4-0.8-0.6-1.7-0.6-2.7c0-1.6,0.4-2.8,1.2-3.7c0.8-0.9,1.9-1.3,3.4-1.3c1.4,0,2.5,0.5,3.3,1.4
		C153.8,220.2,154.2,221.4,154.2,223z M147,215.5c0-0.4,0.1-0.6,0.3-0.8s0.4-0.2,0.7-0.2s0.6,0.1,0.7,0.3c0.2,0.2,0.3,0.4,0.3,0.8
		c0,0.3-0.1,0.6-0.3,0.7c-0.2,0.1-0.4,0.3-0.7,0.3s-0.5-0.1-0.7-0.3C147.1,216.1,147,215.9,147,215.5z M147.3,223
		c0,2.2,0.8,3.4,2.5,3.4c1.6,0,2.5-1.1,2.5-3.4c0-2.2-0.8-3.3-2.5-3.3c-0.9,0-1.5,0.3-1.9,0.9C147.5,221.2,147.3,221.9,147.3,223z
		 M150.4,215.5c0-0.4,0.1-0.6,0.3-0.8s0.4-0.2,0.7-0.2s0.6,0.1,0.7,0.3c0.1,0.2,0.3,0.4,0.3,0.8c0,0.3-0.1,0.6-0.3,0.8
		s-0.4,0.3-0.7,0.3s-0.5-0.1-0.7-0.3C150.5,216.1,150.4,215.9,150.4,215.5z"/>
	<path class="st0" d="M161.5,217.9c0.4,0,0.8,0,1,0.1l-0.2,1.9c-0.3-0.1-0.6-0.1-0.9-0.1c-0.8,0-1.5,0.3-2,0.8s-0.8,1.2-0.8,2.1v5.1
		h-2v-9.7h1.6l0.3,1.7h0.1c0.3-0.6,0.7-1,1.3-1.4C160.4,218.1,160.9,217.9,161.5,217.9z"/>
	<path class="st0" d="M0,252.7v-17.7h2.9v17.7H0z"/>
	<path class="st0" d="M19.1,252.7h-2.8v-8.3c0-1-0.2-1.8-0.6-2.3c-0.4-0.5-1.1-0.8-2-0.8c-1.2,0-2.1,0.4-2.7,1.1
		c-0.6,0.7-0.8,1.9-0.8,3.6v6.7H7.4v-13.5h2.2L10,241h0.1c0.4-0.6,1-1.1,1.7-1.5c0.7-0.3,1.6-0.5,2.5-0.5c3.2,0,4.9,1.6,4.9,4.9
		C19.1,243.9,19.1,252.7,19.1,252.7z"/>
	<path class="st0" d="M29.9,241.4h-3.3v11.3h-2.9v-11.3h-2.2v-1.3l2.2-0.9v-0.9c0-1.6,0.4-2.8,1.1-3.5c0.7-0.8,1.9-1.2,3.4-1.2
		c1,0,2,0.2,3,0.5l-0.8,2.2c-0.7-0.2-1.4-0.3-2-0.3c-0.7,0-1.1,0.2-1.4,0.6c-0.3,0.4-0.4,1-0.4,1.8v0.9h3.3
		C29.9,239.3,29.9,241.4,29.9,241.4z"/>
	<path class="st0" d="M44.1,246c0,2.2-0.6,3.9-1.7,5.2c-1.1,1.2-2.7,1.9-4.7,1.9c-1.3,0-2.4-0.3-3.3-0.9c-1-0.6-1.7-1.4-2.2-2.5
		c-0.5-1.1-0.8-2.3-0.8-3.7c0-2.2,0.6-3.9,1.7-5.1c1.1-1.2,2.7-1.8,4.7-1.8s3.5,0.6,4.6,1.9C43.5,242.1,44.1,243.8,44.1,246z
		 M34.3,246c0,3.1,1.2,4.7,3.5,4.7s3.4-1.6,3.4-4.7c0-3.1-1.1-4.6-3.4-4.6c-1.2,0-2.1,0.4-2.6,1.2C34.6,243.3,34.3,244.5,34.3,246z"
		/>
	<path class="st0" d="M54.2,239c0.6,0,1.1,0,1.4,0.1l-0.3,2.7c-0.4-0.1-0.8-0.1-1.3-0.1c-1.1,0-2.1,0.4-2.8,1.1
		c-0.7,0.7-1.1,1.7-1.1,2.9v7.1h-2.9v-13.5h2.2l0.4,2.4h0.1c0.4-0.8,1-1.4,1.8-1.9C52.6,239.2,53.4,239,54.2,239z"/>
	<path class="st0" d="M69.4,252.7h-2.9v-8.3c0-1-0.2-1.8-0.6-2.3c-0.4-0.5-1-0.8-1.8-0.8c-1.1,0-1.9,0.4-2.4,1.1
		c-0.5,0.7-0.8,1.9-0.8,3.6v6.7h-2.9v-13.5h2.2l0.4,1.8h0.1c0.4-0.6,0.9-1.1,1.6-1.5c0.7-0.3,1.5-0.5,2.4-0.5c2.1,0,3.5,0.7,4.1,2.1
		H69c0.4-0.7,1-1.2,1.7-1.6c0.7-0.4,1.6-0.6,2.5-0.6c1.6,0,2.8,0.4,3.5,1.2c0.7,0.8,1.1,2.1,1.1,3.7v8.8h-2.7v-8.3
		c0-1-0.2-1.8-0.6-2.3c-0.4-0.5-1-0.8-1.8-0.8c-1.1,0-1.9,0.3-2.4,1c-0.5,0.7-0.8,1.8-0.8,3.2L69.4,252.7L69.4,252.7z"/>
	<path class="st0" d="M90.3,252.7l-0.6-1.9h-0.1c-0.7,0.8-1.3,1.4-2,1.7c-0.7,0.3-1.5,0.4-2.5,0.4c-1.3,0-2.4-0.4-3.1-1.1
		c-0.7-0.7-1.1-1.7-1.1-3c0-1.4,0.5-2.4,1.6-3.2c1-0.7,2.6-1.1,4.7-1.2l2.3-0.1v-0.5c0-0.9-0.2-1.5-0.6-1.9c-0.4-0.4-1-0.6-1.9-0.6
		c-0.7,0-1.4,0.1-2,0.3c-0.6,0.2-1.2,0.4-1.8,0.7l-0.9-2.1c0.7-0.4,1.5-0.7,2.4-0.9c0.9-0.2,1.7-0.3,2.5-0.3c1.7,0,3,0.4,3.9,1.1
		c0.9,0.7,1.3,1.9,1.3,3.5v9.1L90.3,252.7L90.3,252.7z M86,250.8c1,0,1.9-0.3,2.5-0.9s0.9-1.4,0.9-2.4v-1.2l-1.7,0.1
		c-1.4,0-2.3,0.3-2.9,0.7c-0.6,0.4-0.9,1-0.9,1.8c0,0.6,0.2,1.1,0.5,1.4C84.8,250.6,85.3,250.8,86,250.8z"/>
	<path class="st0" d="M101.4,250.7c0.7,0,1.4-0.1,2.1-0.3v2.2c-0.3,0.1-0.7,0.3-1.2,0.3c-0.5,0.1-1,0.1-1.6,0.1
		c-2.7,0-4.1-1.4-4.1-4.3v-7.3h-1.8v-1.3l2-1l1-2.9h1.8v3h3.8v2.2h-3.8v7.2c0,0.7,0.2,1.2,0.5,1.5
		C100.4,250.5,100.8,250.7,101.4,250.7z"/>
	<path class="st0" d="M105.9,235.7c0-0.5,0.1-0.9,0.4-1.2c0.3-0.3,0.7-0.4,1.2-0.4c0.5,0,0.9,0.1,1.2,0.4s0.4,0.7,0.4,1.2
		s-0.1,0.9-0.4,1.2c-0.3,0.3-0.7,0.4-1.2,0.4c-0.5,0-0.9-0.1-1.2-0.4C106,236.5,105.9,236.1,105.9,235.7z M108.9,252.7H106v-13.5
		h2.9V252.7z"/>
	<path class="st0" d="M125,246c0,2.2-0.6,3.9-1.7,5.2c-1.1,1.3-2.7,1.9-4.7,1.9c-1.3,0-2.4-0.3-3.3-0.9c-1-0.6-1.7-1.4-2.2-2.5
		s-0.8-2.3-0.8-3.7c0-2.2,0.6-3.9,1.7-5.1c1.1-1.2,2.7-1.8,4.7-1.8c2,0,3.5,0.6,4.6,1.9C124.5,242.1,125,243.8,125,246z M115.2,246
		c0,3.1,1.2,4.7,3.5,4.7c2.3,0,3.4-1.6,3.4-4.7c0-3.1-1.1-4.6-3.4-4.6c-1.2,0-2.1,0.4-2.6,1.2C115.6,243.4,115.2,244.5,115.2,246z"
		/>
	<path class="st0" d="M140.1,252.7h-2.9v-8.3c0-1-0.2-1.8-0.6-2.3c-0.4-0.5-1.1-0.8-2-0.8c-1.2,0-2.1,0.4-2.7,1.1s-0.8,1.9-0.8,3.6
		v6.7h-2.9v-13.5h2.2l0.4,1.8h0.1c0.4-0.6,1-1.1,1.7-1.5c0.7-0.3,1.6-0.5,2.5-0.5c3.2,0,4.9,1.6,4.9,4.9L140.1,252.7L140.1,252.7z"
		/>
	<path class="st0" d="M153.1,248.9c0,1.3-0.5,2.3-1.4,3c-1,0.7-2.3,1.1-4.1,1.1c-1.8,0-3.2-0.3-4.3-0.8v-2.5
		c1.6,0.7,3.1,1.1,4.4,1.1c1.8,0,2.6-0.5,2.6-1.6c0-0.3-0.1-0.6-0.3-0.9c-0.2-0.2-0.5-0.5-1-0.7c-0.4-0.2-1.1-0.5-1.9-0.8
		c-1.6-0.6-2.6-1.2-3.2-1.8c-0.5-0.6-0.8-1.4-0.8-2.3c0-1.2,0.5-2.1,1.4-2.7c0.9-0.6,2.2-1,3.8-1c1.6,0,3.1,0.3,4.5,1l-0.9,2.2
		c-1.5-0.6-2.7-0.9-3.7-0.9c-1.5,0-2.3,0.4-2.3,1.3c0,0.4,0.2,0.8,0.6,1.1s1.3,0.7,2.6,1.2c1.1,0.4,1.9,0.8,2.4,1.2
		c0.5,0.4,0.9,0.8,1.1,1.2S153.1,248.2,153.1,248.9z"/>
	<path class="st0" d="M155,247.3v-2.5h6.3v2.4L155,247.3L155,247.3z"/>
	<path class="st0" d="M182.6,246c0,2.2-0.6,3.9-1.7,5.2c-1.1,1.3-2.7,1.9-4.7,1.9c-1.3,0-2.4-0.3-3.3-0.9c-1-0.6-1.7-1.4-2.2-2.5
		s-0.8-2.3-0.8-3.7c0-2.2,0.6-3.9,1.7-5.1c1.1-1.2,2.7-1.8,4.7-1.8s3.5,0.6,4.6,1.9C182,242.1,182.6,243.8,182.6,246z M172.8,246
		c0,3.1,1.2,4.7,3.5,4.7s3.4-1.6,3.4-4.7c0-3.1-1.1-4.6-3.4-4.6c-1.2,0-2.1,0.4-2.6,1.2C173.2,243.4,172.8,244.5,172.8,246z"/>
	<path class="st0" d="M191.3,253c-2,0-3.6-0.6-4.7-1.8s-1.6-2.9-1.6-5.1c0-2.3,0.6-4,1.7-5.2c1.1-1.2,2.7-1.8,4.8-1.8
		c1.4,0,2.7,0.3,3.8,0.8l-0.9,2.3c-1.2-0.5-2.2-0.7-3-0.7c-2.3,0-3.5,1.5-3.5,4.7c0,1.5,0.3,2.7,0.9,3.4c0.6,0.8,1.4,1.1,2.6,1.1
		c1.3,0,2.5-0.3,3.6-1v2.5c-0.5,0.3-1.1,0.5-1.6,0.6C192.8,252.9,192.1,253,191.3,253z"/>
	<path class="st0" d="M210,252.7h-2.9v-8.3c0-1-0.2-1.8-0.6-2.3c-0.4-0.5-1.1-0.8-2-0.8c-1.2,0-2.1,0.4-2.7,1.1
		c-0.6,0.7-0.8,1.9-0.8,3.6v6.7h-2.9v-18.9h2.9v4.8c0,0.8,0,1.6-0.1,2.5h0.2c0.4-0.7,0.9-1.2,1.6-1.5c0.7-0.4,1.5-0.5,2.4-0.5
		c3.3,0,4.9,1.6,4.9,4.9L210,252.7L210,252.7z"/>
	<path class="st0" d="M50.9,277.6h-3.6l-8.8-14.2h-0.1l0.1,0.8c0.1,1.5,0.2,2.9,0.2,4.2v9.3h-2.6V260h3.5l8.8,14.1h0.1
		c0-0.2,0-0.9-0.1-2c-0.1-1.1-0.1-2.1-0.1-2.8v-9.4H51L50.9,277.6L50.9,277.6z"/>
	<path class="st0" d="M63.6,277.6l-0.6-1.9h-0.1c-0.7,0.8-1.3,1.4-2,1.7c-0.7,0.3-1.5,0.4-2.5,0.4c-1.3,0-2.4-0.4-3.1-1.1
		c-0.7-0.7-1.1-1.7-1.1-3c0-1.4,0.5-2.4,1.6-3.2c1-0.7,2.6-1.1,4.7-1.2l2.3-0.1v-0.5c0-0.9-0.2-1.5-0.6-1.9c-0.4-0.4-1-0.6-1.9-0.6
		c-0.7,0-1.4,0.1-2,0.3c-0.6,0.2-1.2,0.4-1.8,0.7l-0.9-2.1c0.7-0.4,1.5-0.7,2.4-0.9c0.9-0.2,1.7-0.3,2.5-0.3c1.7,0,3,0.4,3.9,1.1
		c0.9,0.7,1.3,1.9,1.3,3.5v9.1L63.6,277.6L63.6,277.6z M59.3,275.7c1,0,1.9-0.3,2.5-0.9c0.6-0.6,0.9-1.4,0.9-2.4v-1.2l-1.7,0.1
		c-1.4,0-2.3,0.3-2.9,0.7c-0.6,0.4-0.9,1-0.9,1.8c0,0.6,0.2,1.1,0.5,1.4C58.2,275.5,58.6,275.7,59.3,275.7z"/>
	<path class="st0" d="M81.5,277.6h-2.9v-8.3c0-1-0.2-1.8-0.6-2.3s-1.1-0.8-2-0.8c-1.2,0-2.1,0.4-2.7,1.1c-0.6,0.7-0.8,1.9-0.8,3.6
		v6.7h-2.9v-13.5h2.2l0.4,1.8h0.1c0.4-0.6,1-1.1,1.7-1.5c0.7-0.3,1.6-0.5,2.5-0.5c3.2,0,4.9,1.6,4.9,4.9L81.5,277.6L81.5,277.6z"/>
	<path class="st0" d="M97.4,270.9c0,2.2-0.6,3.9-1.7,5.2c-1.1,1.2-2.7,1.9-4.7,1.9c-1.3,0-2.4-0.3-3.3-0.9c-1-0.6-1.7-1.4-2.2-2.5
		s-0.8-2.3-0.8-3.7c0-2.2,0.6-3.9,1.7-5.1c1.1-1.2,2.7-1.8,4.7-1.8c2,0,3.5,0.6,4.6,1.9C96.8,267,97.4,268.7,97.4,270.9z
		 M87.6,270.9c0,3.1,1.2,4.7,3.5,4.7c2.3,0,3.4-1.6,3.4-4.7c0-3.1-1.1-4.6-3.4-4.6c-1.2,0-2.1,0.4-2.6,1.2
		C87.9,268.2,87.6,269.4,87.6,270.9z"/>
	<path class="st0" d="M105.6,275.6c0.7,0,1.4-0.1,2.1-0.3v2.2c-0.3,0.1-0.7,0.3-1.2,0.3s-1,0.1-1.6,0.1c-2.7,0-4.1-1.4-4.1-4.3v-7.3
		h-1.8V265l2-1l1-2.9h1.8v3h3.8v2.2h-3.8v7.2c0,0.7,0.2,1.2,0.5,1.5C104.7,275.4,105.1,275.6,105.6,275.6z"/>
	<path class="st0" d="M116.3,277.9c-2.1,0-3.7-0.6-4.9-1.8c-1.2-1.2-1.8-2.9-1.8-5.1c0-2.2,0.5-3.9,1.6-5.2s2.6-1.9,4.5-1.9
		c1.8,0,3.2,0.5,4.2,1.6s1.5,2.6,1.5,4.5v1.6h-9c0,1.3,0.4,2.3,1.1,3c0.7,0.7,1.6,1.1,2.8,1.1c0.8,0,1.5-0.1,2.2-0.2
		c0.7-0.1,1.4-0.4,2.2-0.8v2.3c-0.7,0.3-1.4,0.6-2.1,0.7C118.1,277.8,117.2,277.9,116.3,277.9z M115.8,266.1c-0.9,0-1.6,0.3-2.2,0.9
		c-0.5,0.6-0.9,1.4-1,2.5h6.1c0-1.1-0.3-2-0.8-2.5C117.4,266.4,116.7,266.1,115.8,266.1z"/>
	<path class="st0" d="M127.6,270.5l1.6-2l4.1-4.3h3.3l-5.4,5.8l5.8,7.7h-3.4l-4.3-5.9l-1.6,1.3v4.6h-2.8v-18.9h2.8v9.3L127.6,270.5
		L127.6,270.5z"/>
	<path class="st0" d="M150.9,277.6H148v-8.3c0-1-0.2-1.8-0.6-2.3s-1.1-0.8-2-0.8c-1.2,0-2.1,0.4-2.7,1.1c-0.6,0.7-0.8,1.9-0.8,3.6
		v6.7H139v-13.5h2.2l0.4,1.8h0.1c0.4-0.6,1-1.1,1.7-1.5c0.7-0.3,1.6-0.5,2.5-0.5c3.2,0,4.9,1.6,4.9,4.9L150.9,277.6L150.9,277.6z"/>
	<path class="st0" d="M154.6,260.7c0-0.5,0.1-0.9,0.4-1.2c0.3-0.3,0.7-0.4,1.2-0.4c0.5,0,0.9,0.1,1.2,0.4s0.4,0.7,0.4,1.2
		c0,0.5-0.1,0.9-0.4,1.2c-0.3,0.3-0.7,0.4-1.2,0.4c-0.5,0-0.9-0.1-1.2-0.4C154.8,261.5,154.6,261.1,154.6,260.7z M157.7,277.6h-2.9
		v-13.5h2.9V277.6z"/>
	<path class="st0" d="M164.5,270.5l1.6-2l4.1-4.3h3.3l-5.4,5.8l5.8,7.7h-3.4l-4.3-5.9l-1.6,1.3v4.6h-2.8v-18.9h2.8v9.3L164.5,270.5
		L164.5,270.5z"/>
</g>
<g id="Logo">
	<g id="Bottom_Right_00000045616645628623948620000014072422817232223919_">
		<polyline class="st0" points="177.4,101 197.6,101.1 205,108.5 196.1,117.4 188.8,110 170.4,107.9 177.4,101 		"/>
		<polyline class="st0" points="169.3,109.1 187.3,111.4 194.7,118.8 185.8,127.7 178.4,120.3 162.4,116 169.3,109.1 		"/>
		<polyline class="st0" points="161.2,117.1 177,121.8 184.3,129.2 175.5,138 168.1,130.6 154.3,124 161.2,117.1 		"/>
		<polyline class="st0" points="153.2,125.2 166.6,132.1 174,139.5 165.2,148.3 157.8,141 146.3,132.1 153.2,125.2 		"/>
		<polyline class="st0" points="145.1,133.2 156.3,142.4 163.7,149.8 154.8,158.7 147.4,151.3 138.2,140.1 145.1,133.2 		"/>
		<polyline class="st0" points="137.1,141.3 146,152.8 153.3,160.2 144.5,169 137.1,161.6 130.2,148.2 137.1,141.3 		"/>
		<polyline class="st0" points="129,149.3 135.6,163.1 143,170.5 134.2,179.3 126.8,172 122.1,156.2 129,149.3 		"/>
		<polyline class="st0" points="121,157.4 125.3,173.4 132.7,180.8 123.8,189.7 116.4,182.3 114.1,164.3 121,157.4 		"/>
		<polyline class="st0" points="112.9,165.4 115,183.8 122.4,191.1 113.5,200 106.1,192.6 106,172.4 112.9,165.4 		"/>
	</g>
	<g id="Top_Right_00000089553144828634377280000012604556152214971531_">
		<polyline class="st0" points="177.4,99 197.6,98.9 205,91.5 196.1,82.6 188.8,90 170.4,92.1 177.4,99 		"/>
		<polyline class="st0" points="169.3,90.9 187.3,88.6 194.7,81.2 185.8,72.3 178.4,79.7 162.4,84 169.3,90.9 		"/>
		<polyline class="st0" points="161.2,82.9 177,78.2 184.3,70.8 175.5,62 168.1,69.4 154.3,76 161.2,82.9 		"/>
		<polyline class="st0" points="153.2,74.8 166.6,67.9 174,60.5 165.2,51.7 157.8,59 146.3,67.9 153.2,74.8 		"/>
		<polyline class="st0" points="145.1,66.8 156.3,57.6 163.7,50.2 154.8,41.3 147.4,48.7 138.2,59.9 145.1,66.8 		"/>
		<polyline class="st0" points="137.1,58.7 146,47.2 153.3,39.8 144.5,31 137.1,38.4 130.2,51.8 137.1,58.7 		"/>
		<polyline class="st0" points="129,50.7 135.6,36.9 143,29.5 134.2,20.7 126.8,28 122.1,43.8 129,50.7 		"/>
		<polyline class="st0" points="121,42.6 125.3,26.6 132.7,19.2 123.8,10.3 116.4,17.7 114.1,35.7 121,42.6 		"/>
		<polyline class="st0" points="112.9,34.6 115,16.2 122.4,8.9 113.5,0 106.1,7.4 106,27.6 112.9,34.6 		"/>
	</g>
	<g id="Bottom_Left_00000131365372686050395450000007381521746949914765_">
		<polyline class="st0" points="32.6,101 12.4,101.1 5,108.5 13.9,117.4 21.2,110 39.6,107.9 32.6,101 		"/>
		<polyline class="st0" points="40.7,109.1 22.7,111.4 15.3,118.8 24.2,127.7 31.6,120.3 47.6,116 40.7,109.1 		"/>
		<polyline class="st0" points="48.8,117.1 33,121.8 25.7,129.2 34.5,138 41.9,130.6 55.7,124 48.8,117.1 		"/>
		<polyline class="st0" points="56.8,125.2 43.4,132.1 36,139.5 44.8,148.3 52.2,141 63.7,132.1 56.8,125.2 		"/>
		<polyline class="st0" points="64.9,133.2 53.7,142.4 46.3,149.8 55.2,158.7 62.6,151.3 71.8,140.1 64.9,133.2 		"/>
		<polyline class="st0" points="72.9,141.3 64,152.8 56.7,160.2 65.5,169 72.9,161.6 79.8,148.2 72.9,141.3 		"/>
		<polyline class="st0" points="81,149.3 74.4,163.1 67,170.5 75.8,179.3 83.2,172 87.9,156.2 81,149.3 		"/>
		<polyline class="st0" points="89,157.4 84.7,173.4 77.3,180.8 86.2,189.7 93.6,182.3 95.9,164.3 89,157.4 		"/>
		<polyline class="st0" points="97.1,165.4 95,183.8 87.7,191.1 96.5,200 103.9,192.6 104,172.4 97.1,165.4 		"/>
	</g>
	<g id="Top_Left_00000094601726581115717100000010361889360796369052_">
		<polyline class="st0" points="32.6,99 12.4,98.9 5,91.5 13.9,82.6 21.2,90 39.6,92.1 32.6,99 		"/>
		<polyline class="st0" points="40.7,90.9 22.7,88.6 15.3,81.2 24.2,72.3 31.6,79.7 47.6,84 40.7,90.9 		"/>
		<polyline class="st0" points="48.8,82.9 33,78.2 25.7,70.8 34.5,62 41.9,69.4 55.7,76 48.8,82.9 		"/>
		<polyline class="st0" points="56.8,74.8 43.4,67.9 36,60.5 44.8,51.7 52.2,59 63.7,67.9 56.8,74.8 		"/>
		<polyline class="st0" points="64.9,66.8 53.7,57.6 46.3,50.2 55.2,41.3 62.6,48.7 71.8,59.9 64.9,66.8 		"/>
		<polyline class="st0" points="72.9,58.7 64,47.2 56.7,39.8 65.5,31 72.9,38.4 79.8,51.8 72.9,58.7 		"/>
		<polyline class="st0" points="81,50.7 74.4,36.9 67,29.5 75.8,20.7 83.2,28 87.9,43.8 81,50.7 		"/>
		<polyline class="st0" points="89,42.6 84.7,26.6 77.3,19.2 86.2,10.3 93.6,17.7 95.9,35.7 89,42.6 		"/>
		<polyline class="st0" points="97.1,34.6 95,16.2 87.6,8.9 96.5,0 103.9,7.4 104,27.6 97.1,34.6 		"/>
	</g>
	<g id="Flash_00000105400480104178177520000015062517538223643557_">
		<polyline id="N_00000102509001906372466270000005294306927432874934_" class="st1" points="75.9,101.9 70.5,120.6 113.4,109.3 
			105.9,134.2 172.4,100.1 132.8,105.3 138.2,84.5 75.9,101.9 		"/>
		<polyline id="I_00000124127771512677651820000005604369360510606989_" class="st1" points="37.9,100.4 97.1,89.5 105.1,66.8 
			37.9,100.4 		"/>
	</g>
</g>
</svg>
