<?xml version="1.0" encoding="utf-8"?>
<!-- Generator: Adobe Illustrator 21.0.2, SVG Export Plug-In . SVG Version: 6.00 Build 0)  -->
<svg version="1.1" id="Lager_1" xmlns="http://www.w3.org/2000/svg" xmlns:xlink="http://www.w3.org/1999/xlink" x="0px" y="0px"
	 viewBox="0 0 289.5 288.9" style="enable-background:new 0 0 289.5 288.9;" xml:space="preserve">
<style type="text/css">
	.st0{display:none;}
	.st1{display:inline;fill:url(#SVGID_1_);}
	.st2{fill:#FFFFFF;}
</style>
<g id="Layer_2" class="st0">
	
		<linearGradient id="SVGID_1_" gradientUnits="userSpaceOnUse" x1="-72.923" y1="146.154" x2="364.307" y2="146.154" gradientTransform="matrix(1 0 0 -1 0 290)">
		<stop  offset="0" style="stop-color:#FFFFFF"/>
		<stop  offset="1" style="stop-color:#000000"/>
	</linearGradient>
	<rect x="-72.9" y="-73.8" class="st1" width="437.2" height="435.4"/>
</g>
<g id="Layer_1">
	<g id="Btm_Left_1_">
		<polyline class="st2" points="218.2,104.6 211.1,97.6 229.8,95.5 237.3,88 246.3,97 238.8,104.5 218.2,104.6 		"/>
		<polyline class="st2" points="209.9,96.4 202.9,89.4 219.3,85 226.8,77.5 235.8,86.5 228.3,94 209.9,96.4 		"/>
		<polyline class="st2" points="201.7,88.2 194.7,81.2 208.7,74.5 216.2,67 225.3,76 217.8,83.5 201.7,88.2 		"/>
		<polyline class="st2" points="193.5,80 186.5,73 198.2,64 205.7,56.4 214.7,65.5 207.2,73 193.5,80 		"/>
		<polyline class="st2" points="185.3,71.8 178.3,64.8 187.7,53.4 195.2,45.9 204.2,54.9 196.7,62.4 185.3,71.8 		"/>
		<polyline class="st2" points="177.1,63.6 170.1,56.6 177.2,42.9 184.7,35.4 193.7,44.4 186.2,51.9 177.1,63.6 		"/>
		<polyline class="st2" points="168.9,55.4 161.9,48.4 166.6,32.4 174.2,24.9 183.2,33.9 175.7,41.4 168.9,55.4 		"/>
		<polyline class="st2" points="160.7,47.2 153.7,40.2 156.1,21.9 163.6,14.3 172.7,23.4 165.1,30.9 160.7,47.2 		"/>
		<polyline class="st2" points="152.5,39 145.5,32 145.6,11.3 153.1,3.8 162.1,12.8 154.6,20.4 152.5,39 		"/>
	</g>
	<g id="Btm_Right_1_">
		<polyline class="st2" points="152.8,207.5 145.2,200 145.1,179.2 152.2,172.1 154.3,190.9 161.9,198.4 152.8,207.5 		"/>
		<polyline class="st2" points="163.4,196.9 155.8,189.4 153.4,171 160.5,163.9 164.9,180.3 172.5,187.9 163.4,196.9 		"/>
		<polyline class="st2" points="174,186.4 166.4,178.8 161.6,162.7 168.7,155.6 175.5,169.7 183,177.3 174,186.4 		"/>
		<polyline class="st2" points="184.5,175.8 177,168.2 169.9,154.5 177,147.4 186.1,159.2 193.6,166.7 184.5,175.8 		"/>
		<polyline class="st2" points="195.1,165.2 187.6,157.6 178.1,146.2 185.2,139.1 196.6,148.6 204.2,156.1 195.1,165.2 		"/>
		<polyline class="st2" points="205.7,154.6 198.1,147.1 186.4,138 193.4,130.9 207.2,138 214.8,145.6 205.7,154.6 		"/>
		<polyline class="st2" points="216.3,144 208.7,136.5 194.6,129.7 201.7,122.7 217.8,127.4 225.3,135 216.3,144 		"/>
		<polyline class="st2" points="226.9,133.5 219.3,125.9 202.9,121.5 209.9,114.4 228.4,116.8 235.9,124.4 226.9,133.5 		"/>
		<polyline class="st2" points="237.4,122.9 229.9,115.3 211.1,113.2 218.2,106.2 238.9,106.3 246.5,113.8 237.4,122.9 		"/>
	</g>
	<g id="Top_Right_1_">
		<polyline class="st2" points="136.3,207.5 127.3,198.5 134.8,190.9 136.9,172.2 144,179.3 143.9,200 136.3,207.5 		"/>
		<polyline class="st2" points="125.8,197 116.7,187.9 124.3,180.4 128.7,164 135.8,171.1 133.3,189.4 125.8,197 		"/>
		<polyline class="st2" points="115.2,186.4 106.2,177.4 113.7,169.8 120.5,155.8 127.5,162.8 122.8,178.9 115.2,186.4 		"/>
		<polyline class="st2" points="104.7,175.9 95.6,166.8 103.2,159.3 112.3,147.6 119.3,154.6 112.2,168.3 104.7,175.9 		"/>
		<polyline class="st2" points="94.1,165.3 85.1,156.3 92.6,148.7 104,139.3 111.1,146.4 101.7,157.8 94.1,165.3 		"/>
		<polyline class="st2" points="83.6,154.8 74.5,145.7 82.1,138.2 95.8,131.1 102.9,138.2 91.1,147.2 83.6,154.8 		"/>
		<polyline class="st2" points="73,144.2 64,135.2 71.5,127.6 87.6,122.9 94.6,129.9 80.6,136.7 73,144.2 		"/>
		<polyline class="st2" points="62.5,133.7 53.4,124.6 61,117.1 79.4,114.7 86.4,121.7 70,126.1 62.5,133.7 		"/>
		<polyline class="st2" points="51.9,123.1 42.9,114.1 50.4,106.5 71.1,106.4 78.2,113.5 59.5,115.6 51.9,123.1 		"/>
	</g>
	<g id="Top_Left_1_">
		<polyline class="st2" points="71.1,104.6 50.4,104.5 42.9,97 51.9,88 59.4,95.5 78.1,97.6 71.1,104.6 		"/>
		<polyline class="st2" points="79.3,96.4 60.9,94 53.4,86.5 62.4,77.5 70,85 86.3,89.4 79.3,96.4 		"/>
		<polyline class="st2" points="87.5,88.2 71.5,83.5 63.9,76 73,67 80.5,74.5 94.5,81.2 87.5,88.2 		"/>
		<polyline class="st2" points="95.7,80 82,73 74.5,65.5 83.5,56.4 91,64 102.7,73 95.7,80 		"/>
		<polyline class="st2" points="103.9,71.8 92.5,62.4 85,54.9 94,45.9 101.5,53.4 110.9,64.8 103.9,71.8 		"/>
		<polyline class="st2" points="112.1,63.6 103,51.9 95.5,44.4 104.5,35.4 112,42.9 119.1,56.6 112.1,63.6 		"/>
		<polyline class="st2" points="120.3,55.4 113.5,41.4 106,33.9 115,24.9 122.6,32.4 127.3,48.4 120.3,55.4 		"/>
		<polyline class="st2" points="128.5,47.2 124.1,30.9 116.5,23.4 125.6,14.3 133.1,21.9 135.5,40.2 128.5,47.2 		"/>
		<polyline class="st2" points="136.7,39 134.6,20.4 127.1,12.8 136.1,3.8 143.6,11.3 143.7,32 136.7,39 		"/>
	</g>
	<g id="Flash_1_">
		<polyline id="N_1_" class="st2" points="115,107.5 109.6,126.5 153.3,115 145.7,140.3 213.4,105.7 173,111 178.5,89.8 115,107.5 
					"/>
		<polyline id="I_1_" class="st2" points="76.3,105.9 136.7,94.8 144.8,71.7 76.3,105.9 		"/>
	</g>
</g>
<g>
	<path class="st2" d="M95.6,224.4c0,1.1-0.4,2-1.2,2.7s-2,1-3.4,1s-2.6-0.2-3.6-0.7v-2c0.6,0.3,1.2,0.5,1.9,0.7s1.3,0.2,1.8,0.2
		c0.8,0,1.4-0.2,1.8-0.5s0.6-0.7,0.6-1.3c0-0.5-0.2-0.9-0.5-1.2s-1.1-0.7-2.3-1.2c-1.2-0.5-2-1-2.5-1.6s-0.7-1.3-0.7-2.2
		c0-1.1,0.4-1.9,1.1-2.5s1.8-0.9,3.1-0.9c1.2,0,2.5,0.3,3.7,0.8l-0.7,1.7c-1.1-0.5-2.2-0.7-3.1-0.7c-0.7,0-1.2,0.1-1.5,0.4
		c-0.4,0.3-0.5,0.7-0.5,1.2c0,0.3,0.1,0.6,0.2,0.9c0.1,0.2,0.4,0.5,0.7,0.7s0.9,0.5,1.7,0.8c0.9,0.4,1.6,0.8,2.1,1.1s0.8,0.7,1,1.2
		S95.6,223.9,95.6,224.4z"/>
	<path class="st2" d="M102.1,228.1c-1.5,0-2.7-0.4-3.5-1.3s-1.3-2.1-1.3-3.6c0-1.6,0.4-2.8,1.2-3.7s1.9-1.4,3.3-1.4
		c1.3,0,2.3,0.4,3,1.2s1.1,1.9,1.1,3.2v1.1h-6.5c0,0.9,0.3,1.7,0.8,2.2s1.2,0.8,2,0.8c0.6,0,1.1-0.1,1.6-0.2s1-0.3,1.6-0.5v1.7
		c-0.5,0.2-1,0.4-1.5,0.5S102.7,228.1,102.1,228.1z M101.7,219.6c-0.7,0-1.2,0.2-1.6,0.6s-0.6,1-0.7,1.8h4.4c0-0.8-0.2-1.4-0.6-1.8
		C102.9,219.8,102.4,219.6,101.7,219.6z"/>
	<path class="st2" d="M110.2,222.8l1.2-1.5l2.9-3.1h2.4l-3.9,4.2l4.2,5.5h-2.4l-3.1-4.3l-1.1,0.9v3.3h-2v-13.7h2v6.7L110.2,222.8
		L110.2,222.8z"/>
	<path class="st2" d="M122.1,226.4c0.5,0,1-0.1,1.5-0.2v1.6c-0.2,0.1-0.5,0.2-0.9,0.3s-0.7,0.1-1.1,0.1c-2,0-2.9-1-2.9-3.1v-5.2
		h-1.3v-0.9l1.4-0.8l0.7-2.1h1.3v2.2h2.8v1.6h-2.8v5.2c0,0.5,0.1,0.9,0.4,1.1C121.4,226.3,121.7,226.4,122.1,226.4z"/>
	<path class="st2" d="M125.4,215.6c0-0.4,0.1-0.7,0.3-0.9s0.5-0.3,0.9-0.3c0.4,0,0.6,0.1,0.8,0.3s0.3,0.5,0.3,0.9
		c0,0.4-0.1,0.6-0.3,0.8c-0.2,0.2-0.5,0.3-0.8,0.3c-0.4,0-0.7-0.1-0.9-0.3C125.5,216.3,125.4,216,125.4,215.6z M127.6,227.9h-2.1
		v-9.7h2.1V227.9z"/>
	<path class="st2" d="M139.2,223.1c0,1.6-0.4,2.8-1.2,3.7s-1.9,1.3-3.4,1.3c-0.9,0-1.7-0.2-2.4-0.6s-1.2-1-1.6-1.8s-0.6-1.7-0.6-2.7
		c0-1.6,0.4-2.8,1.2-3.7s1.9-1.3,3.4-1.3c1.4,0,2.5,0.5,3.3,1.4C138.8,220.3,139.2,221.5,139.2,223.1z M132.1,223.1
		c0,2.2,0.8,3.4,2.5,3.4c1.6,0,2.5-1.1,2.5-3.4c0-2.2-0.8-3.3-2.5-3.3c-0.9,0-1.5,0.3-1.9,0.9S132.1,222,132.1,223.1z"/>
	<path class="st2" d="M150.1,227.9h-2.1v-6c0-0.8-0.2-1.3-0.5-1.7c-0.3-0.4-0.8-0.6-1.4-0.6c-0.9,0-1.5,0.3-1.9,0.8
		s-0.6,1.4-0.6,2.6v4.8h-2.1v-9.7h1.6l0.3,1.3h0.1c0.3-0.5,0.7-0.8,1.2-1.1s1.1-0.4,1.8-0.4c2.3,0,3.5,1.2,3.5,3.6V227.9z"/>
	<path class="st2" d="M157.3,228.1c-1.5,0-2.7-0.4-3.5-1.3c-0.9-0.9-1.3-2.1-1.3-3.6c0-1.6,0.4-2.8,1.2-3.7s1.9-1.4,3.3-1.4
		c1.3,0,2.3,0.4,3,1.2s1.1,1.9,1.1,3.2v1.1h-6.5c0,0.9,0.3,1.7,0.8,2.2s1.2,0.8,2,0.8c0.6,0,1.1-0.1,1.6-0.2s1-0.3,1.6-0.5v1.7
		c-0.5,0.2-1,0.4-1.5,0.5S157.9,228.1,157.3,228.1z M156.9,219.6c-0.7,0-1.2,0.2-1.6,0.6c-0.4,0.4-0.6,1-0.7,1.8h4.4
		c0-0.8-0.2-1.4-0.6-1.8C158,219.8,157.5,219.6,156.9,219.6z"/>
	<path class="st2" d="M171.9,227.9h-2.1v-6c0-0.8-0.2-1.3-0.5-1.7c-0.3-0.4-0.8-0.6-1.4-0.6c-0.9,0-1.5,0.3-1.9,0.8
		s-0.6,1.4-0.6,2.6v4.8h-2.1v-9.7h1.6l0.3,1.3h0.1c0.3-0.5,0.7-0.8,1.2-1.1s1.1-0.4,1.8-0.4c2.3,0,3.5,1.2,3.5,3.6V227.9z"/>
	<path class="st2" d="M184.4,219.8H182v8.2h-2.1v-8.2h-1.6v-1l1.6-0.6v-0.6c0-1.1,0.3-2,0.8-2.6c0.5-0.6,1.4-0.8,2.5-0.8
		c0.7,0,1.4,0.1,2.1,0.4l-0.5,1.6c-0.5-0.2-1-0.2-1.5-0.2c-0.5,0-0.8,0.1-1,0.4c-0.2,0.3-0.3,0.7-0.3,1.3v0.6h2.4V219.8z"/>
	<path class="st2" d="M194.6,223.1c0,1.6-0.4,2.8-1.2,3.7s-1.9,1.3-3.4,1.3c-0.9,0-1.7-0.2-2.4-0.6s-1.2-1-1.6-1.8s-0.6-1.7-0.6-2.7
		c0-1.6,0.4-2.8,1.2-3.7s1.9-1.3,3.4-1.3c1.4,0,2.5,0.5,3.3,1.4C194.2,220.3,194.6,221.5,194.6,223.1z M187.3,215.6
		c0-0.4,0.1-0.6,0.3-0.8s0.4-0.2,0.7-0.2c0.3,0,0.6,0.1,0.7,0.3c0.2,0.2,0.3,0.4,0.3,0.8c0,0.3-0.1,0.6-0.3,0.7s-0.4,0.3-0.7,0.3
		c-0.3,0-0.5-0.1-0.7-0.3S187.3,216,187.3,215.6z M187.6,223.1c0,2.2,0.8,3.4,2.5,3.4c1.6,0,2.5-1.1,2.5-3.4c0-2.2-0.8-3.3-2.5-3.3
		c-0.9,0-1.5,0.3-1.9,0.9S187.6,222,187.6,223.1z M190.7,215.6c0-0.4,0.1-0.6,0.3-0.8c0.2-0.2,0.4-0.2,0.7-0.2
		c0.3,0,0.6,0.1,0.7,0.3s0.3,0.4,0.3,0.8c0,0.3-0.1,0.6-0.3,0.8c-0.2,0.2-0.4,0.3-0.7,0.3c-0.3,0-0.5-0.1-0.7-0.3
		C190.8,216.2,190.7,216,190.7,215.6z"/>
	<path class="st2" d="M201.9,218c0.4,0,0.8,0,1,0.1l-0.2,1.9c-0.3-0.1-0.6-0.1-0.9-0.1c-0.8,0-1.5,0.3-2,0.8s-0.8,1.2-0.8,2.1v5.1
		H197v-9.7h1.6l0.3,1.7h0.1c0.3-0.6,0.7-1,1.3-1.4C200.8,218.2,201.3,218,201.9,218z"/>
	<path class="st2" d="M39.6,252.9v-17.8h2.9v17.8H39.6z"/>
	<path class="st2" d="M58.8,252.9H56v-8.3c0-1-0.2-1.8-0.6-2.3c-0.4-0.5-1.1-0.8-2-0.8c-1.2,0-2.1,0.4-2.7,1.1s-0.8,1.9-0.8,3.6v6.7
		H47v-13.5h2.2l0.4,1.8h0.1c0.4-0.6,1-1.1,1.7-1.5c0.7-0.3,1.6-0.5,2.5-0.5c3.2,0,4.9,1.6,4.9,4.9V252.9z"/>
	<path class="st2" d="M69.6,241.6h-3.3v11.3h-2.9v-11.3h-2.2v-1.3l2.2-0.9v-0.9c0-1.6,0.4-2.8,1.1-3.5c0.7-0.8,1.9-1.2,3.4-1.2
		c1,0,2,0.2,3,0.5l-0.8,2.2c-0.7-0.2-1.4-0.3-2-0.3c-0.7,0-1.1,0.2-1.4,0.6c-0.3,0.4-0.4,1-0.4,1.8v0.9h3.3V241.6z"/>
	<path class="st2" d="M83.9,246.2c0,2.2-0.6,3.9-1.7,5.2c-1.1,1.2-2.7,1.9-4.7,1.9c-1.3,0-2.4-0.3-3.3-0.9c-1-0.6-1.7-1.4-2.2-2.5
		c-0.5-1.1-0.8-2.3-0.8-3.7c0-2.2,0.6-3.9,1.7-5.1c1.1-1.2,2.7-1.8,4.7-1.8c2,0,3.5,0.6,4.6,1.9C83.3,242.3,83.9,244,83.9,246.2z
		 M74,246.2c0,3.1,1.2,4.7,3.5,4.7c2.3,0,3.4-1.6,3.4-4.7c0-3.1-1.1-4.6-3.4-4.6c-1.2,0-2.1,0.4-2.6,1.2
		C74.3,243.5,74,244.7,74,246.2z"/>
	<path class="st2" d="M94,239.2c0.6,0,1.1,0,1.4,0.1l-0.3,2.7c-0.4-0.1-0.8-0.1-1.3-0.1c-1.1,0-2.1,0.4-2.8,1.1
		c-0.7,0.7-1.1,1.7-1.1,2.9v7.1h-2.9v-13.5h2.2l0.4,2.4h0.1c0.4-0.8,1-1.4,1.8-1.9C92.4,239.4,93.2,239.2,94,239.2z"/>
	<path class="st2" d="M109.3,252.9h-2.9v-8.3c0-1-0.2-1.8-0.6-2.3c-0.4-0.5-1-0.8-1.8-0.8c-1.1,0-1.9,0.4-2.4,1.1
		c-0.5,0.7-0.8,1.9-0.8,3.6v6.7h-2.9v-13.5h2.2l0.4,1.8h0.1c0.4-0.6,0.9-1.1,1.6-1.5c0.7-0.3,1.5-0.5,2.4-0.5c2.1,0,3.5,0.7,4.1,2.1
		h0.2c0.4-0.7,1-1.2,1.7-1.6c0.7-0.4,1.6-0.6,2.5-0.6c1.6,0,2.8,0.4,3.5,1.2c0.7,0.8,1.1,2.1,1.1,3.7v8.8H115v-8.3
		c0-1-0.2-1.8-0.6-2.3c-0.4-0.5-1-0.8-1.8-0.8c-1.1,0-1.9,0.3-2.4,1c-0.5,0.7-0.8,1.8-0.8,3.2V252.9z"/>
	<path class="st2" d="M130.3,252.9l-0.6-1.9h-0.1c-0.7,0.8-1.3,1.4-2,1.7s-1.5,0.4-2.5,0.4c-1.3,0-2.4-0.4-3.1-1.1
		c-0.7-0.7-1.1-1.7-1.1-3c0-1.4,0.5-2.4,1.6-3.2c1-0.7,2.6-1.1,4.7-1.2l2.3-0.1V244c0-0.9-0.2-1.5-0.6-1.9c-0.4-0.4-1-0.6-1.9-0.6
		c-0.7,0-1.4,0.1-2,0.3c-0.6,0.2-1.2,0.4-1.8,0.7l-0.9-2.1c0.7-0.4,1.5-0.7,2.4-0.9c0.9-0.2,1.7-0.3,2.5-0.3c1.7,0,3,0.4,3.9,1.1
		c0.9,0.7,1.3,1.9,1.3,3.5v9.1H130.3z M126,251c1,0,1.9-0.3,2.5-0.9c0.6-0.6,0.9-1.4,0.9-2.4v-1.2l-1.7,0.1c-1.4,0-2.3,0.3-2.9,0.7
		c-0.6,0.4-0.9,1-0.9,1.8c0,0.6,0.2,1.1,0.5,1.4C124.8,250.8,125.3,251,126,251z"/>
	<path class="st2" d="M141.4,250.9c0.7,0,1.4-0.1,2.1-0.3v2.2c-0.3,0.1-0.7,0.3-1.2,0.3c-0.5,0.1-1,0.1-1.6,0.1
		c-2.7,0-4.1-1.4-4.1-4.3v-7.3h-1.8v-1.3l2-1l1-2.9h1.8v3h3.8v2.2h-3.8v7.2c0,0.7,0.2,1.2,0.5,1.5
		C140.4,250.7,140.8,250.9,141.4,250.9z"/>
	<path class="st2" d="M146,235.9c0-0.5,0.1-0.9,0.4-1.2s0.7-0.4,1.2-0.4c0.5,0,0.9,0.1,1.2,0.4c0.3,0.3,0.4,0.7,0.4,1.2
		c0,0.5-0.1,0.9-0.4,1.2c-0.3,0.3-0.7,0.4-1.2,0.4c-0.5,0-0.9-0.1-1.2-0.4C146.1,236.7,146,236.3,146,235.9z M149,252.9h-2.9v-13.5
		h2.9V252.9z"/>
	<path class="st2" d="M165.1,246.2c0,2.2-0.6,3.9-1.7,5.2s-2.7,1.9-4.7,1.9c-1.3,0-2.4-0.3-3.3-0.9c-1-0.6-1.7-1.4-2.2-2.5
		c-0.5-1.1-0.8-2.3-0.8-3.7c0-2.2,0.6-3.9,1.7-5.1c1.1-1.2,2.7-1.8,4.7-1.8c2,0,3.5,0.6,4.6,1.9C164.6,242.3,165.1,244,165.1,246.2z
		 M155.3,246.2c0,3.1,1.2,4.7,3.5,4.7c2.3,0,3.4-1.6,3.4-4.7c0-3.1-1.1-4.6-3.4-4.6c-1.2,0-2.1,0.4-2.6,1.2S155.3,244.7,155.3,246.2
		z"/>
	<path class="st2" d="M180.3,252.9h-2.9v-8.3c0-1-0.2-1.8-0.6-2.3c-0.4-0.5-1.1-0.8-2-0.8c-1.2,0-2.1,0.4-2.7,1.1s-0.8,1.9-0.8,3.6
		v6.7h-2.9v-13.5h2.2l0.4,1.8h0.1c0.4-0.6,1-1.1,1.7-1.5c0.7-0.3,1.6-0.5,2.5-0.5c3.2,0,4.9,1.6,4.9,4.9V252.9z"/>
	<path class="st2" d="M193.4,249.1c0,1.3-0.5,2.3-1.4,3c-1,0.7-2.3,1.1-4.1,1.1c-1.8,0-3.2-0.3-4.3-0.8v-2.5
		c1.6,0.7,3.1,1.1,4.4,1.1c1.8,0,2.6-0.5,2.6-1.6c0-0.3-0.1-0.6-0.3-0.9c-0.2-0.2-0.5-0.5-1-0.7c-0.4-0.2-1.1-0.5-1.9-0.8
		c-1.6-0.6-2.6-1.2-3.2-1.8c-0.5-0.6-0.8-1.4-0.8-2.3c0-1.2,0.5-2.1,1.4-2.7c0.9-0.6,2.2-1,3.8-1c1.6,0,3.1,0.3,4.5,1l-0.9,2.2
		c-1.5-0.6-2.7-0.9-3.7-0.9c-1.5,0-2.3,0.4-2.3,1.3c0,0.4,0.2,0.8,0.6,1.1s1.3,0.7,2.6,1.2c1.1,0.4,1.9,0.8,2.4,1.2
		c0.5,0.4,0.9,0.8,1.1,1.2S193.4,248.4,193.4,249.1z"/>
	<path class="st2" d="M195.3,247.5V245h6.3v2.4H195.3z"/>
	<path class="st2" d="M223,246.2c0,2.2-0.6,3.9-1.7,5.2s-2.7,1.9-4.7,1.9c-1.3,0-2.4-0.3-3.3-0.9c-1-0.6-1.7-1.4-2.2-2.5
		c-0.5-1.1-0.8-2.3-0.8-3.7c0-2.2,0.6-3.9,1.7-5.1c1.1-1.2,2.7-1.8,4.7-1.8c2,0,3.5,0.6,4.6,1.9C222.4,242.3,223,244,223,246.2z
		 M213.1,246.2c0,3.1,1.2,4.7,3.5,4.7c2.3,0,3.4-1.6,3.4-4.7c0-3.1-1.1-4.6-3.4-4.6c-1.2,0-2.1,0.4-2.6,1.2S213.1,244.7,213.1,246.2
		z"/>
	<path class="st2" d="M231.7,253.2c-2,0-3.6-0.6-4.7-1.8c-1.1-1.2-1.6-2.9-1.6-5.1c0-2.3,0.6-4,1.7-5.2c1.1-1.2,2.7-1.8,4.8-1.8
		c1.4,0,2.7,0.3,3.8,0.8l-0.9,2.3c-1.2-0.5-2.2-0.7-3-0.7c-2.3,0-3.5,1.5-3.5,4.7c0,1.5,0.3,2.7,0.9,3.4c0.6,0.8,1.4,1.1,2.6,1.1
		c1.3,0,2.5-0.3,3.6-1v2.5c-0.5,0.3-1.1,0.5-1.6,0.6C233.2,253.1,232.5,253.2,231.7,253.2z"/>
	<path class="st2" d="M250.5,252.9h-2.9v-8.3c0-1-0.2-1.8-0.6-2.3c-0.4-0.5-1.1-0.8-2-0.8c-1.2,0-2.1,0.4-2.7,1.1
		c-0.6,0.7-0.8,1.9-0.8,3.6v6.7h-2.9v-19h2.9v4.8c0,0.8,0,1.6-0.1,2.5h0.2c0.4-0.7,0.9-1.2,1.6-1.5c0.7-0.4,1.5-0.5,2.4-0.5
		c3.3,0,4.9,1.6,4.9,4.9V252.9z"/>
	<path class="st2" d="M91.7,277.9h-3.6l-8.8-14.2h-0.1l0.1,0.8c0.1,1.5,0.2,2.9,0.2,4.2v9.3h-2.6v-17.8h3.5l8.8,14.1h0.1
		c0-0.2,0-0.9-0.1-2s-0.1-2.1-0.1-2.8v-9.4h2.7V277.9z"/>
	<path class="st2" d="M104.5,277.9l-0.6-1.9h-0.1c-0.7,0.8-1.3,1.4-2,1.7s-1.5,0.4-2.5,0.4c-1.3,0-2.4-0.4-3.1-1.1
		c-0.7-0.7-1.1-1.7-1.1-3c0-1.4,0.5-2.4,1.6-3.2c1-0.7,2.6-1.1,4.7-1.2l2.3-0.1V269c0-0.9-0.2-1.5-0.6-1.9c-0.4-0.4-1-0.6-1.9-0.6
		c-0.7,0-1.4,0.1-2,0.3c-0.6,0.2-1.2,0.4-1.8,0.7l-0.9-2.1c0.7-0.4,1.5-0.7,2.4-0.9c0.9-0.2,1.7-0.3,2.5-0.3c1.7,0,3,0.4,3.9,1.1
		c0.9,0.7,1.3,1.9,1.3,3.5v9.1H104.5z M100.2,276c1,0,1.9-0.3,2.5-0.9c0.6-0.6,0.9-1.4,0.9-2.4v-1.2l-1.7,0.1
		c-1.4,0-2.3,0.3-2.9,0.7c-0.6,0.4-0.9,1-0.9,1.8c0,0.6,0.2,1.1,0.5,1.4C99,275.8,99.5,276,100.2,276z"/>
	<path class="st2" d="M122.4,277.9h-2.9v-8.3c0-1-0.2-1.8-0.6-2.3c-0.4-0.5-1.1-0.8-2-0.8c-1.2,0-2.1,0.4-2.7,1.1s-0.8,1.9-0.8,3.6
		v6.7h-2.9v-13.5h2.2l0.4,1.8h0.1c0.4-0.6,1-1.1,1.7-1.5c0.7-0.3,1.6-0.5,2.5-0.5c3.2,0,4.9,1.6,4.9,4.9V277.9z"/>
	<path class="st2" d="M138.4,271.2c0,2.2-0.6,3.9-1.7,5.2c-1.1,1.2-2.7,1.9-4.7,1.9c-1.3,0-2.4-0.3-3.3-0.9c-1-0.6-1.7-1.4-2.2-2.5
		c-0.5-1.1-0.8-2.3-0.8-3.7c0-2.2,0.6-3.9,1.7-5.1c1.1-1.2,2.7-1.8,4.7-1.8c2,0,3.5,0.6,4.6,1.9C137.8,267.3,138.4,269,138.4,271.2z
		 M128.6,271.2c0,3.1,1.2,4.7,3.5,4.7c2.3,0,3.4-1.6,3.4-4.7c0-3.1-1.1-4.6-3.4-4.6c-1.2,0-2.1,0.4-2.6,1.2
		C128.9,268.5,128.6,269.7,128.6,271.2z"/>
	<path class="st2" d="M146.7,275.9c0.7,0,1.4-0.1,2.1-0.3v2.2c-0.3,0.1-0.7,0.3-1.2,0.3s-1,0.1-1.6,0.1c-2.7,0-4.1-1.4-4.1-4.3v-7.3
		h-1.8v-1.3l2-1l1-2.9h1.8v3h3.8v2.2h-3.8v7.2c0,0.7,0.2,1.2,0.5,1.5C145.7,275.7,146.2,275.9,146.7,275.9z"/>
	<path class="st2" d="M157.4,278.2c-2.1,0-3.7-0.6-4.9-1.8c-1.2-1.2-1.8-2.9-1.8-5.1c0-2.2,0.5-3.9,1.6-5.2c1.1-1.3,2.6-1.9,4.5-1.9
		c1.8,0,3.2,0.5,4.2,1.6c1,1.1,1.5,2.6,1.5,4.5v1.6h-9c0,1.3,0.4,2.3,1.1,3c0.7,0.7,1.6,1.1,2.8,1.1c0.8,0,1.5-0.1,2.2-0.2
		s1.4-0.4,2.2-0.8v2.3c-0.7,0.3-1.4,0.6-2.1,0.7C159.2,278.1,158.3,278.2,157.4,278.2z M156.9,266.4c-0.9,0-1.6,0.3-2.2,0.9
		c-0.5,0.6-0.9,1.4-1,2.5h6.1c0-1.1-0.3-2-0.8-2.5C158.5,266.7,157.8,266.4,156.9,266.4z"/>
	<path class="st2" d="M168.7,270.8l1.6-2l4.1-4.3h3.3l-5.4,5.8l5.8,7.7h-3.4l-4.3-5.9l-1.6,1.3v4.6h-2.8v-19h2.8v9.3L168.7,270.8
		L168.7,270.8z"/>
	<path class="st2" d="M192.1,277.9h-2.9v-8.3c0-1-0.2-1.8-0.6-2.3c-0.4-0.5-1.1-0.8-2-0.8c-1.2,0-2.1,0.4-2.7,1.1s-0.8,1.9-0.8,3.6
		v6.7h-2.9v-13.5h2.2l0.4,1.8h0.1c0.4-0.6,1-1.1,1.7-1.5c0.7-0.3,1.6-0.5,2.5-0.5c3.2,0,4.9,1.6,4.9,4.9V277.9z"/>
	<path class="st2" d="M195.9,260.9c0-0.5,0.1-0.9,0.4-1.2c0.3-0.3,0.7-0.4,1.2-0.4c0.5,0,0.9,0.1,1.2,0.4c0.3,0.3,0.4,0.7,0.4,1.2
		c0,0.5-0.1,0.9-0.4,1.2c-0.3,0.3-0.7,0.4-1.2,0.4c-0.5,0-0.9-0.1-1.2-0.4C196.1,261.7,195.9,261.3,195.9,260.9z M199,277.9h-2.9
		v-13.5h2.9V277.9z"/>
	<path class="st2" d="M205.8,270.8l1.6-2l4.1-4.3h3.3l-5.4,5.8l5.8,7.7h-3.4l-4.3-5.9l-1.6,1.3v4.6h-2.8v-19h2.8v9.3L205.8,270.8
		L205.8,270.8z"/>
</g>
</svg>
