<?xml version="1.0" encoding="utf-8"?>
<!-- Generator: Adobe Illustrator 21.0.2, SVG Export Plug-In . SVG Version: 6.00 Build 0)  -->
<svg version="1.1" id="Lager_1" xmlns="http://www.w3.org/2000/svg" xmlns:xlink="http://www.w3.org/1999/xlink" x="0px" y="0px"
	 viewBox="0 0 1000 1000" style="enable-background:new 0 0 1000 1000;" xml:space="preserve">
<style type="text/css">
	.st0{fill:#232C32;}
	.st1{fill:#45697D;}
	.st2{fill:#FFFFFF;}
</style>
<g>
	<path class="st0" d="M809.4,502.6c-0.3,4.3-2.4,7.9-5.4,11c-10.1,10.2-20.3,20.4-30.5,30.5c-29.2,29.2-58.4,58.4-87.7,87.7
		c-30.8,30.8-61.5,61.5-92.3,92.3c-29.1,29.1-58.3,58.2-87.4,87.4c-3,3-6.5,5.3-10.7,5.3c-3.6,0-7.2-0.9-10.1-3.8
		c-11-11.1-22-22.1-33.1-33.1c-32.3-32.3-64.6-64.7-97-97c-34.6-34.6-69.3-69.3-104-103.9c-22.1-22.1-44-44.3-66.3-66.1
		c-5.8-5.7-5.4-15.9,0-21.3c31.6-31.5,63.1-63.1,94.7-94.6c44-44,88.1-88.1,132.1-132.1c13.9-13.9,27.8-27.7,41.6-41.7
		c1.3-1.3,2.6-1.8,4.5-1.8c24.8,0.1,49.5,0.1,74.3,0c2.1,0,3.3,0.8,4.7,2.2c22.6,22.6,45.2,45.2,67.7,67.7
		c32.8,32.7,65.5,65.5,98.3,98.3c33.4,33.4,66.9,66.9,100.3,100.3C806.7,493.2,809,497.4,809.4,502.6z"/>
	<path class="st1" d="M789.1,535.1c4.7-4.7,8.9-9,13.2-13.3c5.3-5.4,10.7-10.7,16-16.1c1.4-1.4,2.7-2.1,4.8-2.1
		c14.4,0.1,28.8-0.6,43.1,0.2c14.9,0.9,29.7,0.2,44.5,0.6c1.7,0,2.9,0.6,4.1,1.8c9.9,9.9,19.8,19.9,29.7,29.8c1.9,1.9,2,1.9,0,4
		c-12.3,12.2-24.5,24.4-36.8,36.7c-1.7,1.7-1.7,1.7-3.4,0c-9.6-9.5-19.2-19.1-28.7-28.7c-2.1-2.2-4.2-3.5-7.5-3.5
		c-3.5,0.1-7.1-0.9-10.7-1.4c-0.4-0.1-0.7,0-1.1-0.1c-4.8-0.6-9.5-1.2-14.3-1.7c-3.7-0.4-7.5-0.5-11.2-0.9
		c-3.6-0.4-7.1-0.9-10.7-1.4c-0.5-0.1-1-0.1-1.5-0.1c-4.5,0-8.8-0.8-13.2-1.6c-3.7-0.6-7.4-0.7-11.1-1.1
		C792.8,535.9,791.2,535.5,789.1,535.1z"/>
	<path class="st1" d="M752.3,571.8c2.8-2.8,5.1-5.3,7.5-7.7c7.5-7.5,15.1-14.9,22.5-22.5c1.7-1.7,3.5-1.3,5.4-1.1
		c3.6,0.5,7.1,1.1,10.6,1.6c3.1,0.5,6.2,0.9,9.3,1.4c2.7,0.4,5.5,0.7,8.2,1.1c3.9,0.5,7.9,1.1,11.8,1.5c3.1,0.4,6.2,0.5,9.3,0.9
		c3.2,0.4,6.4,1.1,9.6,1.6c2.9,0.4,5.7,0.6,8.6,0.9c2.9,0.3,5.8,0.5,8.6,1.1c1.7,0.3,3.3,1.2,4.6,2.6c9.6,9.7,19.3,19.3,28.9,29
		c0.3,0.3,0.5,0.5,0.8,0.8c1.6,1.7,1.6,1.7-0.2,3.5c-5.2,5.3-10.5,10.5-15.8,15.8c-6.6,6.6-13.2,13.3-19.9,19.9
		c-3.3,3.2-2.5,3.3-5.9,0c-9.2-9.2-18.6-18.3-27.6-27.7c-2.9-3-6.4-3.6-9.9-4.6c-8-2.4-16.1-4.5-24.2-6.6
		c-6.6-1.8-13.2-3.4-19.8-5.2C767.5,576.1,760.2,574,752.3,571.8z"/>
	<path class="st1" d="M565.4,759.1c1.4,5,2.6,9.3,3.8,13.7c2.3,8.3,4.5,16.6,6.8,25c1.3,5,2.6,10,4,14.9c1.6,5.9,3.3,11.8,5,17.6
		c0.3,1.1,0.9,2.2,1.7,3c9.9,10,20,20,29.9,30c0.1,0.1,0.2,0.2,0.3,0.3c2,2,2,2,0.1,4c-11.7,11.7-23.4,23.4-35.1,35.2
		c-0.4,0.4-0.9,0.8-1.3,1.3c-2.1,1.9-2.1,1.9-4,0c-10.4-10.3-20.7-20.6-31-31c-0.6-0.6-1.1-1.4-1.2-2.1c-0.4-3-0.5-6-0.9-9
		c-0.4-3.2-1-6.4-1.5-9.6c-0.4-2.9-0.6-5.8-0.9-8.6c-0.4-3.4-1-6.9-1.4-10.3c-0.4-3-0.8-6-1.2-8.9c-0.4-3.1-0.9-6.2-1.3-9.3
		c-0.4-2.5-0.8-5-1.1-7.5c-0.3-3-0.5-6-0.9-9c-0.2-2-0.5-4.1-0.8-6.1c-0.3-1.9,0.4-3.2,1.8-4.5c4.4-4.3,8.6-8.6,12.9-12.9
		c4.7-4.7,9.5-9.4,14.3-14.1C563.7,760.5,564.3,760,565.4,759.1z"/>
	<path class="st1" d="M637.9,685.6c1.8,2.2,3.3,3.9,4.6,5.7c3.5,4.6,7,9.1,10.6,13.7c3.2,4.2,6.5,8.4,9.7,12.6
		c3.5,4.5,6.9,8.9,10.4,13.4c10.6,13.9,24.1,25,36,37.6c3.8,4,3.5,3,0,6.6c-10.4,10.4-20.8,20.8-31.2,31.3c-1.4,1.4-2.7,2.8-4.2,4.1
		c-1.8,1.6-1.8,1.6-3.5,0c-3.1-3.1-6.2-6.2-9.3-9.3c-7.1-7.1-14.3-14.3-21.4-21.5c-0.8-0.8-1.5-1.6-2-2.6
		c-4.6-8.8-9.1-17.6-13.7-26.4c-5.1-9.9-10.3-19.7-15.3-29.6c-2.3-4.6-2.6-3.2,1.1-6.9c8.8-8.8,17.6-17.6,26.3-26.4
		C636.7,687.4,637.1,686.6,637.9,685.6z"/>
	<path class="st1" d="M715.8,608.4c2.7-2.7,4.9-5,7.1-7.2c7.6-7.6,15.2-15.1,22.7-22.8c1.3-1.3,2.5-1.6,4.1-1.1
		c7.7,2.3,15.4,4.6,23.1,6.9c10.6,3.2,21.1,6.3,31.7,9.5c4.1,1.2,8.3,2.3,12.4,3.6c1.5,0.5,3.1,1.4,4.2,2.6
		c10,9.8,19.9,19.8,29.8,29.7c1.9,1.9,1.9,1.9,0.4,3.4c-12.1,12.1-24.1,24.1-36.2,36.2c-0.2,0.2-0.4,0.3-0.5,0.5
		c-2.1,2.3-2.3,2.1-4.3,0.1c-5.2-5.3-10.5-10.5-15.8-15.7c-4.7-4.7-9.1-9.5-14-13.9c-2.1-1.9-4.8-3.2-7.4-4.5
		c-6.3-3.1-12.6-6.1-19-9.1c-7.4-3.6-14.8-7.2-22.2-10.7C726.9,613.4,721.7,611.1,715.8,608.4z"/>
	<path class="st1" d="M601.8,722.5c3,6.1,5.9,11.8,8.7,17.5c3.9,7.9,7.7,15.9,11.5,23.8c3.1,6.4,6.1,12.9,9.2,19.3
		c0.6,1.3,1.5,2.5,2.5,3.5c9.7,9.8,19.5,19.5,29.2,29.2c0.3,0.3,0.5,0.5,0.8,0.8c1.9,2,2,2.1,0,4c-11.9,11.9-23.8,23.8-35.7,35.7
		c-0.3,0.3-0.7,0.7-1,1c-1.8,1.6-1.8,1.6-3.5-0.1c-10.4-10.3-20.7-20.6-31-31.1c-1-1.1-1.7-2.6-2.2-4.1c-2.2-7.2-4.2-14.5-6.3-21.8
		c-3.2-11.2-6.4-22.3-9.7-33.5c-1-3.6-2.1-7.2-3.4-10.6c-0.7-1.8-0.3-2.9,0.9-4.1c4.3-4.2,8.4-8.4,12.7-12.7
		c5.3-5.3,10.5-10.5,15.8-15.7C600.7,723.4,601.2,723,601.8,722.5z"/>
	<path class="st1" d="M679.6,644.6c3-3.1,5.8-5.9,8.7-8.7c6.9-6.9,13.8-13.8,20.7-20.7c2.1-2.1,2.2-2,4.9-0.7
		c11.6,5.9,23.3,11.9,34.9,17.8c7.1,3.6,14.2,7.3,21.3,11.1c1.5,0.8,2.9,1.8,4.1,2.9c10,9.9,19.9,19.8,29.8,29.7
		c0.3,0.3,0.7,0.7,1,1c0.9,0.8,1,1.6,0,2.4c-0.8,0.7-1.6,1.5-2.4,2.3c-10.8,10.9-21.7,21.7-32.5,32.6c-1.4,1.4-2.9,2.5-4.4,3.8
		c-1.5-1.3-3-2.4-4.3-3.8c-8.4-8.3-16.6-16.8-25.1-25c-3.8-3.7-8.1-6.9-12.2-10.2c-4.3-3.5-8.7-6.8-13.1-10.2
		c-4.2-3.3-8.3-6.5-12.5-9.8c-4.7-3.6-9.3-7.2-14-10.8C682.9,647.2,681.4,646,679.6,644.6z"/>
	<path class="st1" d="M718.9,765.2c-0.7-0.6-1.4-1-2-1.6c-5.2-5.1-10.4-10.3-15.6-15.5c-4.8-4.8-9.7-9.6-14.4-14.5
		c-3.3-3.5-6.3-7.3-9.5-11c-3.3-3.9-6.6-7.7-9.8-11.6c-3.1-3.8-6.1-7.7-9.2-11.6c-1.6-2-3.2-3.9-4.9-5.8c-3-3.5-5.9-7-8.9-10.5
		c-1.6-1.9-1.6-2.1,0.2-3.9c9.2-9.2,18.4-18.5,27.6-27.7c1.8-1.8,2.4-1.9,4.3-0.4c1.7,1.3,3.4,2.8,5,4.1c6.1,5,12.3,10.1,18.4,15.1
		c2.8,2.3,5.3,4.9,8.1,7.2c3.8,3.1,7.9,6,11.6,9.2c4.7,4.1,9.3,8.5,13.8,12.9c7.6,7.5,15.2,15.1,22.8,22.7c0.4,0.4,0.8,0.9,1.3,1.3
		c1,0.9,1.1,1.7,0,2.7c-1.7,1.6-3.3,3.3-4.9,4.9c-10.5,10.5-21,21-31.5,31.5C720.7,763.7,719.9,764.4,718.9,765.2z"/>
	<path class="st1" d="M529.2,795.2c0.6,6.1,1,11.4,1.6,16.7c0.4,3.5,1.1,6.9,1.5,10.3c0.4,3.5,0.5,7,0.9,10.5
		c0.4,3.8,1,7.6,1.5,11.4c0.1,0.5,0.2,0.9,0.3,1.4c0.3,3.7,0.5,7.5,0.9,11.2c0.4,3.5,1,6.9,1.4,10.3c0.1,0.7,0.1,1.5,0.1,2.2
		c0.3,2.9,0.5,5.8,0.9,8.6c0.1,0.6,0.6,1.3,1.1,1.8c9.9,9.9,19.8,19.8,29.7,29.7c0.4,0.4,0.9,0.8,1.3,1.3c1.6,1.7,1.6,1.8,0,3.5
		c-8.3,8.4-16.7,16.7-25.1,25.1c-3.8,3.8-7.5,7.6-11.4,11.4c-2.2,2.2-2.3,2.2-4.6-0.1c-9.7-9.7-19.5-19.5-29.2-29.2
		c-1.2-1.2-1.7-2.4-1.8-4.2c-1.5-29-0.5-57.9-0.8-86.9c0-2.3,0.5-4.1,2.2-5.8c8.8-8.6,17.4-17.4,26.1-26.1
		C526.6,797.4,527.6,796.7,529.2,795.2z"/>
	<path class="st1" d="M201.5,466.3c-5.1,5.1-9.6,9.7-14.2,14.3c-5.1,5.1-10.2,10.1-15.2,15.3c-1.4,1.4-2.8,2-4.8,2
		c-11.7-0.1-23.4,0.6-35.1-0.2c-17.3-1.2-34.5-0.2-51.8-0.6c-1.2,0-2.3-0.1-3.3-1.1c-10.4-10.5-20.8-20.9-31.2-31.3
		c-0.2-0.2-0.4-0.6-0.8-1.1c3.7-3.8,7.5-7.6,11.2-11.4c8.8-8.8,17.6-17.5,26.4-26.3c0.2-0.2,0.3-0.4,0.5-0.5c2-2,2-2,3.9-0.1
		c1.1,1,2.1,2,3.1,3.1c8.4,8.4,17,16.8,25.2,25.4c2.9,3.1,6.2,3.7,10,4.2c4.4,0.5,8.8,1,13.2,1.5c0.2,0,0.5,0,0.7,0.1
		c6.5,0.6,12.9,1.2,19.4,1.8c5,0.5,10,1.1,15.1,1.6c5,0.5,10.1,1,15.1,1.6C192.9,464.9,196.8,465.6,201.5,466.3z"/>
	<path class="st1" d="M789.1,466.5c5.7-1.6,10.9-1.8,16-2.2c3.6-0.3,7.1-1,10.7-1.5c2.6-0.3,5.2-0.1,7.9-0.8c3.5-0.8,7.2-0.4,10.8-1
		c3.8-0.7,7.7-0.2,11.4-1.6c0.5-0.2,1.2-0.1,1.8-0.1c4.2-0.5,8.3-1.1,12.5-1.5c2.9-0.3,5.8-0.8,8.6-0.8c2.1,0,3.4-0.9,4.7-2.2
		c8.4-8.5,16.9-16.9,25.3-25.4c1.6-1.6,3.1-3.1,4.7-4.6c1.7-1.6,1.7-1.6,3.4,0.1c5.2,5.1,10.4,10.3,15.6,15.5
		c7.1,7.1,14.1,14.2,21.1,21.2c1.8,1.9,1.9,1.9,0.1,3.7c-10.1,10.2-20.3,20.3-30.4,30.6c-1.2,1.3-2.6,1.1-4,1.1
		c-13,0-26.1-0.4-39.1,0.1c-15.2,0.6-30.4,0.6-45.6,0.8c-3,0-5.1-0.8-7.3-3.1c-8.4-8.7-17-17.1-25.5-25.6
		C791.1,468.4,790.2,467.7,789.1,466.5z"/>
	<path class="st1" d="M602.4,280.3c-4.4-4.6-8.5-8.9-12.6-13c-5.4-5.5-10.8-10.9-16.3-16.3c-1.7-1.7-2-3-1.2-5.4
		c2.6-8,4.6-16.1,6.9-24.2c1.3-4.6,2.9-9.2,4.2-13.8c2.5-8.5,5-17,7.5-25.5c0.9-2.9,2.2-5.5,4.5-7.7c9.4-9.2,18.6-18.6,28-27.9
		c2.6-2.6,2.6-2.6,5.1-0.1c11.9,11.9,23.8,23.8,35.7,35.6c0.3,0.3,0.6,0.7,1,1.1c1.1,1,0.9,1.8-0.1,2.7c-2.7,2.6-5.4,5.3-8,8
		c-7.9,7.9-15.9,15.8-23.8,23.8c-0.8,0.8-1.5,1.9-2,3c-1.5,3.1-2.9,6.4-4.4,9.5c-4.8,9.9-9.6,19.8-14.4,29.7c-3,6.2-6,12.4-9,18.6
		C603.4,278.8,603.1,279.2,602.4,280.3z"/>
	<path class="st1" d="M132.1,625.8c-4-3.9-7.9-7.8-11.8-11.6c-8.9-8.9-17.7-17.8-26.6-26.7c-2-2-2-2-0.1-3.9c10-10,20-20,29.9-30
		c2.1-2.2,4.9-1.7,7.4-2.2c3.7-0.8,7.6-1.2,11.4-1.6c3-0.4,6-0.5,9-0.9c3-0.4,5.9-1,8.8-1.5c0.5-0.1,1-0.1,1.4-0.2
		c6.2-0.8,12.4-1.7,18.6-2.4c3.1-0.4,6.3-0.3,9.3-0.9c5.1-1.1,10.3-0.7,15.3-2.4c1.5-0.5,2.5,0.3,3.5,1.3c5.3,5.4,10.7,10.7,16,16
		c3.5,3.5,7.1,7,10.6,10.6c0.9,0.9,1.8,1.9,2.8,2.9c-1.1,1.9-3.2,1.8-4.7,2.3c-6.9,2-13.9,3.8-20.8,5.6c-6.7,1.8-13.4,3.6-20.1,5.4
		c-7.3,1.9-14.5,4.1-21.9,5.8c-3.6,0.8-6.2,2.7-8.7,5.3c-8.8,9-17.7,17.8-26.6,26.7C134,624.1,133.1,624.9,132.1,625.8z"/>
	<path class="st1" d="M274.6,609.2c-8.2,3.9-15.7,7.5-23.2,11.1c-4.1,2-8.2,4.1-12.4,6.1c-7.8,3.8-15.7,7.6-23.5,11.3
		c-2.4,1.1-4.3,2.6-6.1,4.4c-9.1,9.2-18.3,18.3-27.4,27.4c-0.9,0.9-1.7,2.1-2.4,3.1c-13.8-13.8-27.1-27.2-40.7-40.8
		c1.4-1.4,3-3.1,4.7-4.8c8.5-8.5,17.2-16.9,25.5-25.6c2.7-2.9,6.2-3.6,9.5-4.8c2.6-0.9,5.4-1.2,8-2c6.8-2.1,13.5-4.3,20.2-6.3
		c6.1-1.8,12.3-3.4,18.4-5.1c3.8-1.1,7.6-2.3,11.4-3.5c1.6-0.5,3.2-1,4.8-1.4c1.3-0.3,2.4,0,3.3,1c1.6,1.7,3.2,3.3,4.9,4.9
		c6.9,6.9,13.8,13.7,20.7,20.6C271.7,606.1,272.9,607.4,274.6,609.2z"/>
	<path class="st1" d="M318.8,812.5c-13.3-13.4-26.6-26.7-40-40.2c0.5-0.6,1.2-1.4,1.9-2.1c9.7-9.8,19.5-19.5,29.2-29.3
		c1.8-1.8,3.4-3.8,4.9-5.8c5.1-6.7,10.2-13.4,15.3-20.1c6.5-8.5,13.1-17,19.6-25.5c0.7-1,1.4-2,2.2-3.2c7.1,7.2,13.5,13.6,20,20.1
		c3.3,3.3,6.6,6.5,9.8,9.8c2,2,2.1,2.1,0.8,4.6c-5.1,9.9-10.3,19.8-15.4,29.7c-4.8,9.2-9.5,18.5-14.2,27.8c-0.3,0.6-0.7,1.3-1.2,1.8
		c-10.8,10.8-21.6,21.5-32.4,32.2C319.3,812.3,319.1,812.3,318.8,812.5z"/>
	<path class="st1" d="M387.4,279.8c-3.5-7.5-7-14.9-10.5-22.3c-2.4-4.9-4.9-9.7-7.3-14.6c-3.7-7.6-7.3-15.3-11.1-22.9
		c-0.7-1.4-1.7-2.7-2.8-3.8c-9.9-9.9-19.8-19.8-29.7-29.8c-2-2-2-2.1-0.1-4c12-12,24-24,36-35.9c0.1-0.1,0.2-0.2,0.3-0.3
		c2.3-2.2,2.4-2.2,4.5-0.1c9.7,9.7,19.5,19.5,29.2,29.2c1.6,1.6,2.4,3.4,3,5.7c1,4.4,2.6,8.7,3.9,13.1c2.2,7.3,4.4,14.7,6.6,22.1
		c1.8,6.1,3.4,12.2,5.2,18.3c1.1,3.9,2.4,7.8,3.8,11.6c0.6,1.7,0.4,3-0.9,4.3c-9.6,9.5-19.2,19.1-28.7,28.6
		C388.5,279.3,388.1,279.4,387.4,279.8z"/>
	<path class="st1" d="M411,97.6c7.2,7.2,14.1,14.2,21.1,21.2c3.5,3.5,7,7.1,10.6,10.6c1.2,1.2,1.8,2.3,1.9,4.1
		c0.3,3.1,1.1,6.1,1.6,9.2c0.4,2.7,0.6,5.5,0.9,8.3c0.7,5.6,1.6,11.2,2.3,16.8c0.3,2.4,0.6,4.8,0.9,7.2c0.3,3,0.5,6,0.9,9
		c0.4,3.2,1.1,6.4,1.6,9.5c0.4,2.3,0.6,4.5,0.9,6.8c0.5,3.8,1,7.6,1.3,11.4c0.1,0.8-0.7,1.7-1.3,2.4c-4.2,4.3-8.4,8.5-12.6,12.7
		c-5.2,5.2-10.4,10.3-15.6,15.4c-0.5,0.5-1.2,0.7-1.8,1c-0.3-0.6-0.7-1.2-0.8-1.9c-1.4-4.8-2.7-9.7-4-14.5
		c-1.8-6.7-3.5-13.5-5.3-20.2c-1.8-6.6-3.6-13.2-5.5-19.7c-1.2-4.3-2.2-8.6-3.5-12.8c-0.4-1.2-1-2.5-1.9-3.3
		c-9.6-9.7-19.3-19.3-28.9-29c-0.4-0.4-0.9-0.9-1.3-1.3c-2.1-2.2-2.1-2.6,0.1-4.8c5.8-5.9,11.7-11.7,17.6-17.6
		c5.9-5.9,11.9-11.9,17.8-17.8C409,99.4,409.8,98.7,411,97.6z"/>
	<path class="st1" d="M272.1,765.7c-13.4-13.5-26.7-26.8-40.1-40.2c0.4-0.5,1-1.3,1.6-1.9c10.2-10.3,20.4-20.6,30.8-30.7
		c3.9-3.8,8.3-6.9,12.5-10.4c2.4-2,4.8-4.1,7.2-6.1c3.5-2.9,7.1-5.8,10.6-8.7c2.2-1.8,4.6-3.5,6.8-5.4c3.9-3.3,7.7-6.6,11.5-9.9
		c2.3-2,3-2,5.1,0.2c8.8,8.8,17.5,17.6,26.3,26.4c0.5,0.5,1,1,1.6,1.5c1.2,1.1,1,2,0,3.1c-4.7,5.5-9.4,11-14.1,16.5
		c-3.1,3.7-5.9,7.6-8.9,11.4c-3.1,3.8-6.4,7.5-9.6,11.3c-2.1,2.6-4.1,5.3-6.3,7.9c-1.7,1.9-3.6,3.6-5.4,5.5
		c-9.5,9.5-19,18.9-28.5,28.4C273.1,764.9,272.7,765.2,272.1,765.7z"/>
	<path class="st1" d="M237.8,429.4c-0.9,1.3-1.4,2.1-2,2.7c-9.2,9.2-18.5,18.4-27.7,27.6c-2.1,2.1-4.5,1.3-6.8,1
		c-3.4-0.4-6.8-1.1-10.3-1.6c-3.3-0.5-6.6-1-10-1.5c-2.4-0.3-4.8-0.7-7.2-0.9c-5.3-0.6-10.5-1-15.8-1.7c-5.1-0.7-10.1-1.8-15.2-2.5
		c-3-0.4-6-0.6-9-0.9c-2.6-0.3-5.3-0.5-7.9-0.9c-0.7-0.1-1.5-0.7-2.1-1.2c-10.2-10.1-20.4-20.3-30.5-30.5c-1.8-1.8-1.8-2.2,0.2-4.2
		c9.4-9.4,18.8-18.8,28.1-28.2c3.3-3.3,6.4-6.7,9.8-10.3c3.9,3.9,7.5,7.4,11,10.9c6.8,6.8,13.7,13.6,20.3,20.5c2,2,4.3,3.1,6.9,3.8
		c11.3,3.1,22.6,6.2,34,9.2c10.4,2.8,20.8,5.6,31.3,8.3C235.5,429.3,236.3,429.3,237.8,429.4z"/>
	<path class="st1" d="M201.5,536.3c-0.5,0.4-0.7,0.6-0.9,0.6c-3.7,0.4-7.4,0.6-11.1,1c-3.6,0.4-7.1,1-10.7,1.5
		c-2.6,0.3-5.3,0.6-7.9,0.8c-3.7,0.3-7.5,0.2-11.2,1c-3.7,0.7-7.5,0.1-11,1.6c-0.3,0.1-0.7,0-1.1,0.1c-4.8,0.5-9.5,1.1-14.3,1.6
		c-3.5,0.4-7,0.7-10.5,0.8c-2.6,0-4.6,0.9-6.4,2.7c-9.4,9.5-18.9,19-28.4,28.4c-0.4,0.4-0.9,0.8-1.3,1.3c-1,1.3-1.9,1-3-0.1
		c-5-5.1-10.2-10.2-15.2-15.2c-7.1-7.1-14.1-14.2-21.1-21.2c-0.6-0.6-1.2-1.2-1.9-2.1c3.7-3.8,7.3-7.5,11-11.2
		c7-7,14-13.9,20.9-20.9c1.2-1.2,2.4-1.7,4.1-1.7c29,0,58,0,87,0c1.7,0,2.9,0.5,4.1,1.7c8.9,9,17.9,17.9,26.9,26.9
		C200.2,534.6,200.8,535.5,201.5,536.3z"/>
	<path class="st1" d="M530.4,207.6c-3.3-3.2-6.2-6.1-9.1-9c-6.7-6.7-13.4-13.5-20.2-20.1c-1.4-1.4-2-2.8-2-4.8
		c0.1-28.8,0.1-57.5,0-86.3c0-2.1,0.7-3.6,2.1-5.1c9.8-9.7,19.5-19.4,29.2-29.2c2.2-2.2,2.6-2.2,4.7-0.1
		c11.9,11.9,23.8,23.8,35.7,35.6c0.8,0.8,1.4,1.6,2.3,2.6c-2.8,2.8-5.5,5.6-8.3,8.3c-7.6,7.6-15.1,15.2-22.8,22.7
		c-2.1,2.1-2.9,4.5-3.1,7.4c-0.3,4.2-1,8.3-1.4,12.5c-0.1,0.5-0.1,1-0.1,1.5c-0.5,4.8-1.1,9.5-1.6,14.3c-0.4,3.7-0.1,7.6-1,11.2
		c-0.8,3.7-0.2,7.4-1.5,11.1c-0.9,2.4-0.7,5.2-1,7.9c-0.3,3.5-0.5,7-0.9,10.5C531.2,201.4,530.8,204.1,530.4,207.6z"/>
	<path class="st1" d="M639.1,316.1c-0.6-0.5-1.2-0.9-1.7-1.3c-4.1-4-8.1-8.1-12.2-12.1c-5.3-5.3-10.6-10.8-16-16
		c-1.5-1.4-1.4-2.5-0.6-4c5.3-10.3,10.6-20.6,15.9-31c4.5-8.7,9-17.4,13.5-26.1c0.6-1.2,1.4-2.3,2.3-3.2
		c9.7-9.8,19.5-19.5,29.2-29.2c0.3-0.3,0.5-0.5,0.8-0.8c1.8-1.7,2.2-1.8,3.9-0.1c2.8,2.6,5.4,5.3,8.1,7.9
		c9.2,9.2,18.4,18.4,27.6,27.7c0.5,0.5,1,1.1,1.6,1.5c1.1,0.9,1,1.7,0,2.7c-2.5,2.4-5,5-7.5,7.5c-8.3,8.3-16.6,16.5-24.8,24.8
		c-2.4,2.5-4.3,5.5-6.4,8.3c-2.4,3.2-4.8,6.3-7.2,9.5c-2.2,2.9-4.5,5.7-6.7,8.5c-2.8,3.6-5.6,7.2-8.4,10.8c-2.1,2.8-4.2,5.6-6.3,8.4
		c-1.3,1.7-2.6,3.5-3.9,5.2C640,315.4,639.6,315.7,639.1,316.1z"/>
	<path class="st1" d="M752.9,429.8c9.6-2.6,18.7-5.2,27.8-7.6c9-2.4,18.1-4.7,27.1-7.1c5.3-1.4,10.7-2.8,15.9-4.5
		c1.4-0.4,2.7-1.6,3.8-2.7c10.1-10,20.2-20.1,30.3-30.2c0.3-0.3,0.6-0.4,1.1-0.8c3.3,3.2,6.6,6.4,9.8,9.7c9.5,9.5,18.9,19,28.4,28.5
		c1.9,1.9,1.9,2.3,0,4.1c-10.1,10.1-20.2,20.2-30.3,30.2c-0.6,0.6-1.5,1.3-2.4,1.5c-3,0.4-6,0.5-9,0.9c-3.2,0.4-6.4,1-9.6,1.5
		c-2.6,0.4-5.3,0.6-7.9,1c-3.9,0.5-7.8,1.2-11.7,1.7c-3.1,0.4-6.2,0.5-9.4,0.9c-2.9,0.4-5.7,1-8.5,1.4c-3.1,0.4-6.2,0.6-9.3,1
		c-3,0.3-6,0.8-8.9,1.1c-1.7,0.2-3.3,0.6-5,0.6c-0.9,0-1.9-0.4-2.5-1.1c-9.5-9.4-19-18.9-28.5-28.4
		C753.8,431.1,753.5,430.6,752.9,429.8z"/>
	<path class="st1" d="M388.4,722.9c3.8,3.8,7.1,7,10.4,10.3c6.2,6.2,12.4,12.4,18.6,18.6c2,1.9,2.4,3.7,1.5,6.4
		c-3.1,9.7-5.7,19.6-8.6,29.3c-2.1,6.9-4.4,13.7-6.5,20.6c-1.6,5.2-2.9,10.4-4.4,15.6c-0.3,0.9-0.7,1.8-1.3,2.5
		c-10.3,10.4-20.6,20.7-31,31c-1.9,1.9-2,1.9-4-0.2c-9-8.9-17.9-17.9-26.9-26.8c-3.1-3.1-6.2-6.2-9.3-9.3c-2.1-2.1-2.2-2.1-0.1-4.2
		c8.2-8.2,16.4-16.4,24.6-24.5c2-2,4-3.9,5.9-6c1.1-1.2,2.1-2.6,2.9-4.1c2.1-4.3,4-8.8,6.1-13.1c4.7-9.7,9.5-19.3,14.1-29
		C383.2,734.5,385.6,729,388.4,722.9z"/>
	<path class="st1" d="M310.3,357.5c-3.5,3.5-6.7,6.8-9.9,10.1c-6.1,6.1-12.2,12.2-18.3,18.3c-0.6,0.6-1.3,1.1-1.8,1.8
		c-0.9,1-1.8,1.1-2.9,0.5c-2.6-1.3-5.2-2.6-7.8-4c-6.3-3.3-12.6-6.6-19-9.9c-10.4-5.4-20.9-10.7-31.3-16.1c-0.8-0.4-1.6-1-2.3-1.7
		c-10.3-10.2-20.5-20.5-30.8-30.7c-1.8-1.8-1.8-1.9-0.2-3.5c12.1-12,24.1-24.1,36.2-36.1c2.9-2.9,2.5-2.7,5.3,0.1
		c10.4,10.4,20.8,20.9,31.3,31.2c2.8,2.8,6.2,5,9.3,7.4c3.4,2.7,6.8,5.4,10.2,8c2.7,2.1,5.4,4,8.1,6.1c3.2,2.4,6.3,4.8,9.5,7.2
		c3,2.3,5.9,4.6,8.8,6.9C306.5,354.4,308.1,355.8,310.3,357.5z"/>
	<path class="st1" d="M224.8,719.4c-5.5-5.7-10.8-11.3-16.2-16.7c-7.2-7.3-14.4-14.5-21.6-21.8c-1.6-1.7-1.7-1.7,0-3.4
		c10.4-10.4,20.8-20.9,31.3-31.3c1.8-1.8,4.4-3,6.7-4.2c6.3-3.3,12.8-6.4,19.2-9.6c10.4-5.3,20.7-10.6,31-16c1.4-0.7,2.9-2.3,4-2.1
		c1.4,0.3,2.7,2,3.9,3.2c8.7,8.7,17.4,17.4,26.1,26.1c0.4,0.4,0.8,0.9,1.4,1.5c-1.5,2.8-4.4,4.1-6.6,6c-4.1,3.5-8.6,6.6-12.9,9.8
		c-3.4,2.5-6.7,5.1-10.1,7.6c-4.3,3.3-8.5,6.8-12.8,10.1c-3.1,2.4-6.4,4.7-9.4,7.3c-3.3,2.9-6.3,6-9.5,9.1
		c-7.6,7.6-15.2,15.2-22.8,22.7C226.3,718.2,225.9,718.5,224.8,719.4z"/>
	<path class="st1" d="M680.3,357.3c3.8-3,7.3-5.8,10.8-8.5c4.2-3.3,8.4-6.5,12.6-9.7c4.2-3.2,8.4-6.4,12.6-9.6c3-2.3,5.9-4.6,8.8-7
		c2.6-2.1,5.5-4,7.9-6.3c10.1-9.9,20-19.9,30-29.9c0.4-0.4,0.9-0.8,1.3-1.3c0.9-1.1,1.8-0.9,2.7,0c2.7,2.7,5.4,5.3,8.1,8
		c9.8,9.8,19.6,19.6,29.4,29.5c1.5,1.5,1.6,1.6,0,3.2c-10.4,10.4-20.8,20.8-31.3,31.2c-0.8,0.7-1.7,1.3-2.7,1.8
		c-7,3.5-14.1,7-21.1,10.5c-9.5,4.8-18.9,9.7-28.3,14.6c-2.6,1.3-5.1,2.8-7.6,4.2c-1.4,0.8-2.4,0.5-3.5-0.6
		c-4.8-4.9-9.7-9.6-14.5-14.5c-4.6-4.7-9.3-9.3-13.9-14C681.2,358.5,680.9,358,680.3,357.3z"/>
	<path class="st1" d="M425.2,759.7c3,2.9,5.8,5.7,8.6,8.6c6.9,6.9,13.7,13.8,20.7,20.7c1.6,1.5,2,2.9,1.3,5.1
		c-0.8,2.6-0.8,5.5-1.2,8.2c-0.5,3.8-1,7.6-1.5,11.4c-0.3,2.5-0.5,5-0.9,7.5c-0.5,3.9-1.2,7.8-1.7,11.7c-0.4,3-0.6,6-0.9,9
		c-0.2,2-0.5,4-0.8,6.1c-0.5,3.2-1,6.4-1.4,9.6c-0.4,2.9-0.6,5.8-1,8.6c-0.3,2-0.6,4-1.1,6c-0.2,0.7-0.9,1.4-1.5,2
		c-9.7,9.8-19.5,19.5-29.2,29.2c-0.2,0.2-0.3,0.3-0.5,0.5c-1.9,1.8-1.9,1.8-3.7,0.1c-2.4-2.3-4.7-4.6-7-6.9c-10-10-20-20-30-30
		c-1.6-1.6-1.6-1.7,0.2-3.5c8.2-8.2,16.4-16.4,24.6-24.6c1-1,2-2.2,3.1-3.1c3.7-2.7,5-6.6,5.9-10.8c0.8-3.7,1.8-7.5,2.8-11.2
		c3-11.2,6-22.5,9-33.7c1.7-6.4,3.5-12.7,5.2-19.1C424.2,760.9,424.7,760.5,425.2,759.7z"/>
	<path class="st1" d="M271.6,237.1c5.5,5.6,10.8,11.1,16.2,16.5c4.8,4.9,9.7,9.6,14.4,14.5c3.2,3.4,6.1,7.1,9.2,10.7
		c2,2.3,4,4.5,6,6.8c3.1,3.7,6.2,7.4,9.2,11.2c1.8,2.2,3.5,4.6,5.4,6.8c3.7,4.6,7.5,9.1,11.2,13.7c1,1.3,3.3,2,2.6,4
		c-0.5,1.4-1.9,2.4-3,3.6c-8.5,8.6-17,17.1-25.5,25.6c-1.8,1.8-1.9,1.8-4.1,0.3c-2.3-1.7-4.6-3.5-6.8-5.3
		c-7-5.8-13.9-11.6-20.8-17.4c-4.9-4.1-9.7-8.3-14.8-12.2c-13.9-10.8-25.2-24.3-37.9-36.3c-1.8-1.7-1.8-2.3-0.2-3.9
		c12.5-12.5,25-25,37.5-37.4C270.5,238,270.8,237.8,271.6,237.1z"/>
	<path class="st1" d="M566.3,243.5c-4.2-4.1-8.1-7.9-11.9-11.8c-5.8-5.8-11.5-11.6-17.3-17.3c-1.2-1.2-2-2.2-1.4-4.3
		c0.8-3,0.6-6.2,1-9.3c0.4-3.2,1.1-6.4,1.5-9.6c0.4-3.1,0.7-6.2,1.1-9.3c0.4-3.2,1-6.4,1.4-9.6c0.3-2.4,0.7-4.8,1-7.1
		c0.6-5.3,1-10.5,1.7-15.8c0.8-5.8,1.7-11.6,2.7-17.4c0.2-1,1.1-1.9,1.8-2.6c8.6-8.6,17.2-17.2,25.8-25.8c1.4-1.4,2.7-2.8,4.1-4.1
		c1.8-1.8,1.9-1.8,3.8,0.1c4.3,4.2,8.4,8.4,12.7,12.7c7.5,7.5,15,15,22.5,22.5c0.3,0.3,0.7,0.7,1,1c1.9,2,1.9,2-0.1,4
		c-9.6,9.7-19.2,19.4-29,28.9c-1.8,1.8-2.8,3.8-3.5,6.1c-2.5,9.3-5.1,18.5-7.5,27.7c-3.2,12.2-6.4,24.3-9.6,36.5
		C567.7,240.3,567,241.7,566.3,243.5z"/>
	<path class="st1" d="M274.2,393.6c-2.9,3-5.4,5.5-7.9,7.9c-7.2,7.2-14.5,14.4-21.7,21.7c-1.5,1.5-2.7,1.7-4.8,1
		c-8.9-2.9-17.9-5.5-26.8-8.2c-7.4-2.2-14.7-4.3-22.1-6.4c-5.6-1.6-11.3-3.2-16.9-4.9c-1.3-0.4-2.6-1.3-3.6-2.3c-10-9.9-20-20-30-30
		c-2.4-2.4-2.4-2.1-0.1-4.4c11.8-11.8,23.6-23.6,35.4-35.4c0.3-0.3,0.5-0.5,0.8-0.8c1.1-1.3,2-1.4,3.3-0.1c3.2,3.3,6.6,6.5,9.8,9.8
		c6.8,6.8,13.6,13.7,20.4,20.4c1.2,1.2,2.7,2,4.2,2.8c6.6,3.3,13.3,6.4,19.9,9.6c6.9,3.3,13.7,6.6,20.6,9.9
		C261,387.4,267.3,390.4,274.2,393.6z"/>
	<path class="st1" d="M460,207.6c-0.4-4.1-0.6-7.6-1-11c-0.4-3.4-1-6.9-1.5-10.3c-0.1-0.6-0.1-1.2-0.1-1.8c0-4.4-0.8-8.6-1.7-12.8
		c-0.5-2.7-0.7-5.5-0.9-8.2c-0.3-3.7-0.5-7.5-0.8-11.2c-0.4-3.5-1-6.9-1.4-10.3c-0.1-0.5-0.1-1-0.1-1.4c-0.3-3.7-0.4-7.5-0.9-11.2
		c-0.4-2.7-1.2-5.2-3.4-7.3c-9.6-9.3-19-18.9-28.5-28.4c-0.7-0.7-1.6-1.2-2.6-1.9c1.4-1.5,2.3-2.6,3.3-3.6
		c11.4-11.4,22.7-22.7,34.1-34.1c0.3-0.3,0.5-0.5,0.8-0.8c2-2,2.1-2,4,0c9.7,9.7,19.5,19.5,29.2,29.2c1.3,1.3,2,2.7,2.2,4.7
		c1.6,14.3,0.5,28.7,0.7,43c0.2,14.3,0,28.5,0.1,42.8c0,2.5-0.7,4.3-2.4,6.1c-9,8.9-18,17.9-26.9,26.8
		C461.6,206.2,461,206.7,460,207.6z"/>
	<path class="st1" d="M317.8,191.1c0.7,0.6,1.4,1.2,1.9,1.8c5.5,5.5,11,11,16.6,16.5c3.7,3.7,7.3,7.5,11.1,11.1
		c3.4,3.2,5.9,7,7.9,11.2c3.4,7,7,13.8,10.5,20.7c4.4,8.6,8.8,17.2,13.3,25.8c0.9,1.7,1.9,3.4,2.9,5c0.8,1.2,0.6,2.1-0.4,3.1
		c-6,5.9-11.9,11.9-17.9,17.8c-3.4,3.4-6.9,6.9-10.3,10.3c-1.9,1.9-2.3,1.9-3.9-0.2c-2-2.5-3.9-5.2-5.9-7.8c-2.3-3.1-4.7-6.1-7-9.2
		c-2.4-3.1-4.7-6.1-7.1-9.1c-2.6-3.3-5.2-6.6-7.8-10c-2.2-2.9-4.4-5.8-6.6-8.6c-2-2.5-4-5.2-6.2-7.5c-9.6-9.7-19.3-19.3-28.9-29
		c-0.3-0.3-0.7-0.7-1-1c-1.1-0.9-1-1.8,0-2.7c2-1.9,4-4,6-5.9c9.7-9.7,19.3-19.3,29-29c0.9-0.9,1.8-1.7,2.7-2.5
		C316.9,191.6,317.3,191.4,317.8,191.1z"/>
	<path class="st1" d="M716.5,393.6c9.6-4.6,18.9-9.1,28.2-13.6c2.2-1.1,4.3-2.2,6.5-3.3c8.4-4,16.7-8.2,25.2-12
		c2.4-1.1,4.3-2.6,6.1-4.4c9.3-9.3,18.6-18.6,27.9-27.9c2-2,2.1-2,4-0.1c9.3,9.2,18.5,18.4,27.7,27.6c3.4,3.4,6.7,6.7,10.2,10.2
		c-0.7,0.8-1.2,1.6-1.9,2.2c-10,10-20,20-30,30c-1.4,1.4-2.9,2.3-5,2.7c-2.4,0.4-4.7,1.2-6.9,1.9c-9.3,2.8-18.6,5.8-27.9,8.6
		c-10.3,3.1-20.7,6.1-31,9.2c-1.5,0.4-2.3,0-3.2-0.9c-2.7-2.7-5.4-5.3-8-8c-6.5-6.5-12.9-12.9-19.4-19.4
		C718.2,395.6,717.6,394.7,716.5,393.6z"/>
	<path class="st1" d="M719,237.2c1.1,1,1.9,1.5,2.6,2.2c9,9,17.9,17.9,26.8,26.9c2.9,2.9,5.9,5.8,8.8,8.7c2.1,2,2.1,2.1,0.2,4
		c-11.4,11.5-22.8,23-34.4,34.3c-3.5,3.4-7.7,6.2-11.5,9.3c-2,1.6-3.8,3.3-5.8,4.9c-6.2,5.1-12.5,10.3-18.7,15.4
		c-3.3,2.8-6.8,5.4-10,8.4c-1.5,1.3-2.2,0.8-3.3-0.3c-4.5-4.6-9.1-9.1-13.7-13.7c-4.6-4.7-9.3-9.3-13.9-14c-2.1-2.1-2-2.2-0.1-4.5
		c3.3-4,6.5-8.1,9.7-12.1c2.7-3.4,5.5-6.7,8.3-10c4.2-5,8.4-10,12.4-15.1c6-7.5,12.7-14.3,19.5-21.1
		C703.5,252.8,711.1,245.1,719,237.2z"/>
	<path class="st1" d="M461,795.8c1.3,1.1,2.2,1.8,3,2.6c8.9,8.9,17.7,17.8,26.6,26.7c1.2,1.2,1.6,2.5,1.6,4.2c0,29.1,0,58.3,0,87.4
		c0,2-0.6,3.4-2,4.8c-9.6,9.5-19.2,19.1-28.7,28.7c-0.5,0.5-1.1,1-1.6,1.5c-0.8,0.8-1.5,0.7-2.2-0.1c-1.6-1.6-3.3-3.3-4.9-4.9
		c-10.6-10.6-21.2-21.2-31.8-31.7c-2.6-2.6-2.6-2.5,0.1-5.3c9.6-9.6,19.1-19.2,28.7-28.7c1.8-1.7,2.4-3.7,2.6-6.1
		c0.2-3.8,0.9-7.6,1.3-11.4c0.1-0.5,0.1-1,0.2-1.4c0.3-3.7,0.4-7.5,0.8-11.2c0.4-3.4,1.1-6.9,1.6-10.3c0.1-0.4,0.1-0.7,0.1-1.1
		c0.6-6.4,1.1-12.7,1.7-19.1c0.5-4.9,1-9.8,1.6-14.7C460.1,802.6,460.5,799.6,461,795.8z"/>
	<path class="st2" d="M488.2,406.8c-3.2,1.8-6.1,3.5-9.1,5.1c-8.4,4.6-16.8,9.1-25.1,13.9c-6.5,3.7-12.6,8.1-19.1,11.8
		c-4.8,2.8-8.9,6.2-12.6,10.3c-4.6,5.1-7.8,11-9,17.9c-0.5,2.9-1.1,5.9-1.3,8.9c-0.1,1.6,0,3.3,0,4.1c0.1,2.9,1.1,5.7,2,8.5
		c2.8,8.2,7.3,15.1,14.2,20.4c5.9,4.6,12.3,7.2,19.6,8.7c4.9,1,9.3,0.2,13.8-1c7-1.9,13.5-5.1,20.1-8.1c8.3-3.8,16.8-7.4,25.1-11.3
		c4.6-2.2,9-4.8,14.1-5.6c3.5-0.6,7.3-0.9,10.8-0.2c6.5,1.3,11.9,5,16.6,9.7c25.2,25.3,50.5,50.6,75.8,75.8c4,4,7,8.5,8,14.2
		c0.7,3.9-0.3,7.7-2,10.8c-2.4,4.4-5.8,8-11.1,9.4c-5.9,1.6-11.5,1-16.7-2.2c-1.7-1.1-3.3-2.5-4.8-3.9c-7.1-7-14.1-14.1-21.3-21.2
		c-2.1-2.1-4.5-4-6.8-6c-0.4-0.4-1.4-0.6-1.8-0.3c-0.5,0.3-1,1.4-0.8,1.8c0.5,1.3,1.2,2.7,2.2,3.7c6.9,7.2,13.9,14.3,20.7,21.6
		c2.7,2.9,5.1,6.1,7.6,9.2c1.7,2.1,2.2,4.7,2.7,7.4c0.4,2.4,0.3,4.8-0.2,7c-0.5,2.3-1.5,4.6-2.8,6.6c-2.6,4.1-6.4,6.5-11.2,7.8
		c-3.9,1-7.4,0.7-10.9-0.7c-4.5-1.8-8.7-4.3-11.5-8.5c-0.6-0.9-1.3-1.7-2.1-2.5c-6.2-6.2-12.3-12.5-18.7-18.6c-3.3-3.2-7-6-10.5-8.9
		c-0.4-0.3-1-0.3-1.6-0.4c0,0.6-0.3,1.3-0.1,1.7c1,1.8,1.9,3.7,3.3,5.2c4.6,5,9.3,9.9,14,14.9c2.2,2.3,4.5,4.4,6.7,6.7
		c2.3,2.5,5,4.8,6.6,7.7c2.4,4.2,3.7,8.6,2.6,13.8c-1,4.4-3,7.8-6.1,10.8c-3,2.9-6.6,4.2-10.8,4.5c-5.2,0.4-9.8-0.9-13.9-4.1
		c-0.5-0.4-4.5-4.8-6.2-6.5c-7-7.1-14.1-14.2-21.2-21.2c-2.1-2-4.3-3.9-6.6-5.7c-0.5-0.4-1.7-0.7-1.9-0.5c-0.5,0.6-0.9,1.6-0.7,2.2
		c0.5,1.3,1.2,2.6,2.2,3.7c7.5,7.8,15.2,15.5,22.4,23.5c4.4,4.9,6.1,10.6,4.6,17.5c-1.4,6.3-5.2,10.4-10.7,12.9
		c-6,2.8-12.2,2.1-18.1-1c-0.7-0.4-1.3-1.1-1.9-1.7c-2.9-2.8-5.7-5.7-8.6-8.5c-1.8-1.7-2.7-3.6-2.6-6.1c0.1-2.6,0-5.1,0-7.7
		c0-6.8-1.9-13.1-5.7-18.7c-1.8-2.7-3.4-5.6-5.7-7.9c-2.6-2.6-5.8-4.7-8.9-6.7c-2.2-1.4-4.8-2.3-7.2-3.3c-1.3-0.5-2.1-1.2-2.5-2.7
		c-1.1-3.9-2.6-7.8-5.1-11.1c-2.4-3.2-4.5-6.4-7.8-8.9c-4-3.1-8-5.9-12.7-7.4c-1.3-0.4-2-1.3-2.5-2.8c-2.3-7.5-6.7-13.7-12.5-18.8
		c-3.4-3-7.4-5.5-11.8-6.9c-2.2-0.7-3.2-2-3.9-4.2c-3.4-9.8-9.7-17.1-18.9-22c-3.7-1.9-7.4-4-11.5-4.2c-4.6-0.3-8.8-1.2-13.9-0.3
		c-4.3,0.8-8.3,1.2-12.3,2.6c-8.5,2.9-15.2,8.1-20.7,15.2c-2.6,3.3-4.1,7.1-6.1,10.7c-1.4,2.4-1.4,2.5-3.9,1.6
		c-6-2-12.1-4.1-18.1-6.2c-1.5-0.5-2.6-1.3-2.3-3.1c0.1-0.6,0-1.2,0-1.8c0-46.3,0-92.7,0-139c0-5.6-0.1-4.8,4.7-3.3
		c8.7,2.9,17.3,5.9,26,8.9c5.7,2,11.3,4.1,17.1,5.9c2.4,0.8,4.9,1,7.4,1.5c1.6,0.3,3.3,0.8,5,0.8c8.2-0.3,15.9-2.2,22.8-6.9
		c5.7-3.8,11.7-7.2,17.7-10.5c7.5-4.1,15.2-8,22.9-11.9c9-4.5,18.2-8.3,28.1-10.2c4.1-0.8,8.2-1.2,13-0.7c2.3,0.3,4.9,0.4,7.4,1
		c3.3,0.6,6.6,1.4,9.7,2.8C477.6,397.9,483.9,400.6,488.2,406.8z"/>
	<path class="st2" d="M714.6,492.3c0,20.2,0,40.5,0,60.7c0,3.9-0.3,4-4.2,4.7c-4,0.7-8,1.6-12,2.3c-3.9,0.7-7.8,1.2-11.7,1.8
		c-3.4,0.6-6.9,0.9-10.2,1.9c-3.6,1.1-7.2,0.5-10.8,0.8c-2.8,0.2-5.7-0.5-8.6-1c-3.5-0.6-6.7-2.3-9.4-4.5c-5.1-4.3-9.9-9-14.6-13.7
		c-7.3-7.2-14.3-14.7-21.8-21.7c-19.3-17.9-37.3-37.1-56.2-55.4c-4-3.9-9-5.7-14.7-6.1c-6-0.4-11.5,1.3-16.7,3.9
		c-10.8,5.5-21.6,11-32.4,16.6c-8.6,4.4-17.2,8.9-25.8,13.4c-3.6,1.9-7.3,2.9-11.5,2.8c-3.5-0.1-7-0.3-10.3-1.7
		c-6.9-3-11.7-8-13.7-15.4c-0.6-2.3-1.3-4.6-1.5-7c-0.1-1.7,0.3-3.6,0.7-5.3c1.4-7,5-12.5,11.2-16.1c8-4.7,16-9.4,24-14
		c4.7-2.7,9.5-5.3,14.3-7.9c4.8-2.7,9.6-5.6,14.4-8.4c2.7-1.6,5.5-3.1,8.2-4.6c4.1-2.3,8.4-4.4,12.5-6.7c6.2-3.5,12.3-7.2,18.6-10.5
		c6.8-3.6,13.7-7.3,20.8-10.3c8.5-3.5,16.5-1.4,24.1,3.3c5.1,3.1,9.7,6.8,14.1,10.7c3.8,3.4,7.6,6.7,11.5,9.9
		c4.4,3.6,8.8,7.1,13.2,10.8c2.8,2.3,5.6,4.7,8.1,7.3c5.1,5.4,11.5,8.2,18.6,9.3c2.6,0.4,5.5-0.3,8.2-0.9c7.6-1.5,15.2-3.2,22.8-4.9
		c5.5-1.2,10.9-2.6,16.4-3.9c7.5-1.7,15-3.3,22.4-5c1.2-0.3,1.9,0.2,1.9,1.5c0,1,0,2,0,2.9C714.6,452,714.6,472.1,714.6,492.3z"/>
	<path class="st2" d="M380.9,576.5c0,2.3-0.4,3.3-0.5,5.1c-0.9,2.7-0.2,3.2,2.8,3.4c3.1,0.2,6.2-0.3,9.4,0.6c5,1.4,9.1,3.8,11.8,8.3
		c3.3,5.4,5.1,11.1,3.3,17.5c-0.6,2.1,0.2,2.6,2.4,2.2c1.7-0.3,3.4-0.5,5-0.3c2.5,0.3,5,0.8,7.3,1.7c5.6,2.3,9.6,6.3,11.8,12
		c2,5.2,1.8,10.4,0.8,15.7c-0.3,1.7,0.2,2.3,1.9,1.9c6.4-1.6,12.7-0.8,18,2.9c5.9,4.1,9.8,9.7,10,17.4c0.2,3.5,0.4,7-1,10.4
		c-2.3,5.4-5.5,10-10.2,13.8c-5.6,4.4-12.1,6.4-18.8,7.8c-3,0.6-6.2,0-9.4-0.4c-2.6-0.3-5-1-7.2-2.3c-5.1-3.1-7.9-7.6-8.4-13.6
		c-0.4-4.5,1.1-8.6,2.9-12.5c0.7-1.4,1.2-2.9,1.9-4.7c-1.6,0.2-2.8,0.3-4,0.6c-3,0.7-6,1.8-9,2.2c-8.5,1-16.5-2.1-19.3-11.4
		c-0.9-3.1-0.5-6.7,0-10c0.4-2.7,1.7-5.2,2.5-7.9c0.5-1.5,0-1.9-1.5-1.6c-3.5,0.9-6.9,1.9-10.4,2.7c-4.1,0.9-11.9-1.2-15.1-6.1
		c-1.9-2.8-3.4-5.8-4.2-9.1c-0.6-2.8,0-5,0.8-7.8c0.6-2.7,2.2-5.2,3.4-8.3c-1.6,0.2-2.7,0.2-3.8,0.6c-3.8,1.1-7.6,2.1-11.7,2
		c-3.8-0.1-6.9-1.3-9.9-3.8c-3.2-2.7-5.3-6.1-6.1-9.9c-0.7-3.7-0.9-7.7-0.1-11.2c1.8-7.3,5.2-14.1,10.6-19.5
		c4.3-4.3,9.5-7.6,15.6-8.5c6-0.8,12.1-0.6,17.4,3.1c2.8,1.9,5.7,3.7,7.3,6.9c1.3,2.7,2.4,4.2,2.9,7.4"/>
</g>
</svg>
