<?xml version="1.0" encoding="utf-8"?>
<!-- Generator: Adobe Illustrator 26.3.1, SVG Export Plug-In . SVG Version: 6.00 Build 0)  -->
<svg version="1.1" xmlns="http://www.w3.org/2000/svg" xmlns:xlink="http://www.w3.org/1999/xlink" x="0px" y="0px"
	 viewBox="0 0 566.929 566.929" enable-background="new 0 0 566.929 566.929" xml:space="preserve">
<g id="Outer_Square">
	<g id="Bottom_Right">
		<polyline fill="#cf9cf9" points="488.554,286.348 546.013,286.625 566.929,307.546 541.829,332.647 520.907,311.726 
			468.985,305.916 488.554,286.348 		"/>
		<polyline fill="#cf9cf9" points="465.726,309.179 516.725,315.912 537.646,336.829 512.542,361.93 491.624,341.013 
			446.157,328.744 465.726,309.179 		"/>
		<polyline fill="#cf9cf9" points="442.895,332.007 487.44,345.196 508.358,366.113 483.257,391.214 462.341,370.297 
			423.325,351.575 442.895,332.007 		"/>
		<polyline fill="#cf9cf9" points="420.066,354.838 458.152,374.48 479.073,395.401 453.97,420.502 433.052,399.585 
			400.499,374.407 420.066,354.838 		"/>
		<polyline fill="#cf9cf9" points="397.235,377.666 428.869,403.768 449.786,424.685 424.685,449.785 403.769,428.868 
			377.666,397.234 397.235,377.666 		"/>
		<polyline fill="#cf9cf9" points="374.408,400.494 399.585,433.052 420.503,453.973 395.402,479.073 374.481,458.152 
			354.835,420.066 374.408,400.494 		"/>
		<polyline fill="#cf9cf9" points="351.575,423.325 370.298,462.34 391.218,483.257 366.112,508.357 345.196,487.44 
			332.007,442.895 351.575,423.325 		"/>
		<polyline fill="#cf9cf9" points="328.749,446.157 341.013,491.623 361.931,512.54 336.829,537.641 315.913,516.724 
			309.179,465.726 328.749,446.157 		"/>
		<polyline fill="#cf9cf9" points="305.917,468.988 311.726,520.907 332.645,541.828 307.542,566.929 286.626,546.008 
			286.349,488.554 305.917,468.988 		"/>
	</g>
	<g id="Top_Right">
		<polyline fill="#cf9cf9" points="488.554,280.581 546.012,280.304 566.929,259.383 541.828,234.282 520.907,255.203 
			468.985,261.013 488.554,280.581 		"/>
		<polyline fill="#cf9cf9" points="465.726,257.75 516.725,251.017 537.646,230.1 512.541,204.999 491.624,225.916 446.156,238.185 
			465.726,257.75 		"/>
		<polyline fill="#cf9cf9" points="442.895,234.922 487.44,221.732 508.357,200.815 483.257,175.715 462.341,196.632 
			423.325,215.354 442.895,234.922 		"/>
		<polyline fill="#cf9cf9" points="420.066,212.091 458.152,192.448 479.073,171.527 453.969,146.427 433.052,167.344 
			400.498,192.521 420.066,212.091 		"/>
		<polyline fill="#cf9cf9" points="397.234,189.263 428.869,163.161 449.786,142.244 424.685,117.144 403.768,138.061 
			377.666,169.694 397.234,189.263 		"/>
		<polyline fill="#cf9cf9" points="374.408,166.435 399.585,133.877 420.502,112.956 395.402,87.855 374.481,108.776 
			354.834,146.862 374.408,166.435 		"/>
		<polyline fill="#cf9cf9" points="351.575,143.604 370.298,104.589 391.218,83.672 366.112,58.571 345.196,79.488 332.007,124.034 
			351.575,143.604 		"/>
		<polyline fill="#cf9cf9" points="328.749,120.771 341.013,75.306 361.93,54.389 336.829,29.288 315.912,50.205 309.179,101.203 
			328.749,120.771 		"/>
		<polyline fill="#cf9cf9" points="305.916,97.94 311.725,46.021 332.645,25.101 307.542,0 286.625,20.921 286.348,78.375 
			305.916,97.94 		"/>
	</g>
	<g id="Bottom_Left">
		<polyline fill="#cf9cf9" points="78.376,286.348 20.917,286.625 0,307.546 25.1,332.647 46.022,311.726 97.944,305.916 
			78.376,286.348 		"/>
		<polyline fill="#cf9cf9" points="101.204,309.179 50.205,315.912 29.284,336.829 54.387,361.93 75.305,341.013 120.772,328.744 
			101.204,309.179 		"/>
		<polyline fill="#cf9cf9" points="124.034,332.007 79.489,345.196 58.571,366.113 83.672,391.214 104.588,370.297 143.604,351.575 
			124.034,332.007 		"/>
		<polyline fill="#cf9cf9" points="146.863,354.838 108.777,374.48 87.856,395.401 112.959,420.502 133.877,399.585 166.43,374.407 
			146.863,354.838 		"/>
		<polyline fill="#cf9cf9" points="169.694,377.666 138.06,403.768 117.143,424.685 142.245,449.785 163.161,428.868 
			189.263,397.234 169.694,377.666 		"/>
		<polyline fill="#cf9cf9" points="192.521,400.494 167.344,433.052 146.426,453.973 171.527,479.073 192.448,458.152 
			212.094,420.066 192.521,400.494 		"/>
		<polyline fill="#cf9cf9" points="215.354,423.325 196.631,462.34 175.711,483.257 200.816,508.357 221.733,487.44 
			234.922,442.895 215.354,423.325 		"/>
		<polyline fill="#cf9cf9" points="238.18,446.157 225.916,491.623 204.998,512.54 230.1,537.641 251.016,516.724 257.75,465.726 
			238.18,446.157 		"/>
		<polyline fill="#cf9cf9" points="261.012,468.988 255.204,520.907 234.284,541.828 259.387,566.929 280.303,546.008 
			280.581,488.554 261.012,468.988 		"/>
	</g>
	<g id="Top_Left">
		<polyline fill="#cf9cf9" points="78.375,280.581 20.917,280.304 0,259.383 25.101,234.282 46.021,255.203 97.944,261.013 
			78.375,280.581 		"/>
		<polyline fill="#cf9cf9" points="101.203,257.75 50.205,251.017 29.284,230.1 54.388,204.999 75.305,225.916 120.772,238.185 
			101.203,257.75 		"/>
		<polyline fill="#cf9cf9" points="124.034,234.922 79.488,221.732 58.571,200.815 83.672,175.715 104.588,196.632 143.604,215.354 
			124.034,234.922 		"/>
		<polyline fill="#cf9cf9" points="146.863,212.091 108.777,192.448 87.855,171.527 112.96,146.427 133.877,167.344 
			166.431,192.521 146.863,212.091 		"/>
		<polyline fill="#cf9cf9" points="169.694,189.263 138.06,163.161 117.143,142.244 142.244,117.144 163.161,138.061 
			189.263,169.694 169.694,189.263 		"/>
		<polyline fill="#cf9cf9" points="192.521,166.435 167.344,133.877 146.427,112.956 171.527,87.855 192.448,108.776 
			212.095,146.862 192.521,166.435 		"/>
		<polyline fill="#cf9cf9" points="215.354,143.604 196.631,104.589 175.711,83.672 200.816,58.571 221.733,79.488 234.922,124.034 
			215.354,143.604 		"/>
		<polyline fill="#cf9cf9" points="238.18,120.771 225.916,75.306 204.999,54.389 230.1,29.288 251.017,50.205 257.75,101.203 
			238.18,120.771 		"/>
		<polyline fill="#cf9cf9" points="261.013,97.94 255.204,46.021 234.283,25.101 259.387,0 280.304,20.921 280.581,78.375 
			261.013,97.94 		"/>
	</g>
</g>
<g id="Inner_Square">
	<path id="Core_2_" fill="#3E314E" d="M283.466,481.272c-2.231,0-4.464-0.854-6.168-2.554L88.212,289.629
		c-3.405-3.401-3.405-8.926,0-12.331l170.551-170.551h49.403l170.551,170.551c3.405,3.405,3.405,8.93,0,12.331l-189.084,189.09
		C287.93,480.419,285.7,481.272,283.466,481.272"/>
	<g id="Megaphone">
		<path fill="#cf9cf9" d="M375.835,293.743c-5.729-3.319-64.262-90.906-64.262-90.906l-81.268,130.17l120.846,1.886
			c0,0-16.409,27.611-17.631,29.869c-2.263,4.183,0.479,5.69,0.479,5.69l9.586,5.27c0,0,3.662,2.013,6.122-2.062
			c2.956-4.896,17.735-29.812,17.735-29.812s13.198,7.249,15.206,8.359c4.43,2.448,26.172-40.186,21.825-42.711
			C399.223,306.446,381.161,296.829,375.835,293.743z"/>
		<path fill="#2E5163" d="M221.874,237.616c-22.749,38.279-24.202,79.408-3.244,91.864c20.958,12.454,56.392-8.478,79.14-46.76
			c22.75-38.28,24.202-79.41,3.244-91.865C280.056,178.4,244.623,199.335,221.874,237.616z"/>
		<path fill="#cf9cf9" d="M292.062,279.846c5.011-8.434,8.988-17.006,11.919-25.379c-5.414-9.039-15.298-15.093-26.603-15.093
			c-17.116,0-30.991,13.875-30.991,30.99c0,16.806,13.378,30.477,30.063,30.969C282.039,295.014,287.327,287.812,292.062,279.846z"
			/>
	</g>
	<g id="Flash_3_">
		<polyline id="N_3_" fill-rule="evenodd" clip-rule="evenodd" fill="#FFFFFF" points="180.303,318.834 182.334,329.037 
			199.987,313.17 202.509,326.809 225.785,294.348 208.213,306.538 205.701,295.309 180.303,318.834 		"/>
		<polyline id="I_3_" fill-rule="evenodd" clip-rule="evenodd" fill="#FFFFFF" points="161.884,327.422 187.375,307.728 
			185.618,294.994 161.884,327.422 		"/>
	</g>
	<g id="Flash_1_">
		<polyline id="N_1_" fill-rule="evenodd" clip-rule="evenodd" fill="#FFFFFF" points="191.727,240.745 186.138,248.332 
			207.528,250.464 199.939,260.475 235.867,256.247 216.986,251.923 222.971,243.391 191.727,240.745 		"/>
		<polyline id="I_1_" fill-rule="evenodd" clip-rule="evenodd" fill="#FFFFFF" points="174.741,233.657 203.476,238.703 
			210.928,229.757 174.741,233.657 		"/>
	</g>
	<g id="Flash_2_">
		<polyline id="N_2_" fill-rule="evenodd" clip-rule="evenodd" fill="#FFFFFF" points="262.4,211.068 273.536,208.214 
			254.971,189.692 269.867,186.092 232.658,162.363 247.162,181.017 234.923,184.461 262.4,211.068 		"/>
		<polyline id="I_2_" fill-rule="evenodd" clip-rule="evenodd" fill="#FFFFFF" points="272.982,230.873 249.725,203.934 
			235.782,206.636 272.982,230.873 		"/>
	</g>
</g>
</svg>
